<?xml version="1.0" encoding="utf-8"?>
<!-- Generator: Adobe Illustrator 25.2.3, SVG Export Plug-In . SVG Version: 6.00 Build 0)  -->
<svg version="1.1" id="Layer_1" xmlns="http://www.w3.org/2000/svg" xmlns:xlink="http://www.w3.org/1999/xlink" x="0px" y="0px"
	 viewBox="0 0 595.3 841.9" style="enable-background:new 0 0 595.3 841.9;" xml:space="preserve">
<style type="text/css">
	.st0{fill:#326697;}
	.st1{fill:#D9FDFD;}
	.st2{fill:#98FEFD;}
	.st3{fill:#501E1D;}
	.st4{fill:#2C567F;}
	.st5{fill:#FDC997;}
	.st6{fill:#326597;}
	.st7{fill:#643231;}
	.st8{fill:#CF9F70;}
	.st9{fill:#EFBF95;}
	.st10{fill:#592928;}
	.st11{fill:#E6F9FA;}
	.st12{fill:#DFF7F6;}
	.st13{fill:#E6FAF9;}
	.st14{fill:#A6FBFA;}
	.st15{fill:#DCF7F7;}
	.st16{fill:#E4FAFB;}
	.st17{fill:#E6FAFA;}
	.st18{fill:#E9FAF9;}
	.st19{fill:#E6F9F9;}
	.st20{fill:#E9F9FA;}
	.st21{fill:#B1F9F9;}
	.st22{fill:#DCF8F7;}
	.st23{fill:#AFF9F9;}
	.st24{fill:#E9F8FA;}
	.st25{fill:#E9F9F9;}
	.st26{fill:#E9F9F8;}
	.st27{fill:#C3F7F7;}
	.st28{fill:#DFF8F7;}
	.st29{fill:#B8F9F9;}
	.st30{fill:#DAF8F9;}
	.st31{fill:#E3F7F7;}
	.st32{fill:#FDFDFD;}
	.st33{fill:#FCC997;}
	.st34{fill:#2C557F;}
	.st35{fill:#FCFDFD;}
	.st36{fill:#F80404;}
	.st37{fill:#1C4874;}
	.st38{fill:#1C4773;}
	.st39{fill:#DAA979;}
	.st40{fill:#225181;}
	.st41{fill:#1E4C79;}
	.st42{fill:#1E4D7A;}
	.st43{fill:#1F4E7C;}
	.st44{fill:#DFBE9C;}
	.st45{fill:#2D5F8F;}
	.st46{fill:#255585;}
	.st47{fill:#1F4C79;}
	.st48{fill:#295C8D;}
	.st49{fill:#2A5B8B;}
	.st50{fill:#E0E9F0;}
	.st51{fill:#265888;}
	.st52{fill:#DCFCFB;}
	.st53{fill:#A2AFC1;}
	.st54{fill:#E2F2F6;}
	.st55{fill:#8D8F91;}
	.st56{fill:#B6CCE4;}
	.st57{fill:#B9FAFA;}
	.st58{fill:#BCFAFA;}
	.st59{fill:#BDFAFA;}
	.st60{fill:#FA0201;}
	.st61{fill:#CC9C6D;}
	.st62{fill:#F10A0A;}
	.st63{fill:#F21716;}
	.st64{fill:#E3D5D4;}
	.st65{fill:#E3EBE3;}
	.st66{fill:#CFE1DE;}
	.st67{fill:#A5FAFB;}
	.st68{fill:#C1C9B6;}
	.st69{fill:#8F5554;}
	.st70{fill:#633231;}
	.st71{fill:#633130;}
	.st72{fill:#8D5453;}
	.st73{fill:#62312F;}
	.st74{fill:#62302F;}
	.st75{fill:#5F2D2C;}
	.st76{fill:#5F2E24;}
	.st77{fill:#592726;}
	.st78{fill:#EAB98D;}
	.st79{fill:#562525;}
	.st80{fill:#5C2A29;}
	.st81{fill:#663031;}
	.st82{fill:#7E4E3C;}
	.st83{fill:#8E5454;}
	.st84{fill:#94F6F8;}
	.st85{fill:#895150;}
	.st86{fill:#613024;}
	.st87{fill:#5B2C2C;}
	.st88{fill:#3A5376;}
	.st89{fill:#98FDFC;}
	.st90{fill:#D2A171;}
	.st91{fill:#ADEEE1;}
	.st92{fill:#683B33;}
	.st93{fill:#F5D1A7;}
	.st94{fill:#D2A175;}
	.st95{fill:#D3A578;}
	.st96{fill:#BFE1CB;}
	.st97{fill:#EBEEE9;}
	.st98{fill:#E2B07F;}
	.st99{fill:#EDBB8A;}
	.st100{fill:#E1D5AE;}
	.st101{fill:#DDB080;}
	.st102{fill:#DBAE7E;}
	.st103{fill:#B4E9D8;}
	.st104{fill:#E3BA94;}
	.st105{fill:#C5C09D;}
	.st106{fill:#EFBC8B;}
	.st107{fill:#51201E;}
	.st108{fill:#824B4B;}
	.st109{fill:#EEBD91;}
	.st110{fill:#602E20;}
	.st111{fill:#98664F;}
	.st112{fill:#68878D;}
	.st113{fill:#ACFAF9;}
	.st114{fill:#FB0101;}
	.st115{fill:#D10705;}
	.st116{fill:#F60202;}
	.st117{fill:#D80B0A;}
	.st118{fill:#C4FAFA;}
	.st119{fill:#C8FBFB;}
	.st120{fill:#E2C19E;}
	.st121{fill:#E7B483;}
	.st122{fill:#E1AE7C;}
	.st123{fill:#6D7377;}
	.st124{fill:#48729C;}
	.st125{fill:#4A7197;}
	.st126{fill:#D40404;}
	.st127{fill:#EA0202;}
	.st128{fill:#E30303;}
	.st129{fill:#E40203;}
	.st130{fill:#DC0302;}
	.st131{fill:#EC0203;}
	.st132{fill:#F1C093;}
	.st133{fill:#673833;}
	.st134{fill:#F7F7F6;}
	.st135{fill:#734137;}
	.st136{fill:#F01E19;}
	.st137{fill:#EF130F;}
	.st138{fill:#774738;}
	.st139{fill:#D0A06F;}
	.st140{fill:#292124;}
	.st141{fill:#EDEDF0;}
	.st142{fill:#83523F;}
	.st143{fill:#E9B991;}
	.st144{fill:#4D7195;}
	.st145{fill:#6E3836;}
	.st146{fill:#334C6E;}
	.st147{fill:#4A5364;}
	.st148{fill:#A47455;}
	.st149{fill:#956449;}
	.st150{fill:#7A482E;}
	.st151{fill:#E84438;}
	.st152{fill:#FE4F50;}
	.st153{fill:#A8968E;}
	.st154{fill:#9C6A55;}
	.st155{fill:#A77756;}
	.st156{fill:#F3F0F0;}
	.st157{fill:#DDAC7B;}
	.st158{fill:#9B7565;}
	.st159{fill:#956944;}
	.st160{fill:#C2926B;}
	.st161{fill:#A27257;}
	.st162{fill:#AD7B64;}
	.st163{fill:#CAAE9E;}
	.st164{fill:#A17156;}
	.st165{fill:#8F5E48;}
	.st166{fill:#D0A177;}
	.st167{fill:#84553B;}
	.st168{fill:#966649;}
	.st169{fill:#875C4A;}
	.st170{fill:#DED8D8;}
	.st171{fill:#774142;}
	.st172{fill:#7F4E33;}
	.st173{fill:#4F7297;}
	.st174{fill:#0D1117;}
	.st175{fill:#DCDADE;}
	.st176{fill:#577EA7;}
	.st177{fill:#F6EFEF;}
	.st178{fill:#C2CFDB;}
</style>
<g>
	<g>
		<path class="st0" d="M365.9,660.1c0.4,4.8,0.6,9.6,1.4,14.4c0.6,3.4-0.5,5.1-3.3,6.8c-17.5,10.5-36.5,16.5-56.6,19.5
			c-13.2,1.9-26.5,2.4-39.8,2.1c-2-0.1-4,0.2-5.9-0.8c1.7-2.1,4.2-1.7,6.5-1.8c3-0.1,4.1-1.4,3.8-4.4c-1.2-12.5-0.9-24.9,0.6-37.3
			c0.8-6.7,1.4-13.6,4.9-19.7c5-2.8,10.1-1.2,15.1-0.2c2.1,0.6,3.5,2.2,5.2,3.3c0.4,0.3,0.8,0.6,1.1,0.9c2.1,1.9,4.1,4.1,6.9,5.2
			c-2-2.3-3.9-4.7-6.6-6.2c-3.4-5.3-9.7-5.2-14.5-8c-1.4-1-3.3-1.7-2.8-4c0.6-0.5,1.4-0.7,2.1-0.6c1.9,0.4,3.9,0.5,5.8,0.4
			c6.6-0.1,12.7,1.4,18.4,5.1c2.8,1.8,5.8,3.2,9,4.1c1.3,0.4,2.3,0.3,2.4-1.3c0.8-1.6,2.5-1.4,3.7-2.2c0-2-1.7-2.3-2.9-3
			c-7.7-5.3-16.1-9.2-24.8-12.5c-1.1-0.4-2.2-0.8-3.2-1.3c-1.4-0.7-3.5-1.1-3.4-3.1c0-1.9,1.8-2.6,3.3-3.3c8.3-4,16.8-7,26.4-5.3
			c-5.9-1.1-11.6-2.9-17.6-2.1c-2.9-1-3.3-3.2-2.3-5.6c5.4-12.7,1.9-24.5-3.2-36.2c-7.4-16.9-17.2-32.3-27.7-47.3
			c-1.1-1.6-1.9-3.6-4.2-4c-3.5-2.2-4.5-6.1-6-9.5c-6.2-14-13.6-27.4-20.2-41.2c-1.6-3.4-3.1-3.3-6-1.3c-13.2,8.8-23.5,20.4-34,32
			c-12.8,14.2-25.7,28.4-40.4,40.7c-3,2.5-3.3,3.5,0.1,6c22.9,16.6,42.3,36.9,62.1,56.9c0.6,0.6,1.1,1.3,1.4,2c0.4,1,0.4,2,0.2,3
			c-0.9,2.6-1.6,5.4-4.6,6.6c-3.8-0.3-6.1-3.2-8.9-5.2c-14.2-10.2-29.3-19-44.3-28c-11.9-7.2-21.5-16.7-27.5-29.5
			c-3.2-6.8-3.4-12.9,1.3-19.6c14.5-20.7,29.6-41,45.7-60.5c11-13.3,20.9-27.6,31.7-41.1c6.9-7.8,13.3-16.1,20.6-23.5
			c1.5-1.5,2.7-4,5.7-2.8c2.3,4.8,3.5,9.9,5.1,14.9c1.9,5,3.2,10.1,4.9,15.2c2.6,8.5,5.8,16.8,7.9,25.4c2.9,5.4,7.3,9.8,10.8,14.8
			c6.5,9.3,12.9,18.6,18.7,28.4c3.3,5.8,5.9,12,9,17.9c1,3.5,2.8,6.7,3.3,8.8c-0.8-2.6-2.4-6.4-4-10.2c-3.1-5.9-5.6-12.1-9.1-17.8
			c-6.4-10.8-13-21.5-20.8-31.5c-1.9-2.5-3.7-5.2,1-6.8c2.8,0.1,5.6-0.5,7.1-0.5c-1.8,0.2-4.8,0.6-7.9,0.5c-4,0.9-7.3,0.4-8.5-4.3
			c-2.1-8.6-5.4-16.9-7.9-25.4c-1.7-5.3-3.2-10.7-5.2-15.9c-1.2-4.8-3-9.3-4.4-14c0.3-4.4,4.2-6,6.7-8.7c1.1-0.8,2.3-1.5,3.2-2.6
			c0.9-0.8,1.7-1.8,3.1-1c8.2,10.6,14.2,22.5,20.1,34.4c9.8,19.9,18,40.4,23.5,62c0.6,2.4,1.2,4.9,1.7,7.3c0.4,2.2,0.6,4.4,1.3,6.5
			c0,0.3,0.2,0.5,0.5,0.6c0.1-1.2-0.1-2.3,0-3.4c0.6-6.6,2.1-13.1,2-19.8c3.3-25.5,6.5-51,10.5-76.3c0.6-3.8,0-7.6,0.5-11.4
			c0.5-3.2,2.5-4,4.9-2.4c10.2,6.7,21.3,6.5,33,6.1c18.8-0.5,37.6-1.2,56.3-1.6c12.3-0.2,24.6-0.6,36.9-0.8c2,0,4-0.4,6-0.6
			c2.8-0.3,3.1-1.5,2.3-4c-2-6.2-2.5-12.7-2.7-19.2c-0.3-11.8,0.8-23.6-0.9-35.4c-0.9-6.1-3.6-11.8-4.3-17.9c0.1-0.9,0.4-1.7,1-2.3
			c0.4-0.4,0.9-0.7,1.4-0.9c2.3-0.5,4.5-1.4,6.8-1.9c0.8-0.1,1.6,0,2.4,0.3c2.1,1.1,2.9,3.1,3.6,5.2c9,25,16.7,50.2,21.6,76.4
			c2.1,11.3,1.7,12.3-8.6,17.5c-16.5,8.3-34.3,11.5-52.5,13.1c-21.6,1.8-43.1,4.1-64.6,6c-3.3,0.3-4.9,1.5-4.3,5
			c0.8,4.6,0.5,9.3,1.7,13.9c1.4,5.3,0.5,9.8-3.8,13.6c-1.5,1.3-2.6,3.1-3.8,4.6c-17.3,21.6-23.4,46.3-19.8,73.4
			c1.8,13.2,4.1,26.3,6.1,39.4c1.4,9.6,4.7,18.3,10.5,26.1c12.1,16,18.7,34.3,22.5,53.8C366,653.6,365.1,656.9,365.9,660.1z"/>
		<path class="st1" d="M365.9,660.1c-2.5-11.2-4.5-22.5-8.4-33.3c-2.9-7.8-5.7-15.8-11-22.3c-10.7-13.1-15.6-28.3-17.4-44.9
			c-1.1-10.1-3.3-20-4.5-30.1c-3.3-27,3-51.5,20.4-72.8c7.4-3,13.8,0.8,20.6,2.8c1.6,0.7,3.1,1.7,4.9,2
			c17.2,7.2,29.4,19.3,36.7,36.4c0.3,1.5,0.7,3,1.7,4.2c0.9,1.1,2.1,1.3,3.4,1.2c1.7-0.3,3.1-1.3,4.7-1.7c8.5-3.3,17.4-2.5,26.1-2.2
			c3.4,0.1,6.1-0.6,8.3-3.3c11.9-14.5,27.8-18.4,45.6-16.7c6.6,0.6,24.4,12,28.5,17.2c8.4,10.8,0.1,27,4.4,40
			c0.8,2.4,2.1,4.8,2.2,7.3c0.4,10.4-18.3,22.9-26.1,26.7c-1.9,0.9-3.4,1.9-4,4c-2.2,2.3,0.2,5.7-2,8c-0.2,7.4-3.6,13.8-7.2,19.9
			c-2.8,4.8-6.9,8.7-10.5,13c-7.4,8.7-17,13.7-26.9,18.5c-2.3,1.1-4.9,0.3-7.4,0.6c-1,1.3-3,0.6-4,2c-6,0-12,0-18,0
			c-1.6-1.8-4.4-0.2-6-2c-1.3,0-2.7,0-4,0c-1-1.4-3-0.6-4-2c-5-0.7-9.2-3.3-13.1-6.2c-2.8-2.1-5.4-3.6-9.1-1.9
			c-2.6,1.2-1.4,3.4-2.1,5.1c-1.6,4.2-3.4,8.5-6.2,12c-3.4,4.2-5.2,9.9-11.2,12C368.1,654.7,365.7,656.9,365.9,660.1z"/>
		<path class="st1" d="M240,395.8c-7.8,7-14.2,15.3-21.1,23.2c-1.2,1.4-2.5,2.7-3.7,4c-3.6,0.4-6.3-1.9-9.1-3.6
			c-3-1.8-4.4-2.1-5.3,2c-1.7,7.7-5.1,14.8-10.3,20.8c-5.5,6.4-12,11.4-20.2,14c-1.8,0.2-3.3,1.3-5.1,1.8
			c-6.3,2.2-12.6,3.9-19.2,0.8c-1.9-2.9-4.8-3.8-8-4.1c-1-1.4-3-0.6-4-2c-12.4-5.1-19.8-15-25.5-26.6c-0.8-1.8-0.4-3.6-0.5-5.4
			c-1.8-1.6-0.1-4.4-2-6c0-2.7,0-5.3,0-8c1.5-2.7,1.5-5.3,0-8c-5-0.5-9.3,2.9-14.4,2.1c-10.4-1.6-20.2-4.7-28.3-11.8
			c-5.8-5.2-10.6-11.1-14.2-18.1c-0.5-1.1-1-2-1-3.2c0-9.3-0.5-18.6,0.2-27.9c0.4-5.8,5-10.1,8.4-14.6c6.1-7.9,14.4-12.8,23.5-16.4
			c1.1-0.4,1.7-0.9,1.8-2c1.4-1,0.6-3,2-4c0.3-6.7,3.9-12.2,7-17.7c2.9-5.1,7.3-9.3,11.2-13.7c8.5-9.7,19.9-14.2,31.5-18.2
			c6.6-2.3,13.7-3,20.9-2.4c3,0.2,5.2,3.1,8.4,2.1c1.4,1.4,3.7,0.5,5,2c0.7,0,1.3,0,2,0c1,1.4,3,0.6,4,2c5.6,1,10.2,4.5,14.4,7.8
			c6.5,5.3,12.6,11.3,17.6,18.2c1.4,1,0.6,3,2,4c0,2.2,0.1,4.5,0.1,6.7c0,0,0.3,0.1,0.3,0.1c0.2-0.4,0.4-0.7,0.6-1.1
			c2.4,0.6,2,2.7,2.5,4.4c3,11.2,10.2,18.6,21.3,21.5c11.1,2.9,21,0.1,29.1-8.2c1.5-1.5,2.6-3.5,4.6-4.4c2.6-0.9,3.6,0.7,4.4,2.7
			c1,6.9,1.9,13.9,1.4,21c1.9,8.6-0.7,16.9-1.4,25.4c-0.9,3.4-3.9,4.6-6.4,6.5c-1.3,1.1-2.6,2.4-4.6,1.9
			c-4.9-4.6-8.9-10.1-14.6-13.8c-3.4-2.2-7.1-3.6-11-4.6c-1-0.2-2.1-0.6-2.8,0.3c-0.7,0.9-0.1,1.9,0.4,2.8
			c3.4,5.8,7.8,10.7,13.4,14.5c3.1,2.2,6.2,4.5,9.2,6.8c1.2,0.9,3.1,1.7,2.1,3.9c-0.7,0.4-1.4,0.5-2.1,0.4
			c-5.4-1.9-10.8-1.8-16.2,0.2c-1.8,0.7-3.7,1.3-5.5,2c-3.2,1.1-6.3,2.3-9.1,4c-1.2,0.8-3.2,1.3-3,3c0.2,1.9,2.2,2.3,3.8,2.8
			c4.5,1.5,9,2.3,13.7,1c2.1-0.6,4.2-1,6.4-1.1c1.2,0.3,3.2-1,3.4,1.6c-2.5,2.6-4.9,5.2-7.4,7.7C240.7,395.3,240.4,395.6,240,395.8z
			"/>
		<path class="st2" d="M411.9,504.8c-1.6-0.1-3.6,0.7-4-1.9c-0.7-1.3-0.6-3-2-4c-7.2-16.8-19.1-28.8-36-36c-1-1.3-2.7-1.2-4-2
			c-6.9-1.8-13.7-4.4-21-4.1c0.7-1.1,1.3-2.5,2.3-3.2c6.2-4.3,6.1-10.1,4.6-16.7c-1.1-4.5-1-9.2-1.5-13.9c-0.3-2.7,0.9-3.8,3.6-4
			c25.3-2.3,50.7-4.7,76-7.1c16.6-1.6,32.3-6,47-14.1c3.7-2,5.3-4,4.5-8.9c-4.7-28.5-13.6-55.8-23.1-83c-0.4-1.3-0.9-2.5-2-3.3
			c4.6-3.7,2.8-7.6,0.8-11.9c-2.6-5.7-5-11.5-6.7-17.5c-0.7-2.4-2-3.7-4.6-3.3c-3.7-1.1-4.5-5.1-6.8-7.5c-2.3-2.5-4.4-5.1-7.2-7.3
			c-7.9-6.2-16.3-11.9-23.5-19c-1.4-1.4-3.6-2.7-2.3-5.4c2.6-1.3,5.5-0.7,8.2-1.7c5,0,10,0,15-0.1c18.7-0.1,36.7,4.1,53.3,12.5
			c14.9,7.6,27.3,18.4,36.6,32.9c6.4,10,11.4,20.5,15.2,31.6c0.5,0.8,0.8,1.7,0.9,2.6c0.2,1.5-0.3,3.2,1,4.4l0.1-0.1
			c0.9,1,0.9,2.2,0.9,3.4c0.1,1.6-0.4,3.3,0.9,4.6c0.1,0.6,0.1,1.3,0.2,1.9c1.7,2.5,0.8,5.5,1.9,8.1c0.4,6.3,0.8,12.7,0.7,18.9
			c-0.2,11.9-0.3,23.7-2,35.6c-1.7,11.6-5.1,22.8-6.7,34.3c-1.1,1.5-1.1,3.5-1.9,5.1c-3,9.5-6.2,18.8-10,28c-0.8,1.3-0.7,3-1.9,4.1
			c-2.3,7.5-5.8,14.5-9.2,21.6c-0.4,0.7-0.6,1.5-0.8,2.3c-0.9,0.9-1.2,2.5-2.9,2.2c-5.7-1.5-11.4-2.3-17.4-2.3
			c-14.5,0-26.1,5.7-35.3,16.6c-2.4,2.9-4.6,4.1-8.7,3.8c-9.2-0.8-18.5-0.7-27.5,1.8C414.7,503.6,413,503.5,411.9,504.8z"/>
		<path class="st2" d="M170.1,454.9c8-2.4,14.4-7.3,19.5-13.6c5.7-7,9.5-15.1,10.5-24.3c0.2-2.1,1.2-1.8,2.7-1
			c4.1,2.4,8.3,4.7,12.4,7c-15.3,19.7-30,39.9-46,59.1c-12.1,14.6-22.8,30.4-33.4,46.1c-1.9,2.8-2.2,5.4-1.3,8.5
			c4.7,16.4,15.9,27.6,30,35.9c17.7,10.4,35,21.2,51.6,33.4c0.8,2.7-0.8,4.3-2.6,5.8c-0.7,0.5-0.7,1.1,0,1.7
			c7,3.5,11.3,10.2,17.7,14.5c3,2,5,2.8,7.5-0.3c1.2-1.5,3-2.1,5-1.4c0.5,0.2,0.9,0.6,1.2,1.1c0.5,1.1,0.6,2.2,0.5,3.3
			c-5.6,15.8-3.8,32-2.2,48.2c0.2,2.4,1.1,4.9-1,7.1c-11.4-0.7-22.9-0.2-34-3.2c-15.3-4.1-29.6-10.2-42.1-20.6
			c-17.8-14.8-28.8-33.7-35.2-55.4c-2.6-8.8-5.2-17.8-4.8-27.2c0.2-5.6-1.7-11.1-1.9-16.8c-0.4-9.4,2.5-18.4,2.1-27.7
			c1.7-3.2,0.7-6.8,1.9-10.1c0.5-11.4,4-22.2,7.2-33c0.5-1.6,0.9-3.2,1-4.8c1.3-1.1,0.6-3,1.9-4.1c1.8-7.1,4.4-13.8,7.2-20.6
			c0.4-1,0.6-2.2,0.9-3.3c6.7,0.1,13.4-0.1,19.9-2.1C167.3,456.1,169,456.2,170.1,454.9z"/>
		<path class="st3" d="M266.8,306.8c-11.5,13.5-24.3,17.6-38,12c-11.7-4.8-17.5-14.1-19.6-26.2c0.3-9.1,2.6-17.4,9.4-23.9
			c2.4-2.3,0.6-3.8-0.5-5.5c-6.1-9.4-10.5-19.5-12.1-30.7c-2.4-16.4,2.9-30.7,11.2-44.3c0.5-0.8,1-1.6,1.5-2.4
			c3-2.6,4.6-6.3,7.8-8.7c1.3-1,2.6-2.7,3.2,0.5c-0.2,1.2-1,2.2-1.7,3.2c-5.4,5.7-8.6,12.7-11.3,20c-2.3,5.3-2.5,10.9-1.8,16.6
			c1.6,12.1,3.8,24.1,7.7,35.8c1.9,5,3.3,10.1,5.4,14.1c0.8,1.3,1.4,0.2,0.9,0.6c-0.1,0.1-0.2,0-0.3-0.1c-3.1-4.8-4.1-10.4-6.3-15.6
			c-3.9-11.7-6.1-23.6-3.7-35.9c0.5-2.6,1-5.2,2-7.6c2-6.3,4.7-12.2,9.5-17c0.9-0.9,1.6-1.9,3-2.1c0.8,0.1,1.4,0.5,1.6,1.3
			c0.2,1-0.2,2-0.6,2.9c-3.2,5.5-6.8,10.8-9,16.9c-1,5.9-0.9,11.8,1.9,18.1c-1.4-5.7-1.6-10.8,0-15.8c0.7-1.9,1-4.1,3.1-5.2
			c1.4-0.1,1.8,0.9,2.1,1.9c0.3,1,0.3,2,0.3,3c-0.3,3.5,0.5,6.9,1.3,10.3c1.5,5.5,4.5,6.7,9.1,3.4c7-5,13-11.2,19.4-17
			c3.2-2.9,6.1-6.1,9.2-9.1c1.3-1.2,2.4-2.8,4.6-2.5c1.5,2.4-0.5,3.7-1.6,5.1c-5,6.2-10.2,12.3-15.8,18c-0.4,0.5-0.7,1.1-1.3,1.4
			c0.6-0.1,0.8-0.6,1.2-1c2.3-3.3,5.2-6,9-7.6c1.1,0.4,1.4,1.3,1.3,2.4c-1.2,4.2-4.1,7.5-5.6,11.6c-1.9,5.3-2.6,10.3,1.5,14.9
			c0.6,0.6,0.8,1.4,0.8,2.3c-0.1,0.8-0.5,1.4-1.2,1.7c-4.4,0.6-6.6-2.4-8.6-5.4c-2.1-3.1-4.1-6.3-7.1-8.8c-1.1-1.2-2.4-1.4-3.9-0.8
			c-0.4,0.2-0.8,0.4-1.1,0.6c-2.8,1.4-4,3.9-4.7,6.8c-1,7.4,1.5,10.4,8.6,10.1c3.1-0.2,5,1.1,6.3,3.8c1.6,3.1,2.8,6.4,3.4,9.9
			c2.2,11.9,6.3,23,12.7,33.3c0.5,2.7,0.5,5.4-0.7,7.9C268.7,305,267.7,305.9,266.8,306.8z"/>
		<path class="st4" d="M235.2,168.8c-0.1-7.7-0.2-15.4-0.3-23.1c0-2.8,0.6-5.3,4-5.7c5.2,3.7,11.2,4.2,17.3,4.8
			c12.9,1.3,24.8,6.4,37.1,9.6c14.8,3.9,29.5,5.5,43.7-2c1.2-0.6,2.5-1.1,3.8-0.4c0.3,4.4-1.7,8.4-2.5,12.6c-0.4,2.1-1.6,4-0.6,6.2
			c-1.2,1.7-3.4,2.1-4.6,3.7c-0.3,0.3-0.6,0.6-1,0.9c-1,0.8-2.1,1.5-3.2,2.2c-1.2,0.5-2.2,1.4-3.3,2c-3.4,1.3-5.8,4.2-9.2,5.5
			c-2.8,1.3-5.7,2.3-8.7,3.2c-1.3,0.7-2.5,1.5-4,1.7c-2.8,0.1-5.5,0.6-8,1.7c-1.3,0.4-2.6,0.5-3.9,0.5c-3.2-0.2-6.4,0.5-9.4-0.9
			c-1.7-1-3.6-1.1-5.4-1.5c-0.4-0.1-0.9-0.3-1.2-0.5c-1.2-1.1-2.7-1.3-4.2-1.2c-0.5,0-0.9,0-1.4-0.1c-12.8-3.3-23.4-11-34.2-18.1
			C235.6,169.7,235.4,169.3,235.2,168.8z"/>
		<path class="st4" d="M242,685.8c-0.7-10-2.4-19.8-2.4-29.8c0-9.1,0.7-18,4.7-26.3c0.5-1.1,1.4-1.5,2.6-1.4
			c8.5,3.8,17.2,6.6,26.5,7.9c1.8,0.3,4.2-0.1,4.8,2.5c-4.8,16.6-5.5,33.5-5.2,50.6c0.1,2.9,0.8,5.6,1.1,8.4
			c0.3,2.9-0.6,4.4-3.8,4.2c-2.8-0.2-5.6,0.1-8.5,0.1c-0.5,0-1,0.1-1.5,0.1c-4.8-0.5-10.2,0.3-14.1-1.8c-4.3-2.4-2.1-8.7-3.5-13.1
			C242.5,686.7,242.2,686.2,242,685.8z"/>
		<path class="st5" d="M405.8,231c1.7,3.6,4.8,5.8,7.8,8c7.2,5.4,13.9,11.3,21.3,16.6c3.8,2.7,6.2,7.5,9.1,11.4
			c0.6,0.8,0.8,1.8,1.9,2c-0.7,4.4-4.2,5-7.7,5.5c-2.7-0.5-3.4-3-4.9-4.8c-2-2.4-3.6-1.1-5.1,0.7c-5.8,4.1-11.9,5.3-18.7,2.4
			c-3.7-1.6-7.5-2.7-11.4-0.5c-1.4,0.2-2.8,0.3-4.2,0c-1.6-0.4-2.6-1.3-2.9-2.9c-0.1-0.9,0.1-1.7,0.5-2.5c4-4.8,9.4-5.5,15.1-5.3
			c0.4-0.1,1,0,1.1-0.6c0.1-0.5-0.5-0.7-0.9-0.9c-8.2-6.6-18.6-8.8-27.5-13.7c-2.5-1.4-5.2-2.2-7.3-4.3c-1.2-1.5-2.7-2.4-4.6-2.9
			c-0.9-0.4-1.7-1-1.8-2.2c0.2-1.2,1.1-1.7,2.2-1.9c1-0.2,2-0.1,3,0.1c1.2,0.3,2.3,0.7,3.4,1.3c3,1.6,6.5,1.9,9.1,4.3
			c1.4,0.7,2.7,1.5,4.1,2.2c1,0.4,1.8,1.2,2.8,1.7c0.7,0.4,1.4,0.9,2.1,1.2c0.6,0.3-0.1-0.1,0.5,0.1c0.5,0.1,0.5-0.1-0.1,0
			c-0.3,0-0.6-0.2-0.9-0.4c-0.9-0.6-1.9-1.1-2.7-1.8c-1.5-1.7-3.7-2.3-5.7-3.4c-2.5-1.1-4.2-3.5-6.9-4.3c-1.1-0.7-2-1.5-1.8-2.9
			c2.9-3.2,5.4,0,8,0.6c2.7,1.3,5.6,2.2,8.2,3.8c0.5,0.3,1,0.7,1.6,0.7c-0.4-0.3-0.9-0.3-1.2-0.6c-2.5-1.7-5.4-2.5-8.1-3.9
			c-3.6-2-7.4-2.5-11.4-0.9c-1.7-0.1-3.2-0.4-4.4-1.7c-1.6-2.7-0.2-3.9,2.3-4.2c2.1-0.3,4.2,0,6.2-0.8c4-0.9,8.1,0.1,12.1-1
			c6.3-0.6,11.1,2.6,16,5.9C404.6,230.3,405.2,230.4,405.8,231z"/>
		<path class="st6" d="M341,152c-17,10.5-34.8,8.1-52.4,2.6c-14-4.4-27.9-8.3-42.5-9.7c-3-0.3-6.3-1-7.1-4.9c1.5-1.5,3.4-1,5.2-1
			c20.8,0,41.6-0.4,62.4,0.1c11,0.3,21.4,4.2,31.7,8.2C340.1,148,341.6,149.5,341,152z"/>
		<path class="st7" d="M332.1,174c1.5-1.8,3.2-3.4,5.8-3.2c20.7,9,34.3,23.4,35.9,47c-4.3,2.2-6.9-1-9.9-2.9c-0.1-0.5,0-0.9,0.3-1.3
			c0.7-0.6,1.6-0.9,2.3-1.4c1.3-4.4-1.6-7.6-3.4-11.1c-6.7-11-17.7-16-28.9-20.6c-1.9-0.8-4.8-0.4-5.2-3.6c0.7-1.2,1.5-2.1,3-2
			c4.4,0.1,8,2.6,11.4,4C340.2,176.8,335.8,176,332.1,174z"/>
		<path class="st8" d="M388,224.9c-3.5,3.4-7.9,1.5-12,2c-1.3,0.7-2.6,0.6-4,0.1c-0.8-1.9-3.3-1.8-4.3-3.4c0.5-1.7-1.2-1.5-1.9-2.3
			c-1-1.1-3.2-1.8-1.4-3.9c5.9,0.1,10.6,3.7,16.1,5.2c2.2,0.6,4.3,1.4,6.4,2.2C387.4,224.8,387.7,224.9,388,224.9z"/>
		<path class="st9" d="M387.1,224.8c-7.9-1.5-15.4-4.3-23-6.9c-0.4,0.4-0.8,0.5-1.3,0.3c-1.5-1.4-2.9-2.8-2.1-5.2
			c1.4-0.8,2.3-0.2,3.1,1c3.2,1.5,6.3,3.5,10,3.7c1.8,3.8,6.1,3.2,9,5C384.1,223.5,385.9,223.6,387.1,224.8z"/>
		<path class="st10" d="M235.2,168.8c0.2,0.1,0.5,0.2,0.7,0.3c0.1,3.7-2.4,7-7,8.9c-0.4-2.5-1.3-0.8-2.2-0.3
			c-3.3,2.2-4.3,6.6-8.2,8.2C222.8,178.8,228.4,173.2,235.2,168.8z"/>
		<path class="st11" d="M106,398.9c3.3,2.7,3.2,5.3,0,8C106,404.2,106,401.6,106,398.9z"/>
		<path class="st12" d="M405.8,231c-0.6-0.1-1.2-0.1-1.8-0.2c2.8-3.9,6.7-1,10.1-1.8C411.5,230.4,408.7,230.9,405.8,231z"/>
		<path class="st13" d="M500,582.8c0.8-2.6-2-6.2,2-8C501.1,577.5,503.9,581,500,582.8z"/>
		<path class="st14" d="M128,524.8c-0.9,3.3,2.1,7.3-1.9,10.1C125.8,531.3,126.2,527.9,128,524.8z"/>
		<path class="st15" d="M539.9,331c-1.4-2.5-2.1-5.2-1.9-8.1C541.8,324.9,539.2,328.3,539.9,331z"/>
		<path class="st16" d="M420,634.8c2,0.6,5-1.6,6,2C424,636.2,421,638.4,420,634.8z"/>
		<path class="st17" d="M106.1,414.9c3.5,1.1,1.4,4,2,6C104.5,419.8,106.7,416.9,106.1,414.9z"/>
		<path class="st18" d="M168,254.9c-1.9,0-4,0.3-5-2C164.8,253.3,167.3,251.8,168,254.9z"/>
		<path class="st11" d="M412,632.8c1.6,0.2,3.6-0.6,4,2C414.4,634.7,412.3,635.5,412,632.8z"/>
		<path class="st19" d="M444,636.8c0.4-2.6,2.4-1.8,4-2C447.6,637.5,445.5,636.7,444,636.8z"/>
		<path class="st20" d="M174,256.9c-1.6-0.2-3.6,0.6-4-2C171.6,255.1,173.7,254.3,174,256.9z"/>
		<path class="st21" d="M535.9,312.9c-2.6-0.5-1.8-2.5-1.9-4.1c0.7-0.5,1.3-0.5,1.9,0.2C535.9,310.3,535.9,311.6,535.9,312.9z"/>
		<path class="st22" d="M536,316.8c0-1.3,0-2.6,0-3.9c2.6,0.5,1.8,2.5,1.9,4.1C537.2,317.5,536.6,317.5,536,316.8z"/>
		<path class="st23" d="M536,316.8c0.6,0.1,1.2,0.1,1.9,0.2c0,1.3,0,2.6,0,3.9C535.3,320.5,536.1,318.4,536,316.8z"/>
		<path class="st24" d="M208,286.9c-2.6-0.4-1.8-2.4-2-4C208.6,283.3,207.9,285.3,208,286.9z"/>
		<path class="st25" d="M134,452.9c1.6,0.2,3.6-0.6,4,2C136.5,454.7,134.4,455.5,134,452.9z"/>
		<path class="st26" d="M84,302.9c-0.2,1.6,0.6,3.6-2,4C82.2,305.3,81.4,303.3,84,302.9z"/>
		<path class="st27" d="M138,482.8c-0.1,1.6,0.7,3.6-1.9,4.1C136.1,485.3,135.5,483.3,138,482.8z"/>
		<path class="st28" d="M530,424.9c-0.1-2-0.2-3.9,1.9-5.1C532.1,421.8,531.5,423.5,530,424.9z"/>
		<path class="st29" d="M518,457c0-1.7,0.6-3,1.9-4.1C519.8,454.5,520.5,456.5,518,457z"/>
		<path class="st30" d="M505,483c1-0.7,2-1.5,2.9-2.2c0,1.5-0.7,2.4-2,3C505.7,483.6,505.3,483.3,505,483z"/>
		<path class="st31" d="M535.9,309c-0.6-0.1-1.3-0.1-1.9-0.2c0-1,0-1.9,0-2.9C535.3,306.6,536,307.5,535.9,309z"/>
		<path class="st2" d="M219.8,596.9c-7.6-7.5-15.1-14.9-22.7-22.4c-13.7-13.4-27.5-26.6-43.4-37.4c-2.1-1.4-2.2-2.2-0.2-3.9
			c21-18,39.3-38.7,57.8-59.2c6.5-7.3,15.1-12,22.6-18c2.9-2.3,3.3,0.8,4,2.3c7.1,14.5,14.1,29,21.2,43.5c1.5,3.1,3.2,6.2,4.7,9.3
			c1.7,0.9,2.2,2.2,1.5,4c-5.1,4-10.5,7.4-15,12.3c-9.2,10.1-12.7,21.9-11.5,35.3c0.7,7.8,3.2,14.9,7.5,21.4
			c5.9,9,14.3,14.6,24.3,18.1c1.5,2.3-0.6,3.2-1.9,4.3c-2.5,2.1-5.2,4-7.8,6.2c-2.3,1.3-3.9,3.3-5.5,5.4c-1.5,1.6-3.2,2.2-5.3,1.3
			c-1.4-0.8-1.3-2.9-3.1-3.4c-8.8-4.8-16-11.6-23.3-18.4C222.7,596.2,221,597.7,219.8,596.9z"/>
		<path class="st2" d="M397.9,271c4.6-4.1,9.2-0.8,13.2,0.7c6.5,2.4,11.6,0.6,16.9-2.7c2-1.4,4-1.4,6,0c2.1,1,2.2,3.8,4.1,5
			c-6.3,4.8-3.1,10.2-1,15.5c1.4,3.4,2.7,6.8,3.9,10.3c0.4,1.4,0.3,2.9,1.3,4.1c0.3,0.3,0.6,0.6,0.9,0.8c0.8,0.6,2,0.5,2.7,1.3
			c6,14.5,6.9,29.7,6.6,45.1c-0.2,6.2-0.4,12.3,0.2,18.5c0.5,5.3,1.3,10.5,5.2,15.3c-4.2,0.3-7.8,0.7-11.4,0.8
			c-35.3,1-70.6,1.8-105.9,3.2c-8.6,0.3-15.4-3.3-22.5-7c-1.3-0.7-3-2.6-3.1,0.9c-3.7-0.7-3.3-4.2-4.8-6.5c-0.3-0.3-0.6-0.7-0.9-1
			c-1-1.3-1.8-2.7-2-4.4c-0.1-2.9,1.8-4.6,3.5-6.5c1.1-1.5,0.1-3.5,1.3-4.9c7.4-4.2,14.3-9,20.3-15.2c1.2-0.5,2.5-0.5,3.7-0.2
			c4.3,1.7,7.9,4.8,12.2,6.6c17.3,7.1,38.6,2.9,51.6-10.5c4.2-4.4,7-9.7,9.5-15.1c1.1-1.4,1.5-3,1.6-4.8
			c4.9-16.6-0.2-30.9-10.4-43.9C399.1,274.8,396.7,273.7,397.9,271z"/>
		<path class="st32" d="M311.1,375c1.1,2.6,1.7,5.5,3.7,7.7c1.4,10.1-1.6,19.7-2.8,29.6c-2.5,19.6-5.3,39.1-7.9,58.6
			c-1,6.9-2.1,13.8-2.6,20.8c-0.2,1.7,0.6,3.4-0.6,5c-2,0.7-1.9-0.5-1.7-1.8c0.8-2.9-0.8-5.3-1.3-7.9c-6.6-26-15.9-51-28.4-74.7
			c-5.2-9.8-10.9-19.4-16.3-29c0-1.5,0.9-2.4,2.2-3c5.2,0.3,10.4,2.5,15.5-0.6c2.2-0.9,4.2,0,6.2,0.7c8.9,3.1,17.9,2.7,26.7,0
			C306.7,379.4,309.6,378.1,311.1,375z"/>
		<path class="st33" d="M250,618.8c1.9,0.2,3.8,0.1,5.1-1.6c1.9-1.6,4-3.2,5.9-4.8c5.7-3.9,11.4-7.7,18.4-8.8
			c2.3-0.2,4.6,0.4,6.7-1.1c0.4-0.2,0.9-0.4,1.3-0.5c1.2-0.2,2.4-0.2,3.4,0.5c0.8,1.5-0.1,2.4-0.9,3.3c-0.3,0.5-0.7-0.3-0.2,0.2
			c0.4,0.3,0.6-0.2,1-0.3c3.3-1.2,6.6-2.4,10.2-2.1c7.4-1.9,14.1,1.5,21.3,2.2c-5.3,3.9-11.5,0.9-16.9,2.4
			c-5.5,1.4-10.7,4.2-17.3,6.9c5.9,2.3,10.5,4,14.9,5.8c7.5,3.1,14.5,7.2,21.2,11.7c3.1,2.1,3.1,2.7,0.8,4.3c-4-0.5-7.4-2.3-11-4.1
			c-7.4-3.6-14.8-7.3-21.6-8.5c7,1.4,14.6,5.1,22.2,8.7c2.2,1.1,4.8,1.8,5.4,4.7c0.7,0.6,2,1,1.6,2.2c-0.4,1.2-1.7,0.8-2.6,0.6
			c-4-1.1-7.9-2.6-11.4-4.9c-5.3-3.6-11.2-4.9-17.4-5c-1.9-1-4.2,0.3-6.1-0.8c-0.6,0.1-1.2,0.1-1.8,0.2c-0.8,2.7,1.8,1.8,2.8,2.7
			c2.6,0.9,5.2,2,7.9,2.6c3.2,0.8,5.2,3,7.1,5.4c0.9,2.3-0.1,2.7-2.2,2.2l0,0c-1.2-1.2-2.5-2.4-4.1-3.1c-5.2-0.4-10.4-0.8-15.7-1.2
			c-8.1-1.9-16.4-2.7-24.2-5.9c-2.8-1.1-5.6-2.1-8-4c-0.7-0.6-1.3-1.3-2-1.9c-0.3-0.1-0.6-0.2-1-0.3c-0.8-4.2,2.5-6,5-8.2
			C248.7,618.2,249.4,618.3,250,618.8z"/>
		<path class="st34" d="M279.9,604.8c-7,0.9-12.4,5.5-18.7,8.2c-1,0.4-1.2-0.1-1.2-1c3.6-3,7.2-6,10.9-9.1c1.7-4,5.5-6.1,8.6-8.8
			c9.3-8.3,11.3-17.8,6.6-29.3c-5.6-13.7-11.7-27.2-17.9-40.7c-1.4-3-3.3-5.8-3.2-9.3c-0.4-1.2-0.7-2.5-1.1-3.7
			c0.9-3.4,2.1-0.9,2.7,0c5.2,7.5,10.7,14.8,15.3,22.7c7,12,14.3,24,18.5,37.4c2.9,9.3,4,18.4-0.2,27.6c-0.7,1.6-1.5,3.5,0.8,4.7
			c-3.5,1.5-7.1,2.7-10.9,3.3c-1.1,0.3-1.4-0.2-1.1-1.1c0.7-1,1.5-1.9,2.2-2.9c0-1.4,1.4-2.2,1.9-4.3c-1.9,2.5-4.1,3.3-6.2,4.2
			l0.1,0C285,604.7,282.2,603.8,279.9,604.8z"/>
		<path class="st35" d="M248.1,619c-1.4,2.7-4.3,4.4-5.1,7.6c-0.6,0.2-1.4,0.2-1.9,0.5c-2.4,1.4-3.9,5.5-6.4,4.8
			c-3.3-1-6-3.9-8.7-6.3c-4.5-4.1-8.7-8.5-14-11.7c-0.8-1-0.9-2,0-3c2.6-0.6,2.8-3.2,3.9-5c2-1.5,2.4-4.2,4.1-6
			c1.2-1.2,0.9-4.4,4.1-3.1c5.2,4.2,10.5,8.4,15.6,12.8c2.5,2.2,5,4.2,8.1,5.4C249.2,616.2,249,617.6,248.1,619z"/>
		<path class="st35" d="M440,300.9c-2.6-6.5-5.2-13-7.7-19.6c-2-5.3,2.9-5.6,5.7-7.4c2.9-1.2,5.9-2.2,7.8-4.9
			c2.4-1.8,3.8-1.7,4.9,1.7c3.1,9.1,6.4,18.1,10.7,26.7c0.7,1.4,0.1,2.6-1.3,3.3c-1.3,0.7-2.7,1.3-4,1.9c-0.7,0.2-1.4,0.3-2.1,0.5
			c-2.1,0.5-4.3,0.8-6.2,1.9l-0.3,0.2l-0.4-0.1c-1.8,0.4-3.5,0.9-5.3-0.1l0,0c-1.3-3.9,2.9-1.5,3.5-3.1c0.8-1.9-0.1-2.3-1.8-2
			C442.5,300.3,441.8,302.3,440,300.9z"/>
		<path class="st36" d="M255.3,381.1c-0.3,1.2-1.3,1.6-2.2,2.1c-1.3-0.3-1.1,1.2-1.8,1.6c-1.9,1.1-4.3,0.3-6,1.9
			c-6.8,1.3-13.7,3.3-20.6,0.3c-0.9-0.4-2-0.5-2.7-1.1c-1.3-1-3.6-1-3.7-2.9c-0.1-2.2,2.3-2.8,3.7-3.6c3.4-1.9,6.6-4.5,10.7-4.6
			c5.3-0.8,10.4-2.8,15.9-2.3c2.6,0.2,5.2,0.4,7.4,2.1c0.6,0.9,0.6,1.7,0,2.6c-4.8,1.6-9.8,1-14.7,1.3c-2.1-0.2-4.3-0.3-6.2,0.8
			c-0.6,0.4-1.4,0.6-1.6,1.4c3.1,2,5.8,0.2,8.6-0.7c1.1-0.3,2.3-0.4,3.4-0.5c1.6,0.1,3.1-0.3,4.4-1.2c0.7-0.2,1.4-0.2,2.1,0.1
			C253.3,379.2,254.7,379.7,255.3,381.1z"/>
		<path class="st37" d="M309,511.8c1.5-12.2,5.3-23.8,8.4-35.6c2-7.7,4.1-15.3,6.7-22.8c1.7-4.8-0.3-5.2-4.1-4.6
			c-1.6,0.3-3.2,0.5-5,0.4c4.1-1.9,8.3-3.7,12.9-4.4c1.5-0.9-0.7-3.7,2-4c0.9,7.1-2.6,13.3-4.5,19.7c-3.9,13.3-7.7,26.7-11.5,40.1
			c-1.4,5-3.7,9.9-3.9,15.2C307.3,515.1,308.6,513.4,309,511.8z"/>
		<path class="st37" d="M267,455.9c-2.5,1.2-1.7,2.5-0.3,4.2c8.1,10.3,15.3,21.2,21.3,32.8c0.7,1.2,0.7,2-1,2
			c-8.2-12.3-16.2-24.6-25.1-36.4c-1.5-2-4.3-3.4-3.9-6.6c-0.6-1.1-0.9-2.1,1-2c0.6,5.5,4.9,3.6,8,4
			C267.6,454.6,267.6,455.2,267,455.9z"/>
		<path class="st38" d="M317,564.9c-0.1,1,0.1,1.9-0.2,2.6c-0.7,2.2-1.3,5.1-4.1,4.8c-2.3-0.2-2.6-3-2.8-5.2c-0.1-0.8-0.1-1.7,0-2.5
			c0.2-2.6-0.7-6.6,3.2-6.5C317.1,558.2,316.8,562.1,317,564.9z"/>
		<path class="st39" d="M319.9,637.8c-9.4-6.7-20.3-10.2-30.9-14.3c13.3,0.8,24.1,8.5,35.9,13.4
			C323.3,637.4,321.3,635.8,319.9,637.8z"/>
		<path class="st40" d="M327,399.9c0.7,9,1.3,18,2,27c-1.8,3.2,1.3,6.9-1,10c-0.8-0.7-1-1.7-1-2.7c0.6-9.8-1.4-19.5-1-29.3
			C325.6,403.1,324.4,401.1,327,399.9z"/>
		<path class="st41" d="M309,511.8c0.1,1.4-0.4,3,1,4c-1.7,8.7-3.3,17.3-5,26c-1.9,0.1-1.6-0.9-1-2C305.2,530.4,306.1,521,309,511.8
			z"/>
		<path class="st42" d="M259,449.9c-0.8,0.4-1,1.2-1,2c-3.4-8.4-5.8-17.2-8-26c-0.4-1.1,0.1-1.2,1-1
			C253.7,433.2,256.3,441.6,259,449.9z"/>
		<path class="st43" d="M287,494.9c0.8-0.4,1-1.2,1-2c4.1,5.4,5.8,12.1,9,18c0.6,1.1,0.9,2.1-1,2C293,506.9,290,500.9,287,494.9z"/>
		<path class="st44" d="M297.8,643c1.3-0.2,2.1-0.8,2.2-2.2c2.9,0.8,4.2,3.4,6.2,5.3c1,0.9,3,1.9,1.7,3.4c-1.1,1.3-2.9-0.1-4-0.8
			C301.6,647,299.3,645.4,297.8,643z"/>
		<path class="st45" d="M240,395.8c0.3-0.3,0.6-0.6,0.9-1c2.7,4.3,3.6,9.3,5.1,14.1c-0.7,0.5-0.2,1.5-1,2
			C242.7,406.1,241.5,400.9,240,395.8z"/>
		<path class="st46" d="M245,410.9c0-0.8,0.2-1.6,1-2c1.7,5.3,3.3,10.7,5,16c-0.3,0.3-0.7,0.7-1,1
			C247.2,421.3,246.8,415.9,245,410.9z"/>
		<path class="st47" d="M328,436.9c0.5-3.3-1-6.9,1-10c-0.3,4.7,1.6,9.3,1,14c-1.6,0.9-0.4,3.1-2,4C328,442.2,328,439.6,328,436.9z"
			/>
		<path class="st48" d="M327,399.9c-1.6,1.4-0.8,3.3-1,5c-2.2-5.6-0.4-11.3-0.7-16.9C326.3,391.9,327.4,395.8,327,399.9z"/>
		<path class="st49" d="M296,512.9c0.8-0.4,1-1.2,1-2c2.5,4.1,3.1,8.7,4.4,13.2C298.9,520.7,297.3,516.8,296,512.9z"/>
		<path class="st50" d="M301,491.9c0.5-7.1,0.9-14.2,3-21c0,7.1-1.4,14-2.2,21C301.6,492.3,301.3,492.4,301,491.9z"/>
		<path class="st42" d="M267,455.9c0-0.7,0-1.3,0-2c3.3,0,6.6,0,9.9,0C273.7,455.3,270.4,456.2,267,455.9z"/>
		<path class="st51" d="M304,539.9c0,0.8,0.2,1.6,1,2c0.2,2.8-0.3,5.4-2,8.9C303.3,546.4,302,543,304,539.9z"/>
		<path class="st52" d="M224.1,596.8c-2.2,0-2.3,2.5-4.1,3.1c-0.1-1-0.2-2-0.2-2.9C221.2,596.4,222.5,592.5,224.1,596.8z"/>
		<path class="st53" d="M245.3,386.7c1.6-2,3.8-2.1,6-1.9c-1,0.9-1.7,2.1-3.1,2.3C247.4,385.8,246.3,387.2,245.3,386.7z"/>
		<path class="st50" d="M297.9,486.9c1.4,2.5,3,4.9,1.3,7.9C298.7,492.2,298.3,489.6,297.9,486.9z"/>
		<path class="st54" d="M448,304.9c1.7-1.9,3.9-2.2,6.2-1.9C452.3,304.3,450.2,304.9,448,304.9z"/>
		<path class="st54" d="M442,304.9c1.8,0,3.5,0.1,5.3,0.1c-0.5,0.3-1,0.6-1.5,0.9C444.5,305.6,442.4,308.2,442,304.9z"/>
		<path class="st55" d="M284,629.9c2.1-0.2,4.2-0.5,6.1,0.8C288,630.8,285.8,631.4,284,629.9z"/>
		<path class="st44" d="M293.8,639.9c2.2-0.1,3.4,1.2,4.1,3.1C296,642.7,295,641.2,293.8,639.9z"/>
		<path class="st55" d="M285,632.8c-1.7-0.2-4.1,0.5-2.8-2.7C282.6,631.5,284.3,631.6,285,632.8z"/>
		<path class="st56" d="M301,491.9c0.3,0,0.6,0,0.8,0c0.1,1.7,0.6,3.5-1,4.8C300.9,495.1,301,493.5,301,491.9z"/>
		<path class="st57" d="M406,498.9c2.6,0.4,1.8,2.4,2,4C406.7,501.8,406.1,500.5,406,498.9z"/>
		<path class="st58" d="M411.9,504.8c0.4-2.5,2.4-1.8,4.1-1.9C414.9,504.1,413.6,504.8,411.9,504.8z"/>
		<path class="st59" d="M366,460.9c1.6,0.1,3.6-0.6,4,2C368.4,462.8,367,462.2,366,460.9z"/>
		<path class="st5" d="M269.9,355.9c0-8.6,2.6-17.1,1.4-25.8c1.2-2,1.6-4.3,2.9-6.2c4.9-7.4,10-7.9,17.8-1.8
			c1.6,2.2,1.4,4.7,1.5,7.2c0.1,3.8-0.3,7.7,0.4,11.5c0.8,4.4,1.8,8.7,5.3,12c-0.6,1.2-1.7,1.6-2.9,1.6c-7.2-0.1-13.4,3-19.8,5.5
			c-2.2,0.8-4.5,1.5-6.8,2.2c-1.6,0.3-3.2,0.4-4.6-0.6c-0.7-0.9-0.3-1.8,0.7-1.7C268.5,359.6,269,357.7,269.9,355.9z"/>
		<path class="st60" d="M265.2,360.8c1.5,0,3.1,0,4.6-0.1c2.7,2.6,1.5,5.9,1.8,8.9c-0.1,2.2-0.6,4.4,0.7,6.5c1,1.9-0.3,3.1-1.3,4.3
			c-5.1,3.7-10.4,2.1-15.6,0.5c-1.4-0.2-3.1,0-3.3-2.1c0.9-1.5,3.1-0.6,4-2c0-0.7,0-1.3,0-2c-0.1-0.9,0.4-1.5,1-2.1
			c-3.6-3.7-8.2-6.2-12.3-9.2c-5.7-4.1-10.3-9.1-13.9-15.1c-0.8-1.4-2.1-3.2-1.2-4.5c1.1-1.7,3.4-0.9,5-0.4
			c4.1,1.1,8.4,1.9,11.5,5.2c1.1,1.2,2.5,2.1,3.5,3.4c1.6,1.8,1,2.9-1.1,3.6c-0.6,0.1-1.8-0.1-1.8,0.2c0.1,2.9,7.7,8,10.7,7.2
			c0.6-0.2-0.2-0.1,0.4-0.3c0.9-0.6,1.8-0.7,2.7-0.1c1.2-0.6,2.4-1.3,3.6-1.9C264.4,360.4,264.8,360.3,265.2,360.8z"/>
		<path class="st61" d="M290.8,321.9c-0.3-0.1-0.7-0.1-1-0.2c-8.5-4.4-11.6-3.3-16,5.2c-0.5,1.1,0.2,3.8-2.6,3.1
			c-0.5-7.4-0.9-14.8-1.4-22.1c-0.6-1.3-0.7-2.8-1.6-4c1.6-2.5,0.6-5.3,0.7-8c2.6-0.1,3.6,2.1,4.9,3.7c4,4.8,8.6,8.8,13.8,12.1
			c2.2,1.4,3.7,3.2,4.3,5.8C292.2,319.2,292.4,320.8,290.8,321.9z"/>
		<path class="st62" d="M248,354.9c1.6-0.3,2-0.8,0.8-2.2c-1-1.2-2.7-1.9-2.8-3.9c6.1,3.3,10.5,8.3,14.4,13.9
			c-0.9,0.1-1.9,0.2-2.4,1.1C253.3,362.5,249.4,360,248,354.9z"/>
		<path class="st63" d="M257,372.8c0.1,0.9-0.2,1.6-1,2.1c-5.6-1.4-11.3-1.4-17-0.3c-2,0.4-4.2,0.1-6.3,0.1c1.8-0.6,3.5-1.3,5.3-1.9
			c5.7-1.2,11.3-1.5,17,0C255.7,372.8,256.3,372.8,257,372.8z"/>
		<path class="st64" d="M255,372.8c-5.7,0-11.3,0-17,0C243.7,370.4,249.3,369.7,255,372.8z"/>
		<path class="st65" d="M265.2,360.8c-0.4,0-0.8,0-1.2,0.1c1.2-2.6,4.5-2.7,5.9-5C270.9,360,266.9,359.3,265.2,360.8z"/>
		<path class="st66" d="M268.3,303.9c2.5,0.6,1.7,2.4,1.6,4c-0.8-1-1.7-1.8-3.2-1.1C267.3,305.8,267.8,304.9,268.3,303.9z"/>
		<path class="st59" d="M170.1,454.9c-0.4,2.6-2.4,1.8-4,1.9C167.1,455.6,168.4,455,170.1,454.9z"/>
		<path class="st67" d="M212.1,610.8c0,1,0,2,0,3C210.5,612.8,208.9,611.8,212.1,610.8z"/>
		<path class="st68" d="M244,626.9c1.3,0,2,0.6,2,1.9c-0.6,0.3-1.2,0.6-1.7,0.9C244.2,628.7,244.1,627.8,244,626.9z"/>
		<path class="st5" d="M290.8,316.9c-1.8-4.6-6.7-5.5-10-8.4c-4.3-3.9-8-8.2-11.8-12.5c-5.6-7.6-9.4-16-11.2-25.4
			c-1.1-5.7-2.5-11.4-4.8-16.8c-1.2-2.8-2.4-4.5-6.3-3.1c-6.3,2.3-10.9-4.6-8.8-12.8c1.7-0.3,1.9,0.7,1.8,1.9
			c0.6-1.2,0.5-2.6,1.5-3.6c4.1-1.8,4.1-1.8,5.6,3.8c1.9-2.7,1.9-2.7-0.8-6.2c-0.9-1-2.8-1.2-2.3-3.1l0.1,0c1.7-0.4,3.3-0.7,4.9,0.2
			c2.8,1.7,4.9,4,6.4,7c1.9,3.7,4.2,7.1,8.6,8.2c1.1,0.2,2,0.2,1.3-1.3c-5.7-4.8-5.8-10.7-3.5-17.2c1.5-4.3,4.1-7.9,6.5-11.7
			c1.7-4.7,5.5-7.7,8.8-11.1c4-4.1,8.4-7.9,11.9-12.5c1.1-0.7,2.1-1.2,3.4-0.6c5.1,10.2,14.6,13.9,24.8,16.3
			c1.6,0.6,3.3,0.8,4.7,1.8c2.1,1.7,4.8,1.7,7.3,2.3c2.9,1.5,6.5,1.7,9.2,3.7c1.5,1,3,2.1,4.4,3.3c1.4,1.1,3,2.1,4.1,3.6
			c0.6,1,1.2,2,1.7,3.1c0.9,2.2,1.8,4.4,2.6,6.6c1.3,7.5-2.5,13.7-5.4,20.1c-1,2.2-2.5,2.3-4.6,0.5c-3.3-2.7-7.2-4.7-11.8-3.1
			c-2.2,0.8-3.9,2.4-5.8,3.9c-0.7,0.4-1.4,0.7-2.1,0.4c-1.9-1.7-0.9-3.8-1-5.8c2-5.4,3.6-11,9.3-13.8c1.3-1,2.9-1.6,4.4-1.7
			c0.7-0.2-0.2-0.9,0.2-0.3c-1.6,0.7-3.5,0.9-4.9,2.1c-5.1,2.7-7,7.7-8.7,12.7c-1.3,7.2-2.1,14.4-1.1,21.8c0.4,3.1,0.1,6-2.6,8.1
			c-0.4,0.4-1.2,0.4-1.6,0.9c0.4-0.2,0.9-0.3,1.4-0.5c0.6-0.3,1.1-0.7,1.6-1.1c2.2-1.3,1.6-3.5,1.4-5.4c-0.4-4-0.7-7.9-0.5-11.9
			c0.1-1.6-0.1-3.4,2.1-4c1.6-0.1,2.8,0.7,4,1.6c0.6,0.4,1.1,0.8,1.7,1.2c2.6,1.6,5.4,1.7,8.4,1.1c0.5,0,1,0,1.5,0.1
			c5.4,2.1,5.7,2.5,4.4,8c-2.4,10.5-7.1,19.9-13.6,28.4c-6.4,8.4-15,14.3-23.3,20.6C299.9,319.6,295.3,318.1,290.8,316.9z"/>
		<path class="st69" d="M271,187.1c0.3,0,0.6-0.1,1-0.1c1.3,0.8,3,0.6,4.1,1.9l-0.1,0.2c0.5,1.1,0.1,2-0.6,2.7
			c-10.6,10.7-21.5,20.9-37.2,23.2c-2.6,0.4-5.4,1-7-2.1c0-1,0-1.9,0-2.9c0.3-1,1.6-2.5-1-2c-0.7,1.6-1.4,3.2-2.1,4.9
			c-2.5,0.6-4-0.2-4-2.9c2-6.2,5.7-11.5,9.1-17c1.1-0.9,2.5-0.9,3.8-0.5c8.9,2.4,17.3,0,25.7-2.8C265.3,188.7,268.1,187.8,271,187.1
			z"/>
		<path class="st70" d="M271,187.1c-11.9,6.6-24.3,10.1-38,5.9c0.3-0.7,0.7-1.3,1-2c0.2-0.6,0.7-1.1,0.6-1.9
			c-0.5,0.4-1.1,0.6-1.6,0.9c-0.7,0.7-1.3,1.3-2,2c-2.5-2.3-2.7-5.4-1.9-8.3c0.6-2.3-0.6-2.9-2.1-3.6c0.3-1,1-1.7,1.9-2.1
			c2-3.2,5.9-4.9,7-8.9c9,4.2,16.5,11.1,25.9,14.7C264.9,184.9,268,186,271,187.1z"/>
		<path class="st71" d="M231.1,212.9c6.1,2.5,11.8,0.3,17.1-2.1c11-4.9,19.9-12.8,27.8-21.7c2,0.2,4.3-0.9,6,1.1
			c-0.3,3.8-3.4,5.6-5.9,7.8c-8.3,7.8-16.7,15.6-25,23.5c-2.8,2.6-5.8,5-9,7c-4.1,2.6-7.3,1.7-9-2.9
			C231.7,221.5,230.8,217.3,231.1,212.9z"/>
		<path class="st72" d="M227.1,180c1.3-0.2,2.5-0.5,4.5-0.8c-1.9,4.4-1.9,8.6-0.6,12.8c-4.2,4.6-7.1,10-9,16c-1,1.7-2.1,1.3-3.2,0.2
			c-2.1-2.3-3.4-4.9-2.8-8.1C217.9,192.3,221.7,185.8,227.1,180z"/>
		<path class="st73" d="M216,200c1.2,2.4,1.7,5.2,3.6,7.4c0.8,0.9,1.4,1.1,2.4,0.6c-4.4,14.1-3.6,28.1,0.5,42.1
			c0.3,0.9,0.3,2,0.5,2.9c0.4,1.1-0.1,1.2-1,1c-5.3-14-8.6-28.3-9-43.3C213,206.9,213.5,203.1,216,200z"/>
		<path class="st74" d="M276,197.9c0.7-3.5,4.3-4.9,5.9-7.8c3.3,1.3,6.8,0.4,10.1,0.9c0.3,0.4,0.2,0.8-0.1,1.2
			c-1.3-0.6-1.8,0.7-2.7,1.1c-6.7,4.9-11.3,11.8-17.4,17.3c-1.5,1.3-2.7,2.9-4.8,3.3c-1.7,3.6-6,4.6-8,8c-1,0.3-1.3,0-1-1
			c2.3-5.2,7.4-8.2,10.4-12.9C270.7,204.5,274.5,202.1,276,197.9z"/>
		<path class="st74" d="M224,210c0.8,1.7,2.5,2.2,4,2.9c-2.1,6.4,0,12.8-0.3,19.2C222.9,225.3,221.7,217.9,224,210z"/>
		<path class="st75" d="M221.6,269c5.9,6.6,12.3,12.4,18.7,18.3C231,284.2,225.4,277.4,221.6,269z"/>
		<path class="st76" d="M267,214c7-5.6,12.2-12.8,18.6-19c0.9-0.9,1.5-3.3,3.7-1.6c-6,8.6-14.4,14.9-21.2,22.7
			C267.9,215.2,267.8,214.4,267,214z"/>
		<path class="st77" d="M222,253.9c0.3-0.3,0.7-0.7,1-1c2,5.3,4.1,10.5,6.1,15.8C225.4,264.4,223.5,259.3,222,253.9z"/>
		<path class="st78" d="M243.8,230.8c1.1,0.7,2.2,1.4,3.2,2.1c-1.4,2.1-4.7,1.2-5.8,3.7c-1.4,1.9-0.1,4.4-1.3,6.3
			c-1.8-1.2-0.1-3.8-2-5C238.6,234.5,240.2,231.8,243.8,230.8z"/>
		<path class="st79" d="M233,190c1-1.6,2.1-3.1,5.2-4.1c-1.9,2.3-2.2,4.3-4.1,5.2C233.7,190.6,233.4,190.3,233,190z"/>
		<path class="st80" d="M258,220.9c0.3,0.3,0.7,0.7,1,1c-1.4,1.2-2.8,2.3-5.2,4.2C254.9,223.1,256.4,221.9,258,220.9z"/>
		<path class="st81" d="M230,208c0.4-0.8,0.5-2,1.8-2.2c0.3,1.5,0.5,3-0.7,4.2C230.7,209.3,230.4,208.7,230,208z"/>
		<path class="st78" d="M248.8,231c-1.6-0.1-3.3-0.1-4.9-0.2C245.5,229.6,247.2,229.4,248.8,231z"/>
		<path class="st82" d="M265.1,244.9c0.8,0.4,1.7,0.9,3,1.6c-2,0.9-3.2,0.7-4.3-0.3C264.2,245.7,264.6,245.3,265.1,244.9z"/>
		<path class="st3" d="M326.2,294.9c7.5-8.9,11.5-19.4,14.3-30.5c1-4.2-3.7-2.3-4.5-4.4c0.3-1.2,1.4-2,2-3.1c1.2-2.7-0.9-3.7-2.5-5
			c-0.7-0.5-1.5-0.9-2.4-1.2c-1.7-0.8-3.8-0.1-5.2-1.8c5.4-2.3,14.3,0.4,15.1,5.8c3.4-8,7.5-14.7,6.8-22.8c-1.2-2.7-1-5.7-2-8.4
			c-0.9-2.5-2.1-4.3-4.5-5.3c-11-7.1-22.9-12.5-35.2-17c-4.8-1.7-9.6-3.7-12.7-8.2c-0.2-0.8,0-1.5,0.5-2.2c2.3-2.4,5.2-1.8,8-1.9
			c10.6,7.8,22.8,11.8,35.1,15.9c9.2,3.1,16.9,8.4,21.5,17.4c0.6,1.1,1.3,1.9,2.6,2c1,0.2,1.8,0.6,2.5,1.3c1.2,1.1,0.8,2.7,1.2,4.1
			c0.2,1.4,0.1,2.7-0.6,4c-0.6,1.1-1,2.2-0.4,3.5c0.3,0.8,1.1,0.9,1.8,0.9c1.5,0.5,2.7,1.3,3,3c-1.5,6.8-5.4,12.6-7.8,19
			c-4,9.5-8.2,18.8-16.3,25.8c-4.8,4.1-10.1,6.9-15.7,9.4C329.3,296,327.6,296.3,326.2,294.9z"/>
		<path class="st71" d="M363.1,224.9c-1.1,0.8-2,2.6-3.1-0.2c-3.9-10.4-12.6-15.4-22.3-18.9c-10.1-3.7-20.7-6-29.5-12.7
			c-1.6-1.2-3.2-2.3-4.2-4.1c1-0.6,2-1.2,3-1.7c8.9,5.3,19.2,7.3,28.5,11.7c6.8,3.2,13.5,6.3,18.6,12.1c0.4,0.4,0.9,0.8,1.1,1.3
			c-0.2-0.5-0.7-0.9-1.1-1.3c-8-12.2-20.2-18.7-33.1-24.1c-1.8-0.7-3.8-1.2-4.9-3.1c3.8-0.6,5.7-5.3,9.9-5c0.6-0.4,1.2-0.8,1.8-0.6
			c13.9,4.9,27.3,10.5,35.9,23.5c1.6,3.6,4.7,6.7,3.3,11.1c-0.5,0.9-1.3,1-2.2,0.9c-4.3-5.2-8-11-13.1-14.3
			c3.3,3.7,8.4,7.1,9.3,13.5c-0.3,2.1,1.7,3,2.3,4.6c-0.4,1.6,1.6,2.6,0.9,4.2C361.2,221.9,363.8,224,363.1,224.9z"/>
		<path class="st83" d="M316.1,183.8c10.3,3.3,19.9,8.2,28.6,14.6c4.4,3.3,7.7,7.7,10.4,12.5c0.2,0.9-0.1,1.3-1.1,1
			c-11.5-10.5-26.3-14.6-40.4-20c-2.7-1-5.2-2.1-6.6-4.8C310,186.1,313,185,316.1,183.8z"/>
		<path class="st84" d="M322.2,170.9c-0.3,2.8-1.4,5.7-5.4,6c-3,0.2-5.8-3.4-5.5-7.1c0.3-3.4,1.6-6.3,5.5-6.6
			C319.8,162.9,322.2,166.4,322.2,170.9z"/>
		<path class="st85" d="M362.9,202c-9.6-12-22.6-18.6-36.9-23.1c0.1-1.9,1.5-1.9,2.9-1.9c6.1,2.9,12.7,4.7,18.6,8.2
			c6.7,4,13.3,8.2,16.6,15.7C364.3,201.9,363.9,202.2,362.9,202z"/>
		<path class="st86" d="M296,190.9c0,0.5,0,1.1,0,1.6c2.5,5.2,7,7.9,12,10.4c3.8,1.8,8.5,1.6,11.2,5.6c-0.6,1.3-1.6,0.9-2.6,0.7
			c-6.1-1.1-11.9-3.1-17.1-6.5c-3.8-2.5-7.1-5.5-7.7-10.4c0-0.4,0.1-0.8,0.1-1.2C293.3,191,294.7,190.9,296,190.9z"/>
		<path class="st87" d="M332.1,174c4.9-0.1,8.3,3,11.9,5.8c-4-1.6-8.1-3.3-12.1-4.9C331.9,174.6,332,174.3,332.1,174z"/>
		<path class="st88" d="M276,188.9c-1.7,0.1-3-0.7-4.1-1.9C273.5,187.1,275.6,186.3,276,188.9z"/>
		<path class="st1" d="M326.2,294.9c12.9-2.8,22.3-10.4,29-21.5c2.6-4.4,4.5-9.2,6.7-13.8c9-0.9,17.8-0.3,26,4.1
			c1.6,0.9,3.4,1.4,4.2,3.3c0,0.6-0.1,1.2-0.1,1.8c-0.9,1.1-1.4,2.4-1.9,3.9c1.8-0.1,3-1,4.2-1.6c1.2,0,2.4-0.1,3.7-0.1
			c4.6,6.3,9.8,12.1,12.7,19.6c3.9,10.1,4.9,20,1.4,30.3c-0.8,1.3-0.7,3-1.9,4.1c-1.9,8.4-7,14.7-13.4,20
			c-8.8,7.2-19.3,10.8-30.6,10.7c-11-0.1-21.4-3.1-30-10.7c-1.3-1.3-2.7-1.3-4,0c-4.9,7.5-12,12-20.2,15.1
			c-5.4-0.5-9.3-3.6-12.9-7.3c-7.7-2.4-5.4-9.5-6.7-14.7c-1.3-5.2,0.7-10.9-1.4-16.2c0-1.7-0.1-3.4-0.1-5c0.5-1.5,1.5-1.3,2.7-0.8
			c4.4,1.9,8.4,1,11.9-2.1C312.3,307.7,321,303.2,326.2,294.9z"/>
		<path class="st89" d="M392,267.1c-8.9-4-18-7.5-28.1-6.3c-0.6,0.1-1.4-0.7-2.1-1.1c2.7-6.3,5.4-12.5,8.1-18.8
			c0.6-0.6,1.3-0.6,2-0.2c9.4,5.7,19.8,9.1,29.5,14c2.4,1.2,4,3.5,6.5,4.3c1.1,1.3,1.2,2.5-0.1,3.8
			C402.1,262.4,396.8,263.7,392,267.1z"/>
		<path class="st90" d="M399.6,233.6c-4.2-0.7-8.1-1.4-12.5-2.2C393,228.7,397.5,229.5,399.6,233.6z"/>
		<path class="st91" d="M383,241.9c-2.5-2.6-6.8-1.8-9-4.8c0.5-1.5,2-1.5,3.1-2.1c3.2-0.2,4.2,3.4,6.9,4
			C385,240.4,384.3,241.2,383,241.9z"/>
		<path class="st92" d="M365,234c0.4-1.4,0.8-2.9,1.2-4.3c1-0.2,1.3,0.7,1.9,1c1.5-0.3,2.8,0.2,4,1.1c0.4,0.4,0.6,0.8,0.7,1.3
			c0.1,1.4-0.4,2.5-1.9,2.8c-0.9,0-1.7-0.1-2.6-0.1C367.2,235.3,365.5,235.8,365,234z"/>
		<path class="st93" d="M394.2,271.1c-0.1,0.2-0.1,0.3-0.2,0.5c-1.2,1.5-2.2,3.3-4.5,3.3c-0.9,0-1.6-0.6-1.5-1.5
			c0.2-2.3,1.7-3.7,3.8-4.5C392,270.3,392.9,270.9,394.2,271.1z"/>
		<path class="st94" d="M368,230.8c-0.6-0.3-1.3-0.7-1.9-1c-0.1-1.3-0.3-2.6-1.3-3.7c2.4-1.9,4.7-1.3,7.1,0c1.1,1.4,2.7,0.8,4.1,1
			c-1.9,1.6-4.1,0.9-6.2,0.9C367.3,227.9,367.7,229.2,368,230.8z"/>
		<path class="st95" d="M372.2,233c-0.1-0.4-0.1-0.8-0.2-1.2c4.3-2.5,8,0,11.9,1.2c0.2,0.9,0.1,1.4-1,1c-2.7-0.1-5.1-3-8-0.8
			C374,233.9,373.1,233.8,372.2,233z"/>
		<path class="st96" d="M383,241.9c0.3-1,0.7-2,1-3c1.9,1.4,4.8,1.3,5.9,4c-0.7,1.3-2.1,0.3-2.9,1
			C385.6,243.2,384.3,242.6,383,241.9z"/>
		<path class="st97" d="M372.2,233c0.9,0,1.8,0.1,2.7,0.1c0.7,0.6,1.4,1.2,2.1,1.8c-0.6,1.3-1.7,2-3.1,2.1c-1.1-0.1-2.4,0.1-3.1-1.1
			C371.3,234.9,371.8,234,372.2,233z"/>
		<path class="st98" d="M382.9,234c0.3-0.3,0.7-0.7,1-1c2.7,1.3,5.4,2.6,8,4c0.2,0.9,0,1.4-1,1C388.5,236.2,385.2,236.2,382.9,234z"
			/>
		<path class="st99" d="M413.9,259.9c1.8-1.7,4-2.5,6.8-3.5c-0.9,2.8-3.3,3.2-4.9,4.5C415.4,260.2,414.4,260.7,413.9,259.9z"/>
		<path class="st100" d="M434,268.9c-2,0-4,0-6,0C430,265.8,432,265.8,434,268.9z"/>
		<path class="st101" d="M392.1,244.9c1.8-0.1,3.3,0.4,4.5,2.9c-2.7-0.7-4.9-1.1-6.7-2.8C390.6,244.4,391.3,244.4,392.1,244.9z"/>
		<path class="st102" d="M413.9,259.9c0.8,0.1,1.5,0.2,2,1c-0.6,0.2-1.2,0.3-1.8,0.5c-0.9,0.3-2.3,0.9-2.5-0.1
			C411.2,259.6,413,260.2,413.9,259.9z"/>
		<path class="st103" d="M407.9,262.8c0-1.3,0-2.5,0.1-3.8c1.4,0,2,0.6,2,2C410,262.4,409.2,262.9,407.9,262.8z"/>
		<path class="st104" d="M372,240.7c-0.7,0.1-1.3,0.1-2,0.2c-0.8-0.9-1.5-1.9-2.3-2.8C369.6,238.1,371.4,238.4,372,240.7z"/>
		<path class="st105" d="M392.1,244.9c-0.7,0-1.4,0.1-2.1,0.1c-1-0.4-2-0.7-3-1.1c0.7-1.1,1.9-1,2.9-1
			C390.6,243.6,391.3,244.2,392.1,244.9z"/>
		<path class="st104" d="M365,234c1.1,0.6,2.2,1.2,3.3,1.8c-1,0.2-1.9,0.4-2.5,1.4C364.9,236.3,362.8,235.7,365,234z"/>
		<path class="st106" d="M391,238c0.3-0.3,0.7-0.7,1-1c1.2,0.7,2.6,1,3.7,2.8C393.6,239.4,392.1,239.2,391,238z"/>
		<path class="st107" d="M361,213.1c-3.7-6.1-8.4-11.3-13.2-16.6c7.6,3.8,14.1,8.8,17,17.3c-0.3,0.1-0.7,0.1-1,0.2
			C362.9,213.7,362,213.4,361,213.1z"/>
		<path class="st108" d="M362.9,202c0.4-0.4,0.7-0.7,1.1-1.1c3.3,3.1,3.7,7.5,4.7,11.6c0.3,1.2-1.1,0.6-1.8,0.5
			C367.1,208.7,364.3,205.6,362.9,202z"/>
		<path class="st109" d="M372,226c-2.4,0-4.7,0-7.1,0c-0.6-0.4-1.2-0.7-1.8-1.1c-0.3-1.2-3.3-3.1,0.9-3.1c0.4-0.3,0.8-0.4,1.2-0.4
			c1,0.3,2.1,0.6,2.7,1.6C368.7,224.9,372.5,222.5,372,226z"/>
		<path class="st110" d="M364.9,222.1c-0.3,0-0.6-0.1-0.9-0.3c-0.2-1.4-2.5-2.4-0.6-4.1c0.3,0,0.5,0.1,0.8,0.2c1,1,1.9,2,2.9,3
			C367.1,222.8,366,222.5,364.9,222.1z"/>
		<path class="st111" d="M364.9,222.1c0.8-0.2,1.7-0.2,2.2-1.1c0.8,0.5,2.1,0.8,0.9,2.1C366.9,222.7,365.9,222.4,364.9,222.1z"/>
		<path class="st1" d="M264.9,514.8c9.2,18,17.8,36.3,24.3,55.5c2.5,7.3,0.5,14.1-4.3,20c-4,4.9-8.7,9.1-14,12.6
			c-9-0.8-15.6-6.3-21.3-12.3c-8.6-9.1-12.8-20.5-12.5-33C237.5,537.8,247.3,523.7,264.9,514.8z"/>
		<path class="st112" d="M260.1,612c0.4,0.3,0.8,0.7,1.2,1c-1.3,2.4-3.5,3.6-6.1,4.1C255.8,614.5,257.9,613.3,260.1,612z"/>
		<path class="st113" d="M248.1,619c-0.1-1.4-0.2-2.7-0.3-4.1c2.8,0.1,2,2.3,2.2,3.8C249.4,618.9,248.7,619,248.1,619z"/>
		<path class="st114" d="M298.9,352.8c4.8,1.5,8.6,4.8,12.9,7.3c0,1.6,2.3,3.1,0,4.7c-1.5,0.8-3.1,1.4-4.2,2.8
			c-1.7,0.8-3.5,0.7-5.3,0.7c-2-0.3-3.5,0.8-5.1,1.6c-4.4,0.6-8.9,0.6-13.3,1.3c-0.8,0.1-1.7,0.1-2.5-0.1c-3.2-0.5-6.4-1.2-7.9-4.4
			c-1.5-3.2,0.5-5.7,2.4-8C283.1,354.9,290.6,352.3,298.9,352.8z"/>
		<path class="st115" d="M276,358.8c0,0.7,0,1.3-0.1,2c-0.1,2.2-3.6,4-0.5,6.5c2.6,2.2,5.7,3.1,8.7,2.4c4.6-1,9.2-0.6,13.8-0.8
			c1-1.3,2.7-1.1,4-1.9c2-0.1,3.9-0.1,5.9-0.2c0.4,5-3.8,4.1-6.6,5.1c-3.5,0.8-7.4-0.3-10.7,2.9c4.6,2.8,9.2,3.6,14.2,1.7
			c1.7-0.6,3.4-1.4,5.2-1.8c0.4,0.1,0.8,0.3,1.1,0.4c0.2,2.6-0.5,4-3.3,5.1c-11,4.6-22,5.2-33.1,0.8c-1.3-0.5-2.5-0.7-3.8-0.4
			c-1.3-1.7,1.6-2.1,1-3.6c-1.6-1.7-0.7-4.2-2-6c-0.1-3.4-0.2-6.7-0.2-10.1C271.9,360.1,273.9,359.4,276,358.8z"/>
		<path class="st116" d="M310,374.6c-2.7,3.6-11.1,5.6-15.6,3.6c-0.6-0.3-1.1-0.8-1.6-1.1c-1.5-0.8-4.9,0.8-4.5-2.4
			c0.3-2.8,3.7-2.9,5.8-3.6c2.1-0.8,4.6-0.2,6.9-0.3c2.4-0.6,4.7-0.8,7.1,0C308.7,372.1,309.4,373.4,310,374.6z"/>
		<path class="st54" d="M446.9,302.8c-0.8,2.8-4.3-0.9-4.9,2.1c-1.8-0.8-2.1-2.3-1.9-4c2.1,0.2,1.5-2.5,3.1-2.9
			C444.3,299.7,445.4,301.4,446.9,302.8z"/>
		<path class="st117" d="M308.1,370.9c-2.4,0-4.7,0-7.1,0c1.9-2,6.4,0.4,6.9-4.1c0.5-2.3,2.3-1.9,3.9-1.9
			C310.2,366.6,308.1,368.1,308.1,370.9z"/>
		<path class="st118" d="M332,344.9c0.1-1.1,0.5-1.9,1.7-2c1.4-0.1,2.1,0.5,2.3,1.9C334.7,344.9,333.3,344.9,332,344.9z"/>
		<path class="st119" d="M410,325c0.1-1.6,0.7-3,1.9-4.1C411.8,322.5,412.5,324.5,410,325z"/>
		<path class="st120" d="M286.9,602.8c1.7-1.6,3.3-3.1,4.9-4.7c0.8-0.8,1.4-2.3,2.6-1.5c1.3,0.9,0.8,2.5,0,3.5
			c-0.9,1.1-2.2,1.9-3.2,2.8C289.8,602.8,288.3,602.8,286.9,602.8z"/>
		<path class="st120" d="M279.9,604.8c2.4-0.7,4.7-1.4,7.1-2.1C285.4,606,282.4,604.6,279.9,604.8z"/>
		<path class="st121" d="M275.9,632.3c-0.4,0.5-0.8,1.1-1,1c-0.5-0.2-1.2-0.5-1.4-0.9c-0.3-0.6-0.1-1.3,0.8-1.2
			C274.8,631.3,275.3,631.9,275.9,632.3z"/>
		<path class="st122" d="M277.8,624.9c-0.6,0.3-0.9,0.7-1.3,0.7c-0.7,0-1.2-0.4-1-1.1c0.1-0.3,0.8-0.5,1.1-0.5
			C277,624.1,277.3,624.5,277.8,624.9z"/>
		<path class="st123" d="M289,605.7c0.4,0.4,0.7,0.8,1.1,1.1c-1,0.9-2.4,1.7-3.2,0.3C286.4,606.3,288,605.9,289,605.7z"/>
		<path class="st124" d="M221,613.1c0,1.6-0.9,2.6-2.4,2.5c-1.7,0-3.3-1-3.5-2.8c-0.2-1.5,1.4-2.1,2.7-2.2
			C219.6,610.6,220.7,611.4,221,613.1z"/>
		<path class="st125" d="M446.9,302.8c-4.2,0.7-4.7-1.5-3.8-4.8C447.2,297.3,448,299.3,446.9,302.8z"/>
		<path class="st126" d="M256,376.9c-0.3,2.6-2.4,1.8-4,2c-0.7,0-1.3,0-2,0c-1,1.3-3,0.6-4,2c-1.3,0-2.7,0-4,0c-3.4,0.5-7.1,3-10-1
			c0.4-0.8,1.2-1,2-1c1.9-1,4.1-0.9,6-2C245.3,376.9,250.7,376.9,256,376.9z"/>
		<path class="st127" d="M232,379.9c3.2,2.1,6.7,0.5,10,1c-2.3,2.7-5.5,2.1-8.4,1.9C232.2,382.7,230.4,382.1,232,379.9z"/>
		<path class="st128" d="M240,376.9c-1.6,1.9-3.8,2.1-6,2C235.6,377,237.8,376.8,240,376.9z"/>
		<path class="st129" d="M246,380.9c0.4-2.6,2.4-1.8,4-2C249.6,381.5,247.6,380.7,246,380.9z"/>
		<path class="st130" d="M248,354.9c2.6,3.8,6.8,5.9,10,9c-0.3,1,0.6,3-1.9,2.1c-5-1.9-8-6.1-11.5-9.6c-0.7-0.7-0.9-2.1,0-2.6
			C245.9,352.9,246.6,355.2,248,354.9z"/>
		<path class="st131" d="M270,370.9c1.9,1.6,2.1,3.8,2,6C268.5,375.8,270.6,372.9,270,370.9z"/>
		<path class="st132" d="M318.9,208.1c-5.2-2-10.8-3.1-15.5-6.1c-3.5-2.2-7.6-4.3-7.4-9.5c5,4.6,11.1,7.3,17.4,9.4
			c10.9,3.7,21,8.8,30.6,15.1c0.2,0.9-0.3,1.3-1,1.6c-1.9,0.4-2.9-1.4-4.4-2c-2.9-1.9-6-3.1-9.4-3.7c-2.9,0-5.8,0-8.2-2.1
			c0.7-0.7,1.6-0.9,2.5-0.6c0.4,0.2,0.9,0.1,1.2,0.5c-0.1-0.6-0.7-0.3-1-0.5C322,209.8,320.3,209.3,318.9,208.1z"/>
		<path class="st133" d="M278.8,229.1c2.1,3.1,5.3,3,8.5,3.1c4.2,0.1,8.3,0.6,10.6,5c-2.4,1.9-4.4-0.3-6.5-0.6
			c-2.2-0.1-4.4-0.1-6.7-0.1c-1.5,0.1-3.1-0.4-4.5,0.6c-1.6,1.9,0.8,3.9-0.1,5.8c-1,1-2.2,0.8-3.3,0.3c-0.3-4.2-4.4-7.2-4-11.6
			c0.3-3.1,2.6-0.3,3.8-0.7C277.9,230.7,277.1,228.4,278.8,229.1z"/>
		<path class="st134" d="M301.1,242.1c0.1,2.8,4,5.8,1,8c-2.7,2-6.6,1.1-9.8-0.5c-0.7-0.3-1.6-0.4-2.3-0.6c-1.7,0.1-3-0.9-4.4-1.6
			c-0.6-0.5-1-1-0.5-1.8c0.5-0.5,1.2-0.7,1.9-0.9c2.7-0.1,5.2-0.7,7.3-2.5c0.9-0.7,1.8-1.4,2.8-2c0.4-0.2,0.9-0.3,1.4-0.3
			C299.7,240.1,300.4,241.1,301.1,242.1z"/>
		<path class="st135" d="M321.2,248.3c0.5,1.8-1.2,3.9,0.7,5.5c0.6,0.5,0.6,1,0.1,1.6c-2,0.8-1.8,2.5-1.9,4.1
			c-0.2,4.3,0,8.6,1.1,12.8c0.9,3.3,0,5-3.2,5.8c-1.2,0.1-2.8,1.3-3.1-1.1c3-1.3,3.1-3.7,3-6.6c-0.4-8.2-0.9-16.5,2-24.4
			C322.1,246,321.3,247.3,321.2,248.3z"/>
		<path class="st136" d="M305,285.1c0.3-0.1,0.6-0.1,1,0c1.2,1.2,2.8,1.3,4.2,1.7c0.6,0.2,1.3,0.6,1.8,0.5c2.1-0.3,4.8-1,4.7,2.2
			c-0.1,3.1-2.8,3.6-5.5,3.3c-1.1-0.1-2.2-0.4-3.3-0.6c-1.5,0.5-2.8,0-4.1-0.6c-1-0.6-1.8-1.4-2.7-2.1c-1.2-1.4-3.2-1.3-4.6-2.3
			c-0.6-0.5-1.7-1.1-1.2-1.8c0.9-1.3,2.3-0.4,3.5-0.2C301,285.6,303,285.7,305,285.1z"/>
		<path class="st137" d="M309.9,296.9c0.9,2.3,0,3.9-2.2,4.7c-2.8,1.1-5.3,0-7.2-1.9c-2.4-2.4-2.9-5.4-2.6-8.7
			c0.5-0.6,1.2-0.6,1.9-0.3c1.3,1.8,2.8,3.3,4.8,4.3C305.9,296.9,308.2,296.3,309.9,296.9z"/>
		<path class="st138" d="M306.8,229.1c-4.2-7.4-10.7-11.9-18.7-14.2c0.3-2.4,1.9-1.2,3.1-1c8.1,1.7,13.7,6.4,17,13.9
			C308.5,228.9,307.9,229.3,306.8,229.1z"/>
		<path class="st139" d="M241,235.9c1.2-2.6,3.4-3.2,6-3.1c2.2,1.5,3.1,3.7,2.9,6.3c-0.2,1.7-0.9,3.4-3,3c-1.9-0.4-3.2-1.4-2.6-3.9
			c0.6-2.3,0.4-2.3-2.3-1.4C241.1,237.2,240.6,237,241,235.9z"/>
		<path class="st140" d="M328.1,249c2,0.2,4-0.6,5.9,0.6c0.8,0.6,0.3,1.2,0,1.7c-1.1,0.9-1.7,2.1-2,3.4c-0.4,1-1.1,1.7-2.1,2.1
			c-3.5,0.7-5.7-1-7.2-3.9C324.1,251.1,325.7,249.5,328.1,249z"/>
		<path class="st141" d="M339,257.9c-1,0.7-1.4,2.1-3,2c-0.3,0-0.7,0-1-0.1c-1.8,0.7-3.6,1-5.3-0.3c0.8-3,2.6-5.2,5.4-6.5
			C338.2,253.4,339.7,254.7,339,257.9z"/>
		<path class="st142" d="M321.2,248.3c-0.2-0.9-0.2-1.8-1.1-2.3c1.3-5.2,3.6-9.7,8.8-12.2c1.1-0.3,1.4,0.2,1.2,1.2
			C325.1,238.1,323,243.1,321.2,248.3z"/>
		<path class="st143" d="M342.7,218.1c0.4-0.4,0.8-0.7,1.2-1.1c6.8,3.1,5.8,9.2,6,14.9c-1.9-1.6-1.9-4.1-2.9-6.1
			c0.3-1.5-0.4-2.7-1.4-3.8c-0.8-1-2-1.7-2.8-2.7C342.6,218.9,342.6,218.5,342.7,218.1z"/>
		<path class="st144" d="M334.8,253.8c-1.1,2.2-2.4,4.2-4.9,5.1c-1.3,0.9-2.6,0.8-3.9,0c-0.3-0.3-0.6-0.6-0.9-0.8
			c1-2.1,3.3-1.3,4.9-1.9c0.4-0.8,0.9-1.5,1.3-2.3c0.7-0.9,0.8-2.1,1.7-2.9c0.3-0.4,0.7-0.9,1-1.3c0.6,0.3,1.3,0.6,1.9,0.9
			C336,251.8,336.1,253.1,334.8,253.8z"/>
		<path class="st145" d="M304.2,296.2c-1.7-1.5-5-1.6-4.5-5.1c0.2-0.2,0.3-0.4,0.5-0.5c1-0.3,1.9,0,2.8,0.4c1.5,1.2,3.8,0.5,5.1,2.1
			c0.2,0.6,0.5,1.3,0.7,1.9C307.7,297.5,305.9,296.8,304.2,296.2z"/>
		<path class="st146" d="M298.2,240.7c-0.4,0.1-0.7,0.3-1.1,0.4c-2.2,1.2-3.6-0.3-5.1-1.4c-0.3-0.4-0.6-0.8-0.8-1.2
			c-0.4-1.3-0.2-2.4,0.8-3.4c2.1,0.4,3.5,2.5,5.8,2c0.2,0.2,0.3,0.4,0.3,0.6C298.7,238.7,299,239.7,298.2,240.7z"/>
		<path class="st147" d="M329.9,256.2c-1.6,0.6-3.2,1.3-4.9,1.9c-1.3-0.6-2.6-1.1-3.1-2.7c0-0.5-0.1-1.1-0.1-1.6
			c0.3-0.3,0.6-0.6,0.8-0.9C325.3,253.5,326.7,257,329.9,256.2z"/>
		<path class="st148" d="M329.2,213c4.1-1.5,6.6,1.9,9.7,3.2c0.1,0.8,0,1.3-0.9,0.8C335.1,215.6,332.1,214.3,329.2,213z"/>
		<path class="st149" d="M330,235c-0.4-0.4-0.8-0.8-1.2-1.2c2.2-1.8,4.6-2.2,8.5-1.6C334.2,233.3,332.1,234.2,330,235z"/>
		<path class="st150" d="M324,210.6c-1,0.1-2,0.2-3,0.3c-1.5-0.6-2.9-1.2-4.4-1.7c0.8-0.4,1.5-0.7,2.3-1.1c1.8,0.4,3.8,0.4,5,2.2
			L324,210.6z"/>
		<path class="st151" d="M299.7,291.2c-0.6-0.1-1.1-0.1-1.7-0.2c-0.4-1.3-0.9-2.6-1.3-3.8c1.9,0.1,4.3-1.4,5.3,1.6
			c-0.6,0.8-1.5,1.3-2,2.2L299.7,291.2z"/>
		<path class="st152" d="M304.2,296.2c1.6-0.2,3.2,0.1,4.5-1.2c0.4,0.6,0.8,1.2,1.2,1.8C307.8,298.2,305.8,298.7,304.2,296.2z"/>
		<path class="st153" d="M326,258.9c1.3,0,2.6,0,3.9,0c1.4,1.7,3.4,0.8,5.2,1C331.7,262.1,328.9,260.5,326,258.9z"/>
		<path class="st154" d="M291.1,213.8c-1,0.3-2.3-0.1-3.1,1c-1.6-0.1-3.1-0.5-5-1.8C286.3,212.8,288.8,212.4,291.1,213.8z"/>
		<path class="st155" d="M338,216.9c0.3-0.3,0.6-0.5,0.9-0.8c1.3,0.6,2.6,1.3,3.8,1.9c0.1,0.3,0.1,0.7,0.2,1
			c0.1,0.6-0.1,0.8-0.7,0.7C340.8,218.9,339.4,217.9,338,216.9z"/>
		<path class="st151" d="M310.2,286.8c-2.2,1.4-3.8,1.3-4.2-1.7C307.7,284.8,309.2,285.1,310.2,286.8z"/>
		<path class="st156" d="M308,293.1c-2.1-0.1-4.1-0.5-5.9-1.6c0.3-1.7,1.5-0.9,2.4-0.8c1.5-0.3,2.3,1,3.5,1.4
			C307.9,292.5,307.9,292.8,308,293.1z"/>
		<path class="st157" d="M241,235.9c0.3,0.3,0.7,0.7,1,1c-1.2,1.8-0.8,4-1.2,6c0,0.1-0.2,0.2-0.4,0.2c-0.1,0-0.3-0.1-0.4-0.2
			C240.4,240.6,239.1,238.1,241,235.9z"/>
		<path class="st158" d="M284.6,246.1c0.4,0.4,0.8,0.7,1.2,1.1c0.4,0.8,0.1,1.2-0.8,0.9c-2-1-3.9-2.1-5.3-3.8c0.2-0.5,0.6-0.7,1-0.9
			C282.6,243.4,283.9,244.3,284.6,246.1z"/>
		<path class="st159" d="M298.2,240.7c0-1,0-2,0-3c2.3,0.6,2.7,2.4,2.9,4.4C300.1,241.6,299.2,241.1,298.2,240.7z"/>
		<path class="st160" d="M343.9,235c-1-0.9-2.9-0.6-3.6-2.6c2.3-0.2,3.8,0.8,4.9,2.5C344.8,235.4,344.4,235.4,343.9,235z"/>
		<path class="st161" d="M309.1,229.8c1.2,1.6,1.2,3.4,0.7,5.3c-1.6-0.6-1.5-2-1.8-3.2C308.5,231.2,308.1,230.2,309.1,229.8z"/>
		<path class="st162" d="M315,277c0.7,1.3,2,0.8,3.1,1.1c-1,1.1-2.4,1-3.7,0.9c-0.7,0-1.9,0.2-1.5-1.1
			C313.2,277.1,314.2,277,315,277z"/>
		<path class="st163" d="M285,248c0.3-0.3,0.5-0.6,0.8-0.9c1.4,0.6,2.8,1.3,4.1,1.9C288,250.4,286.5,248.9,285,248z"/>
		<path class="st164" d="M342.2,219.9c0.2-0.2,0.5-0.5,0.7-0.7c1.6,0.5,2.5,1.6,3,3.1c0.3,0.3,0.4,0.5,0.2,0.7
			c-0.1,0.2-0.3,0.3-0.4,0.3C344.6,222.1,343.4,221,342.2,219.9z"/>
		<path class="st165" d="M309.1,229.8c-0.3,0.7-0.7,1.4-1,2.1c-0.4-0.9-0.8-1.9-1.3-2.8c0.4-0.4,0.9-0.9,1.3-1.3
			C308.5,228.4,308.8,229.1,309.1,229.8z"/>
		<path class="st151" d="M305,285.1c-2,1.2-3.9,1.3-5.9,0.1C301,285.1,303,285.1,305,285.1z"/>
		<path class="st166" d="M343.9,235c0.4,0,0.9-0.1,1.3-0.1c0.8,0.5,2,1.6,1.3,2C345.2,237.6,344.7,235.8,343.9,235z"/>
		<path class="st167" d="M345.8,223.2c0.2-0.3,0.2-0.6,0.2-1c1.1,1,2.8,1.8,1.1,3.6C346.6,225,346.2,224.1,345.8,223.2z"/>
		<path class="st168" d="M278.8,229.1c-0.7,0.6-1.4,1.2-2.1,1.7c0.5-1-0.6-2.7,1.1-3.2C278,227.6,278.5,228.6,278.8,229.1z"/>
		<path class="st169" d="M281.4,243.9c-0.6,0.1-1.2,0.2-1.7,0.3c-0.9-0.4-1.9-0.8-2.8-1.2c1-0.3,2.2,0.2,3.1-0.8
			C281.7,241.6,281.5,242.8,281.4,243.9z"/>
		<path class="st170" d="M334.8,253.8c0.3-1.1,0.1-2.4,1.1-3.3c2.4,1.9,5.9,3.4,3.1,7.4C338.7,255.4,337.2,254.2,334.8,253.8z"/>
		<path class="st171" d="M354,212c0.4-0.3,0.7-0.7,1.1-1c1.6,0.8,2.2,2.3,2.9,4.5C355.8,214.7,354.8,213.4,354,212z"/>
		<path class="st117" d="M302,366.9c-1,1.2-2.4,1.8-4,1.9C298.4,366.3,300.4,367.1,302,366.9z"/>
		<path class="st172" d="M324,210.6c0,0-0.1-0.3-0.1-0.3c1.5-0.6,2.8-0.1,3.8,1.2C326.1,212.4,325,211.6,324,210.6z"/>
		<path class="st173" d="M295.4,243.1c-2.4,2-4.9,3.5-8.2,2.7c-5.7-1-6.3-5.9-8-10.1c1.4-1.3,3.1-0.3,4.7-0.7c3.1,4.7,3.1,4.7,8,3.7
			l0.1,0.4C292.5,240.9,294.4,241.6,295.4,243.1z"/>
		<path class="st174" d="M291.9,238.7c-0.6,0.2-1.4,0.3-1.7,0.7c-2.3,3.2-3.9,3.2-5.4-0.2c-0.6-1.3-0.7-2.8-1-4.2
			c2.7,0,5.4,0.1,8.2,0.1C292,236.3,292,237.5,291.9,238.7z"/>
		<path class="st175" d="M279.2,235.7c1.6,0.1,2.1,1.3,2.4,2.6c0.6,3.4,2.9,5.7,5.6,7.5c-0.9,0.1-1.8,0.2-2.6,0.3
			c-1.1-0.7-2.1-1.5-3.2-2.2c-0.5-0.5-1-1.1-1.5-1.6C279.2,240.1,276.3,238.2,279.2,235.7z"/>
		<path class="st176" d="M295.4,243.1c-2.2-0.4-5.5,0.2-3.4-4c2.1-0.5,3.1,2.1,5.2,1.9C296.6,241.7,296,242.4,295.4,243.1z"/>
		<path class="st177" d="M304.5,290.8c-0.8,0.3-1.6,0.5-2.4,0.8c-0.7-0.2-1.4-0.5-2-0.7c-0.3-0.8-1.4-1.7-0.6-2.5
			c0.4-0.4,1.7,0.2,2.5,0.3C302.8,289.4,303.7,290.1,304.5,290.8z"/>
		<path class="st178" d="M333,250.9c0.2,1.5,0.7,3-1.7,2.9C330.6,252.1,330.9,251,333,250.9z"/>
	</g>
</g>
</svg>
