<?xml version="1.0" encoding="utf-8"?>
<!-- Generator: Adobe Illustrator 25.2.3, SVG Export Plug-In . SVG Version: 6.00 Build 0)  -->
<svg version="1.1" id="Layer_1" xmlns="http://www.w3.org/2000/svg" xmlns:xlink="http://www.w3.org/1999/xlink" x="0px" y="0px"
	 viewBox="0 0 1015.2 634.1" style="enable-background:new 0 0 1015.2 634.1;" xml:space="preserve">
<style type="text/css">
	.st0{fill:#FFFFFF;}
	.st1{fill:#393091;}
	.st2{fill:#2E247B;}
	.st3{fill:#FEDDAD;}
	.st4{fill:#2F267F;}
	.st5{fill:#7F99CE;}
	.st6{fill:#4E1800;}
	.st7{fill:#2E247C;}
	.st8{fill:#E8C49E;}
	.st9{fill:#E64A25;}
	.st10{fill:#B6C2E3;}
	.st11{fill:#B6C2E4;}
	.st12{fill:#C23E1D;}
	.st13{fill:#FAF9F8;}
	.st14{fill:#A28171;}
	.st15{fill:#775649;}
	.st16{fill:#FAF7F5;}
	.st17{fill:#866359;}
	.st18{fill:#DFC4A6;}
	.st19{fill:#A5928B;}
	.st20{fill:#C2CAE6;}
	.st21{fill:#B39790;}
	.st22{fill:#F7EFE9;}
	.st23{fill:#F2F2F7;}
	.st24{fill:#8C6959;}
	.st25{fill:#D5C5BC;}
	.st26{fill:#62341F;}
	.st27{fill:#F2EDE9;}
	.st28{fill:#D0D5E9;}
	.st29{fill:#9A7F72;}
	.st30{fill:#FDEAD1;}
	.st31{fill:#D0D7EC;}
	.st32{fill:#7D564C;}
	.st33{fill:#C2CCE5;}
	.st34{fill:#EBEEF5;}
	.st35{fill:#F9F2E9;}
	.st36{fill:#7B594F;}
	.st37{fill:#E0DBD8;}
	.st38{fill:#F3F5F0;}
	.st39{fill:#F2F2F6;}
	.st40{fill:#765C4F;}
	.st41{fill:#C3C1E2;}
	.st42{fill:#7C553C;}
	.st43{fill:#C5B4A9;}
	.st44{fill:#745847;}
	.st45{fill:#755F58;}
	.st46{fill:#38338C;}
	.st47{fill:#E0E4F1;}
	.st48{fill:#9A7A74;}
	.st49{fill:#F6F5F3;}
	.st50{fill:#886557;}
	.st51{fill:#D3E1F3;}
	.st52{fill:#FCF0DC;}
	.st53{fill:#FCE7C0;}
	.st54{fill:#A08E86;}
	.st55{fill:#D5C9C9;}
	.st56{fill:#C4B7AA;}
	.st57{fill:#EFF0F3;}
	.st58{fill:#CFC1B3;}
	.st59{fill:#BEADA7;}
	.st60{fill:#BAA59A;}
	.st61{fill:#B0C1DD;}
	.st62{fill:#875C3F;}
	.st63{fill:#9D8074;}
	.st64{fill:#A98E82;}
	.st65{fill:#FDEBD0;}
	.st66{fill:#AC9F91;}
	.st67{fill:#FCE8C7;}
	.st68{fill:#EDEDF3;}
	.st69{fill:#332C89;}
	.st70{fill:#F5F5F8;}
	.st71{fill:#F6F7FB;}
	.st72{fill:#F7F9FA;}
	.st73{fill:#F3F6F9;}
	.st74{fill:#F0F4F7;}
	.st75{fill:#EEF3F8;}
	.st76{fill:#E2E8F5;}
	.st77{fill:#E6ECF6;}
	.st78{fill:#E9EEF6;}
	.st79{fill:#F0F4F9;}
	.st80{fill:#050403;}
	.st81{fill:#E96554;}
	.st82{fill:#491506;}
	.st83{fill:#E1BE92;}
	.st84{fill:#E54B48;}
	.st85{fill:#491507;}
	.st86{fill:#DDBA90;}
	.st87{fill:#592D0E;}
	.st88{fill:#A37E59;}
	.st89{fill:#DEBA90;}
	.st90{fill:#A4805A;}
	.st91{fill:#57290E;}
	.st92{fill:#D9B88E;}
	.st93{fill:#E6C095;}
	.st94{fill:#EDCBA0;}
	.st95{fill:#D3B18A;}
	.st96{fill:#EA6958;}
	.st97{fill:#C8644E;}
	.st98{fill:#663F25;}
	.st99{fill:#9E7C5E;}
	.st100{fill:#B53329;}
	.st101{fill:#502306;}
	.st102{fill:#796044;}
	.st103{fill:#805B3E;}
	.st104{fill:#DBB98D;}
	.st105{fill:#AD4432;}
	.st106{fill:#A07A59;}
	.st107{fill:#845839;}
	.st108{fill:#A67A5E;}
	.st109{fill:#80573B;}
	.st110{fill:#8A5E41;}
	.st111{fill:#9A7852;}
	.st112{fill:#E16A55;}
	.st113{fill:#9B7550;}
	.st114{fill:#A37D59;}
	.st115{fill:#A68E70;}
	.st116{fill:#8F6842;}
	.st117{fill:#AD8765;}
	.st118{fill:#6E3E1F;}
	.st119{fill:#79664B;}
	.st120{fill:#72402F;}
	.st121{fill:#7F573B;}
	.st122{fill:#A37C5C;}
	.st123{fill:#956847;}
	.st124{fill:#906D45;}
	.st125{fill:#C39A7A;}
	.st126{fill:#896340;}
	.st127{fill:#7B5439;}
	.st128{fill:#C76A50;}
	.st129{fill:#AD4D3B;}
	.st130{fill:#90796D;}
	.st131{fill:#E4C399;}
	.st132{fill:#7C552E;}
	.st133{fill:#EBE3E0;}
	.st134{fill:#ECC8A3;}
	.st135{fill:#C8A280;}
	.st136{fill:#D4AF8B;}
	.st137{fill:#C5ADA6;}
	.st138{fill:#EADFD5;}
	.st139{fill:#A47A5C;}
	.st140{fill:#CCAA88;}
	.st141{fill:#DEB992;}
	.st142{fill:#D1B6AC;}
	.st143{fill:#DDCFC8;}
	.st144{fill:#C79F7F;}
	.st145{fill:#D0A887;}
	.st146{fill:#BB9A8E;}
	.st147{fill:#CFBEB7;}
	.st148{fill:#D4B08B;}
	.st149{fill:#AAA8CA;}
	.st150{fill:#B0AECB;}
	.st151{fill:#938EBB;}
	.st152{fill:#9D97C6;}
	.st153{fill:#BFBCDF;}
	.st154{fill:#A3A0C3;}
	.st155{fill:#B5B3CE;}
	.st156{fill:#CECDE5;}
	.st157{fill:#9B95CB;}
	.st158{fill:#736AB0;}
	.st159{fill:#483E91;}
	.st160{fill:#C7C6E2;}
	.st161{fill:#6D65AA;}
	.st162{fill:#4D458B;}
	.st163{fill:#ADAAD0;}
	.st164{fill:#3D3382;}
	.st165{fill:#B6B3D9;}
	.st166{fill:#B3B0D3;}
	.st167{fill:#9C98BF;}
	.st168{fill:#827DB2;}
	.st169{fill:#4E4690;}
	.st170{fill:#8984B9;}
	.st171{fill:#4A408D;}
	.st172{fill:#9D98C6;}
	.st173{fill:#D2CFF1;}
	.st174{fill:#6860A3;}
	.st175{fill:#716AAC;}
	.st176{fill:#D8D6F6;}
	.st177{fill:#A8A3CB;}
	.st178{fill:#BCB8E3;}
	.st179{fill:#817BB0;}
	.st180{fill:#EFF0F5;}
	.st181{fill:#ECCAA3;}
	.st182{fill:#D2D1E5;}
	.st183{fill:#B2AED3;}
	.st184{fill:#CDCCE1;}
	.st185{fill:#CAC9E4;}
	.st186{fill:#B8B4DC;}
	.st187{fill:#DDDDF0;}
	.st188{fill:#9C97C9;}
	.st189{fill:#906E4C;}
	.st190{fill:#A09BC8;}
	.st191{fill:#7570AF;}
	.st192{fill:#251973;}
	.st193{fill:#E2BE99;}
	.st194{fill:#EEE4D6;}
	.st195{fill:#C59E7D;}
	.st196{fill:#FEFEFE;}
	.st197{fill:#8E6B5C;}
	.st198{fill:#CBB1A0;}
	.st199{fill:#E4D8CF;}
	.st200{fill:#957667;}
	.st201{fill:#96736A;}
	.st202{fill:#E9E2DE;}
	.st203{fill:#5D3807;}
	.st204{fill:#DAB78D;}
	.st205{fill:#D3CFBA;}
	.st206{fill:#C5BBA5;}
	.st207{fill:#6F5635;}
	.st208{fill:#B59B7D;}
	.st209{fill:#D4B38D;}
	.st210{fill:#A72B21;}
	.st211{fill:#FC9279;}
	.st212{fill:#040303;}
	.st213{fill:#C6BFAB;}
	.st214{fill:#BA9D7A;}
	.st215{fill:#988266;}
	.st216{fill:#B9382D;}
	.st217{fill:#F7D8AA;}
	.st218{fill:#5D3705;}
	.st219{fill:#CDC8B2;}
	.st220{fill:#5F3B22;}
	.st221{fill:#956D47;}
	.st222{fill:#9F7A53;}
	.st223{fill:#D9B591;}
	.st224{fill:#D5B28A;}
	.st225{fill:#947149;}
	.st226{fill:#A37D57;}
	.st227{fill:#96764B;}
	.st228{fill:#604928;}
	.st229{fill:#8B8277;}
</style>
<path class="st0" d="M695.6,329.7c12.3-1.6,24.9-1.2,37,1.4c4.7,1,9.5,2.4,13.2,5.4c4,3.2,6.7,8.2,11.4,10.2
	c2.6,1.1,5.5,1.1,8.3,1.3c7.2,0.5,14.4,2,21.2,4.6c3.5,4.7,7.1,9.6,9,15.1c1.5,4.3,2,8.9,2.5,13.4c2,18.7,3.9,37.7,1.1,56.3
	c-1.7,11.1-5.2,22-10.3,32.1c-3.7,7.4-8.4,14.5-15,19.5c-4.1,3.2-8.8,5.4-13.6,7.5c-19.3,8.4-39.7,14.1-60.4,17
	c-8.4,1.2-17.3,1.8-25-1.7c-5.5-2.5-9.8-7-13.9-11.6c-15.9-18-28.9-38.6-38.3-60.7c-5.1-12.1-9.2-24.7-10.1-37.8
	c-1-13.1,1.4-26.6,8.3-37.7c4.1-6.5,9.6-12,15-17.4c6.6-6.6,15.1-15.8,25.2-15.1C673.3,332.5,683.7,331.3,695.6,329.7z"/>
<g>
	<g>
		<path class="st1" d="M598.9,589.6c2.4-13.5,4.9-27.1,7.1-40.6c1-6,1.5-12,1.8-18.1c0.5-9.1,1.2-18.4-4.5-26.4
			c5.2,2.6,10.6,2.5,16.3,2c7.3-0.6,8.2,0.3,10.8,7.2c0.8,2.1,1.6,3,4.4,2.4c6-1.2,12.3-2.3,18.2,1c0.9,0.5,1.7,0.2,2.6-0.2
			c6.1-2.4,11.6-1.4,17.8,0.9c5.3,2,8.1,7.7,14.2,8.1c1.8,0.1,2.5,2.7,1.4,4c-1.6,2.2-0.4,4.7-1.6,6.8c-2.6,1.2-4.1-0.8-5.8-2.2
			c-3.8-3.2-7.4-6.6-11.4-9.5c-2.8-2-5.6-2.7-8.8-1.1c-15.7,7.4-30.5,2.9-45.2-3.4c-1.9-0.8-3.3-2.4-4.4-4c-0.2-0.3-0.3-0.6-0.5-0.9
			c-0.3-0.4-0.5-0.3-0.5,0.2c10.2,11.7,23,18.1,38.4,20.7c8.9,1.6,18.2,2.6,26.6,6.7c3.3,1.6,6.6,3.2,9.2,5.9
			c10.2,10.5,17.2,22.8,20.5,37.2c0.2,1.1,0.3,2.2-0.5,3.1c-17,0-33.9,0-50.9,0c-1.4-1.5-1.2-3.4-0.9-5.2c1.1-6.5,1.4-13,2.9-19.4
			c1.6-5,2-10.4,3-14.9c-0.2,3.1-2.3,6.5-2.4,10.4c-2.4,9.7-2.7,19.8-7,29.1C632.8,589.6,615.9,589.6,598.9,589.6z"/>
		<path class="st2" d="M705.1,589.6c-3.5-15.6-10.4-29.5-22.3-40.4c-5.4-4.9-12.3-7.1-19.4-8.2c-8.1-1.2-15.9-3.8-23.9-5.2
			c-12.1-2.2-20.4-10.6-29.6-17.7c-1.8-1.4-0.1-2.5,0.1-3.7c1.3-0.7,1.6,0.5,2.2,1.1c6.8,5.9,15.4,7.9,23.8,9.9
			c9.5,2.3,18.5,0.3,27.1-3.8c2.5-1.2,4.7-0.2,6.6,1.3c4.5,3.5,8.8,7.2,13.1,10.8c1.4,1.2,2.4,2.9,4.5,2.8c1.8-0.2,3.2,0.8,4.5,1.7
			c11.7,7.6,24.7,9.7,38.2,9.3c2.8-0.1,4.7,0.2,4.8,3.4c-9.2,11.3-14.1,24.3-15.5,38.6C714.7,589.6,709.9,589.6,705.1,589.6z"/>
		<path class="st3" d="M864.4,578.5c-3.3-5.9-6.6-11.9-9.9-17.8c-0.4-2.2,1.5-2.8,2.7-3.6c10-6.8,19.9-13.6,27.7-23
			c0.6-0.7,1.4-1.1,2.4-0.8c3.7,11.4,7.5,22.8,11.2,34.2c2.3,7.3,4.6,14.5,5.6,22.2c-12.2,0-24.3,0-36.5,0c-0.4-1.8-0.7-3.7-1.1-5.5
			C865.6,582.3,865.7,580.1,864.4,578.5z"/>
		<path class="st4" d="M649.8,589.6c0.3-8.6,3.3-16.6,4.8-25c0.3-1.6,0.5-3.2,0.7-4.9c1.1-1.4,2.2-2,2.7,0.4
			c0.2,1.3,0.5,2.8-0.4,4.1c-1.1,8.5-2.2,17-3.3,25.4C652.7,589.6,651.3,589.6,649.8,589.6z"/>
		<path class="st1" d="M735,551c-3.9-4.2-9-1.6-13.3-2c-12.7-1.1-24.3-4.2-34.3-12.4c0.5-2.2-4.9-4.9,0.8-6.8
			c0.9-0.3,0.3-2.6-1.7-3.2c-3.5-1-8.4-0.2-8.6-6c-4.7,1.8-6.5-4.8-11-3.7c-4,1-8.9-2.4-12.1,2.6c-0.6,1-1.9,1.7-2.5,0.2
			c-0.7-1.6-0.8-3.2-3.1-3.1c-4.8,0.2-10.2-1.1-14.1,0.7c-5.2,2.4-5.9-1-6.1-3.6c-0.4-5-2.9-6.3-7.3-6c-2,0.1-4.2-0.3-6,0.2
			c-5,1.6-9.1,0.5-12.4-3.5c-11.4-23.1-13.6-47.2-8.6-72.2c0.2-0.8,1-1.6-0.2-2.2c-1.8-0.7-1.1-2-0.6-3.2
			c5.8-14.7,11.3-29.5,14.2-45.2c2.1-11.6,4.6-23.1,6-34.8c0.9-7.2,3.2-14,5.9-20.7c0.1-0.3,0.2-0.9,0.5-1c4.8-2.3-1.6-1.2-0.7-2.3
			c11.9-4.5,22.9-1.8,33.6,4.1c1.3,0.7,2.5,1.6,3.8,2.3c3.5,1.7,4.5,3.2,1.3,6.7c-6.7,7.3-9.4,16.9-12.8,26
			c-2.7,7.2-5,14.6-8.6,21.4c-1.7,3.3-3.7,6.4-7.1,8.2c-1.1,1.3-0.9,2.3,0.8,2.8c1.2,0.3,2.6-0.4,3.6,0.7c6.1,1.1,12.2,2.3,18.4,3.3
			c2.6,0.4,3.8,1.4,3.9,4.2c0.4,9,1.1,17.9,1.6,26.9c-0.3,3.4,0,6.8-0.2,10.2c-1.3,1.3-0.8,3.1-1.2,4.6c-0.3,1.2-0.5,3-2.1,2.6
			c-1.6-0.4-1-2-0.8-3.2c-0.4,1.6-0.4,3.1,0.8,4.6c3.2-2.1,1.6-5.6,2.9-8c0.4-0.5,0.8-0.5,1.3-0.1c2.1,15.5,4.4,30.9,6.4,46.4
			c1.7,13.6,1.6,13.7,13,6.2c13.1-8.5,26-17.3,39-25.9c0.8-1.2,2.2-1.5,3.4-2.2l-0.1,0c4.2-3.4,8.4-6.8,13.5-8.9
			c7.3-4.6,14.6-9,21.7-13.8c2.8-1.9,4.6-1.7,7,0.6c4.5,4.5,9.4,8.7,14.9,13.7c1.6-9,3.3-17.1,7-24.6c0.7-1.8,1.4-3.6,3-4.9
			c0.3-0.1,0.4-0.4,0.3-0.7c0.5-3.5,3.6-5.8,4.2-9.2c1.1-2.6,3.4-4.6,3.3-7.7c1.1-5.1,3.5-9.9,2.5-15.4c-0.3-1.4,0.5-3.6,3-2.3l0,0
			c7.3,8.2,14.6,16.4,23.2,23.4c1.9,1.4,3.9,2.7,5.8,4.1c-5.4,3.1-7.9,8.5-10.6,13.7c-6.7,13.3-12.3,27.1-15.5,41.8
			c-1,4.8,0,9.9-2,14.6c-4,0.5-4.5,4.3-6.1,6.8c-9.5,14-19.9,27.2-33,38c-5.7,4.7-11.7,8.7-18.5,11.7
			C741.2,547.2,738.2,549.2,735,551z"/>
		<path class="st5" d="M232.8,269c-20.6-7.3-37.6-19.2-51.2-36.7c-11.9-15.4-24.8-30.1-36.9-45.4c-2.8-3.6-6.6-5.8-10.6-7.6
			C104,165.4,74.2,151,44.6,136c-5.1-2.6-10-5.5-14.9-8.4c-1.7-1-3.8-2.1-3.4-4.6c0.4-2.6,2.8-3.2,4.9-3.8c5.7-1.8,11.6-2,17.4-2.7
			c27.1-3.4,53.2,0.2,77.9,12.4c8.9,4.4,18.1,1.5,27.1,1.5c11.4,0,22.8-1.3,34.2-1.6c20.2-0.6,40.5-0.7,60.8-1.2
			c22.3-0.5,42.2,8.1,62.3,16.7c-36.5,6.2-72.9,12.5-110,18.8c3,3.9,7.2,5.1,10.7,6.9c28,14.9,55.5,30.4,82.8,46.5
			c0.5,0.3,1,0.3,1.6,0.5c2.1,0.7,3.9,1.9,5.6,3.4c1.5,1.7,3.3,1.8,5.5,1.6c14.4-1,28.9-1.8,43.4-2.9c5.8-0.4,11.2,0.1,16.4,3
			c5.4,3,11.3,5.2,18.3,8.3c-15.8,5.8-31.1,8-45.9,11.9c-8.5,3.9-17.8,3.9-26.8,4.8c-13.3,1.3-25.7-3.4-38-7.5
			c-6.9-2.3-14.3-3.6-20.1-8.4c-13.7-5.5-27.4-11-41.1-16.6c-2.6-1.1-5.2-2.2-7.7-3.3l0,0c-2.6-0.4-1.8,1.1-1.3,2.4
			c10,17.7,20,35.3,29.9,53C234.7,268.1,234.8,269,232.8,269z"/>
		<path class="st3" d="M708.5,305.4c3.7-3.6,3-14.5-1-16.4c-18.7-8.8-34.4-21.5-46.7-38.1c-3.3-4.4-6.9-8.5-9.4-13.5
			c-0.6-1.3-1.9-2.8-3.8-2.9c-0.7-2.9,0.7-5.8-0.4-8.7c-0.3-1.2,0-2.5-0.4-3.8c-0.2-0.5-0.3-0.9-0.2-1.4c-0.2,0.8,0.3,1.5,0.4,2.3
			c0,1.3,0,2.5,0.2,3.8c-0.1,0.5-0.4,1-0.8,1.3c-4.2-6.1-6.9-12.9-8.6-20.1c1.1-2.2-1.8-3.5-1.4-5.6c-0.4-3,0.1-6.2-1-9.1
			c-0.5-5.2-0.9-10.3,1-15.3c2.8-6.2,5.8-12.2,12.6-15c1.7-0.4,3.4-0.8,4.6-2.4c1.8-1.6,3.9-2.6,6.1-3.5c1.3-0.5,2.6-1,3.9-1.4
			c11.1-4.7,22.5-8.3,34.8-8.3c2.5-0.5,5.1-0.8,7.5-1.5c10.6-2.2,20.9-5.5,30.7-10.2c3.3-0.9,5.9-3.1,8.8-4.8
			c1.9-0.9,3.6-2.1,5.2-3.4c1.2-0.8,2.5-1.2,4-1c5.7,5,12.3,6.1,19.6,4.3c1.4-0.3,2.9,0.2,4.1,1c4.1,3.3,6.6,7.7,8.7,12.5
			c0.7,2.6,1.8,5,3.7,7c0.3,0.4,0.4,0.9,0.5,1.4c0.1,1.8,0.4,3.6-1.8,4.5c-0.5,0.2-1,0.3-1.5,0.3c-16.2-3.6-28.2,5.4-40.6,13.3
			c-0.6,0.4-1.2,0.9-1.7,1.4c-1.8,1.6-4.3,3.8-3.2,5.9c1.4,2.8,3.6-1.3,5.7-0.6c2.2,0.4,2.7,1.8,2.5,3.7c-1.9,5.1-4.8,9.9-4.9,15.6
			c0,2.4,0.1,4.5,3.4,4.3c4.5-0.2,8.9-1.1,13.3-1.6c2.6-0.8,5.2-1.3,7.8-2.1c3.5-1.4,7-3,9.9-5.4c1.7-1.1,3-2.6,4.9-3.6
			c4.1-2.8,8.5-5.3,8.9-11.1c0.2-1.3,0.6-2.5,1.3-3.6c0.5-0.9,1.1-1.8,1.8-2.6c0.8-0.8,1.7-1.3,2.8-1.2c2.1,0.4,3,2.2,3.9,3.8
			c1.5,2.7,2.5,5.7,3.3,8.7c0.4,1.2,0.8,2.4,1,3.7c0.1,3.5-1.1,6.7-2.3,9.9c-0.1,0.5-0.3,0.9-0.5,1.3c-1,1.5-2.5,2.7-2.8,4.7
			c-0.3,1.6-1.1,3.1-1.6,4.7c-0.4,1.4-1,2.7-1.5,4.1c-1,3.1-0.9,6.1,0.6,9c0.1,0.5,0.2,1,0.1,1.5c-1,2-1,4.2-1.6,6.3
			c-4.2,7.1-6.9,15-11,22.1c-7,12.1-14.8,23.6-26.1,32.3c-1.5,1.1-2.9,2.3-4.6,3c-11.8,8.5-24.4,13.2-39.1,8.9
			c-3.3-1-4.4-0.1-4.1,3.2c0.2,2.2,0.2,4.4-0.2,6.6c-0.4,2.4-1.3,4.3-4.3,3.3C708.1,306.5,708,306,708.5,305.4z"/>
		<path class="st3" d="M254,231.3c12.4,3.8,24.5,8.5,37.1,12c11.5,3.2,22.8,2.8,34.3,0.9c4.5-0.8,9.1-1.2,13.6-1.8
			c7.4,7.7,9.9,17.1,10,27.5c0.1,7.6,4.3,13.9,7,20.7c13.7,34.4,27.7,68.7,41.4,103.2c7.4,18.6,17.7,35.8,25.5,54.2
			c3.2,7.4,6.3,14.9,8.8,22.6c1.6,4.8,3.8,5.5,8,3.5c11.9-5.5,22.9-12.4,33.4-20.1c10.8-7.9,21.5-15.8,31.7-24.5
			c2-1.7,3.7-3.5,5.3-5.5c2.5,2.4,2.3,5.7,2.6,8.7c1.1,11,3.8,21.7,7.2,32.2c0.8,2.4,2.2,4.8,0.6,7.4c-14.3,8.2-28.6,16.4-42.8,24.7
			c-14,8.1-28.6,14.8-43.6,20.6c-4,1.5-8.4,0.5-12.1-1.9c-2-1.3-3.5-3.2-5.5-4.5c-17.2-18.7-26.3-41.9-35.4-65
			c-3.7-9.5-6.7-19.3-10-28.9c-0.9-2.2-0.6-4.7-2.1-6.7c-1.5-5.5-3-11-4.5-16.6c-2.2-5-2.2-10.5-4.4-15.5c-5.7-26.1-10.8-52.3-18-78
			c-2.9-10.4-7.8-20.1-13.5-29.3c-3.7-6.1-9-7.1-15.2-7.7c-12.5-1.4-25.2-1.6-37.5-4.4c-1.4-0.3-2.8-0.7-4.2-1.1
			c-1.4-0.8-2.4-2-3.4-3.3C261.7,247.9,258,239.5,254,231.3z"/>
		<path class="st6" d="M649.5,163.8c-6,2.7-8.9,8-11.9,13.4c-2.2,2.8-1.6,6.2-1.8,9.4c-0.1,2.1,0.8,4.3-0.7,6.2
			c-3.6-0.7-2.7-3.7-3.7-5.6c-0.4,0.4,0.6,2.9-1.9,2c-0.6-0.7-0.9-1.5-1-2.4c-0.2-2.9-0.1-5.9-0.1-8.9c0.4-2.5-0.9-4.9-0.7-7.4
			c0.2-4.9-1.7-9.5-2.3-14.3c-2.5-5.6-1.9-11.7-2.4-17.6c-0.8-10.2-0.1-20.4,1.9-30.5c0.3-3.3,1.5-6.3,2.5-9.3
			c0.7-1.5,1.5-2.9,1.6-4.6c1.6-3.8,3.9-7.3,5.2-11.2c0.4-1.2,1.3-2.3,1.9-3.4c5-4,9.2-8.7,13.5-13.3c7.2-5.4,15.3-9.3,23.4-13.1
			c2.9-1,5.8-1.9,8.4-3.5c2.3-0.9,4.9-0.9,7.3-1.9c1.5-0.4,3.1-0.7,4.6-1.2c1.9-0.4,3.9-0.6,5.8-1.2c4-0.3,7.9-1.4,12-1.5
			c7.2,0,14.5-0.1,21.7,0.1c1,0,2,0.1,2.9,0.4c1.5,0.5,3.1,1,4.1,2.3c1.5,3.7,0.1,7.3-0.3,10.9c-2.1,19.3,0.8,37.7,8.8,55.4
			c1,2.2,2.3,4.2,1.7,6.8c-0.9,2.1-3.2,2.5-4.7,3.8c-9.8,6.1-20.3,10.6-31.1,14.5c-2.2,1-4.5,1.7-6.8,2.5c-3.6,1.1-7.3,1.9-10.9,3.3
			c-2.6,0.7-5.1,1.7-7.8,2.4c-3.9,0.8-7.8,1.9-11.6,3.3c-2,0.6-4,1.3-5.9,1.9c-1.9,0.5-3.7,1.5-5.6,2.2c-2.6,0.8-5,2.1-7.4,3.4
			c-2,1.5-4.7,2-5.5,4.8C652.1,163.4,650.6,163.2,649.5,163.8z"/>
		<path class="st7" d="M520.6,472.2c-5.4-15.7-9-31.7-10.4-48.3c-1.9-9,2.7-14.2,9.3-19.6c31.7-25.7,63.1-51.9,94.6-77.9
			c1.7-1.4,3.3-3,5.5-3.5c2.1,0.1,3.8-0.3,2.1,3.1c-6.7,12.8-6.8,27.2-9.4,41c-3.2,16.5-6.4,32.9-12.7,48.6c-1.9,4.7-4,9.5-5.2,14.5
			c-10.7,6.4-20.3,14.5-30.6,21.6c-11.5,7.9-22.9,15.9-34.9,23.2C524.7,477.3,522.1,477.1,520.6,472.2z"/>
		<path class="st7" d="M802.3,489.2c-0.6-8.8,0.3-17.2,3.3-25.6c3.2-9.1,6.3-18.3,10.5-26.9c2.4-5,4.6-10.1,8.4-14.4
			c1.8-2,3.4-2.9,5.8-3.1c7.4,1.1,12.1,6.1,15.7,11.9c18.3,29.3,32.2,60.6,42.3,93.6c0.9,3.1,0.4,5.8-0.9,8.5
			c-9,11.5-21.2,19.2-32.9,27.5c-4.4,3.4-7.7,2.3-10.6-2.2c-1.8-2.7-4.1-5.1-6.2-7.6c-1-0.5-1.6-1.4-2.1-2.3
			c-0.7-1.1-1.5-2.2-2.2-3.3c-1.3-0.8-1.7-2.1-2.2-3.4l0,0c-2.3-1.6-3.3-4.1-4.5-6.5c-7.1-11.9-15.4-23.2-21.1-35.9
			C804.1,496.3,802.2,493.1,802.3,489.2z"/>
		<path class="st8" d="M765.7,356.2c-6.1,19.1-15.2,36.7-26.7,53.1c-13.9,19.8-31.9,35.2-51.6,48.7c-2,1.3-3,0.8-4-1.5
			c-1.1-2.4-0.3-5-1.5-7.3c-0.7-7.8-1.8-15.7-2-23.6c-0.9-27.4,3.4-54.1,12.4-80.1c0.4-1.2,0.5-2.5,0.8-3.8c2.3-0.6,3.8,0.8,5.5,1.9
			c3.5,2.3,7.3,4.3,11,6.4c15.3,8.4,31,6.2,46.7,1.7c3.9-1.1,7.8-2.3,11.8-0.2c0.7,0.5,1.3,1.1,1.4,2
			C768.7,355.2,766.4,354.5,765.7,356.2z"/>
		<path class="st9" d="M768.2,352.8c-3.4-1.4-6.6-0.9-10.2,0c-14.2,3.7-28.4,7.5-43,1.3c-7.8-3.3-15.1-7.4-21.9-12.3
			c-0.8-0.7-1.6-1.4-2.4-2.1c-6.4-5-6.3-8.5,0.8-12.2c4.2-2.2,6.8-6,10.5-8.7l0,0c2.3-3.6,0.7-8.7,4.4-11.7c4.1-0.7,7.1,1,10.3,3.7
			c8.7,7.4,18.6,12.2,30.2,13.2c3.8,0.3,7.6,1.2,11.4,1.4c6.8,1.5,12.3-1.4,18.2-4.3c9.5-4.6,19.2-8.4,29.8-9.5
			c15.9-1.6,25.5,6.5,26,22.6c0.1,4.2-0.7,8.4-1,12.6c-0.6,7.8,1.3,10.4,8.9,11.9c4.6,0.9,9.2,0.9,13.8,1c1.2,0,2.8-0.7,3.4,0.9
			c0.5,1.4-0.6,2.4-1.4,3.4c-2.4,3.4-6,5.3-9.3,7.6c-6.7,3.8-13.9,3.7-21.2,3c-1.8-0.2-3.5-1.1-5.4-0.9c-0.5,0.1-1.1,0.1-1.6,0.1
			c-2.4-1.4-4-0.2-5.5,1.6c-4.1-7-9.6-12.7-15.4-18.2c-5.4-5.1-11.3-7.1-18.5-5C775.5,353.1,771.8,353.6,768.2,352.8z"/>
		<path class="st1" d="M749.3,120.2c-0.3-3.6-2.7-6.4-3.9-9.6c-8-19.7-10-39.9-6.4-60.8c0.2-1.1,0.1-2.2,0.1-3.3
			c-0.3-0.9,0.6-2-0.4-2.8c-0.2-2.2,1-3.6,2.5-4.8c1.1-5.5,4.8-8.2,9.8-10c9.8-3.4,19.5-4,29.3-0.1c-3.1,1.3-5.6,3.2-6.6,6.7
			c-2.3-0.8-2,0.9-2.1,2.2c-0.3,1.9-1,3.7-1,5.6c-4.6,24-2.4,47.2,8.7,69.3c0.7,0.9,0.8,2,1.4,3.2c-0.3-1.7-1.2-3-2-4.3
			c-1.8-3.6-3-7.4-4.2-11.3c-1.8-5.9-0.9-7,5.1-6.3c0.9,0.1,1.8,0.2,2.7,0.4c2.2,0.8,4.7,0.6,7,1.1c5.8,1.1,11.7,0.7,17.6,0.2
			c2.9-0.6,5.9-0.8,8.7-1.9c0.5-0.2,1-0.3,1.5-0.5c2-0.3,4-0.5,6-1.2c2.2-0.3,4-1.6,6.1-2.4c1.6-0.5,3-1.2,4.5-2
			c1.5-0.6,2.6-1.6,3.4-3.1c1.2-1.4,2.4-2.9,4.1-3.8c0.1,17-3.6,32-21.2,39.7c-2.8,3.1-7,3.1-10.6,4.2c-10.3,3.3-20.6,6.9-31.5,7.8
			c-2.3-1.3-4.7-0.3-7,0.1c-6.7,1.2-12.6,0.1-17.1-5.5c-0.8-0.4-1.5-1-1.9-1.8c-0.6-0.9-1.2-1.9-1.9-2.7c-0.3-0.3-0.5-0.7-0.7-1.1
			C749.2,121,749.2,120.6,749.3,120.2z"/>
		<path class="st7" d="M841.2,80.8c0,2.4-2.2,3.1-3.4,4.6c-1.3,1.3-2.9,1.9-4.5,2.8c-1.8,1-3.7,1.5-5.6,2.3
			c-1.8,1.6-4.3,1.3-6.3,2.3c-1.5,0.7-3.5-0.1-4.7,1.5l0.1-0.1c-3.2,0.5-6.4,1.3-9.8,1.3c-5.7,0.4-11.5,0.4-17.2,0
			c-0.6-0.1-1.3-0.2-1.9-0.2c-3.3,0.4-6.5-0.9-9.6-1.5c-3.2-0.7-5.7-2.8-6.5-6.1c-1.3-5.3-2.8-10.6-1.2-16.1c1.9-1.7,1.3-4,1.5-6.1
			c-1,1.3,1.4,3.8-1.6,4.4c-3.3-5.2-1.6-10.7-1.3-16.1c1.1-4.3,0.8-8.8,1.4-13.2c1-1.6,0.4-3.8,2.1-5c0.8-4.2,1.8-8.2,7.6-6.7
			c27.6,5.6,48.1,20.3,59.6,46.6C840.7,77.2,841.5,78.9,841.2,80.8z"/>
		<path class="st10" d="M399.7,292.2c-0.7-0.1-1.4-0.1-2-0.2c-0.8-3.7,1.4-2.7,3.3-2.1l0,0c1.7,1.1,3.8,1.4,5.6,2.2
			c14,4.6,27.8,9.7,41.9,13.6c11.8,3.2,24,5.4,36.1,7.4c22.6,3.8,45.4,3.9,68.2,3.4c4.2-0.1,8.4-0.7,12.6-1.1c2.1-0.2,4.2,0,4.7,2.7
			c1,6.7,5.8,11.4,9.2,16.8c0.6,0.9,1.9,1.6,1.4,2.8c-0.6,1.6-2.2,0.9-3.4,1c-13.1,0.4-26.1-0.9-39-2.5
			c-18.4-2.3-36.6-5.8-54.5-10.5c-15.5-4.1-30.7-9.1-45.6-14.8c-8.9-3.5-17.6-7.4-26.1-12C408.1,296.3,403.9,294.1,399.7,292.2z"/>
		<path class="st11" d="M388.8,274.4c16.7,5,33.4,10,50.6,12.6c23.1,3.5,46.2,5.7,69.6,3.1c3.8-0.4,7.7,0.3,11.5-0.7
			c1.7-0.5,3.2,0.4,3.6,1.9c1.4,5,4.6,8.7,7.7,12.6c2.4,3.1,1.5,3.9-2.1,3.9c-19.1,0.2-38.1-1.9-56.9-5
			c-27.2-4.6-53.7-11.8-79.3-22.4c-3.2-1.3-6.5-2.4-9.3-4.6c-0.2-0.6-0.1-1.1,0.4-1.5C386.1,273.8,387.5,273.6,388.8,274.4z"/>
		<path class="st6" d="M756.3,283.4c14.5-9.6,23.7-23.7,31.7-38.6c2.6-4.8,4.5-10,6.9-15c0.6-1.3,0.5-3.6,3-3.1
			c1.2,0.4,1.7,1.5,2.2,2.5c8.6,17,3.4,32.1-6.8,46.1c-8.2,11.3-19.4,18.7-33,22.2c-5.9,1-6.9,0.2-7.1-5.3
			C753.1,289,753.7,285.9,756.3,283.4z"/>
		<path class="st8" d="M756.3,283.4c-2.1,3.7-1.7,7.7-1.7,11.7c-0.1,4.8,3.9,1.4,5.7,2.5c-5.4,1-6.1,4.7-5.5,9.4
			c0.8,6.2,0.3,12.7,3.5,18.4c-10.2,1.9-19.7-0.5-28.7-4.7c-5.9-2.8-12-5.6-16.3-11c-1.8-2.3-4.3-2.5-7-2c-0.4-1.9,0.9-1.6,2-1.4
			c2.8,0.7,3.6-0.7,3.5-3.3c-0.1-4,0-8,0-12.4C728.4,297.7,742.8,293.2,756.3,283.4z"/>
		<path class="st6" d="M777.9,132.5c4.9-3.1,10.8-3.1,16.2-4.8c8.6-2.7,17.3-4.9,25.9-7.3c-0.6,16.4-2,32.6-8.7,47.9
			c-1.2,2.2-0.7,4.7-1.5,6.9c-1.5,2.4-1.2,5.4-2.8,7.7c-0.5,0.3-1.1,0.3-1.6,0c-1.1-3-2.1-6-3.2-9c-0.6-1.7-0.8-3.6-1.8-5.1
			c-0.8-1.9-1.4-3.8-2.2-5.7c-1.5-3.9-4.4-7-6.3-10.7c-0.5-1.3-1.4-2.4-2.5-3.3c-1.3-1.2-1.7-3.3-3.5-4.1
			C784.3,140.2,780.5,136.8,777.9,132.5z"/>
		<path class="st12" d="M768.2,352.8c8-0.7,16-6,23.9-1.1c9.1,5.7,17.3,12.6,21.1,23.3c3.5,2.6,5.1,6.9,8.8,9.5
			c2.1,1.4,0.5,3.1-1.5,4c-4.8,2.3-16.6-0.3-20.8-5c-2.3-2.6-5.4-5-5.9-9c1.3-7.1-3.8-9.4-8.8-11.8c-5.2-3-11.1-4.9-15.8-8.7
			C768.8,353.7,768.5,353.2,768.2,352.8z"/>
		<path class="st13" d="M793.7,374.6c5,8.5,12.2,13.5,22.3,14c2,0.1,4.6,0,5.4-1.9c1-2.1-1.8-2.8-3-4c-2.3-2.2-4.3-4.5-5.3-7.6
			c-0.1-4.5,1.8-4.7,4.9-2.3c-0.5,0.5-1,0.9-1.4,1.5c0.4-0.6,0.8-1.1,1.3-1.6c9.6,1.9,19.1,2,28.6-1c1.1,1.6,3.4,2.4,2.7,5.4
			c-4.9-2.8-10-2.3-15.2-1.1c-4,1-8-0.2-11.9-1.1c-2.1-0.4-2-0.5-2.1,2.3c-0.1,4.1,3.3,5.6,3.7,8.8c0.4,3.7-5.1,3-5.1,6.6
			c-2.2-0.1-4.3,0.9-6.5-1.5c-3.8-4.2-8.9-3.7-10.9,0.5c-2.8,0.1-1.7,2.3-1.9,3.6c-0.5,4.9-1.3,9.7-3.6,14
			c-2.3-3.4,0.4-6.8,0.3-10.3c-0.2-5.1,0.9-5.3-0.9-9.6c-0.9-2.3,1.4-3.4,0.9-5.9C795.4,380.5,792.3,378,793.7,374.6z"/>
		<path class="st14" d="M626.4,107.4c-3.2,16.2-2.3,32.5-1,48.8c-1.1-0.8-3.3-0.9-2.9-2.7c1.3-5.9-1.3-11.5-1.4-17.2
			c-0.1-4.2-0.8-8.4,0.8-12.4c1.3,0.7,0.2,2.3,1.2,3.3c0.1,0.6,0.6-0.7,0-0.2c-1.3-3.4,0.3-7.1-0.9-10.5c0.4-3.7,0.7-7.5,1.1-11.2
			c0.6-0.5,1.2-0.7,2-0.4C626.2,105.5,625.8,106.7,626.4,107.4z"/>
		<path class="st15" d="M681.7,48.7c5.2-5,11.9-6.3,18.5-7.6c1.3-0.2,2.4-0.6,3.5-1.1c3.3-1.2,7,0.6,10.3-1
			c3.7-1.3,7.1,1.8,10.8,0.9c1.9-0.4,3.9-0.5,5.8,0.1c0.2,2.4-1.7,2.3-3.2,2.7c-6.8,0.3-13.6-0.1-20.4,0.2c-0.5,0.2-1.1,0.3-1.6,0.4
			c-1.8,0.3-3.7,0.2-5.3,1.2c-1.8,0.9-3.5,2.1-5.6,2.2c-1.5-0.1-2.8,0.6-4.2,1c-1.2,0.1-2.3,0.5-3.3,1.1c-1.4,0.3-2.7,1.1-4.1,0.7
			C682.2,49.4,681.8,49.1,681.7,48.7z"/>
		<path class="st16" d="M701.9,318.9c-1.5,4.2-5.2,6.3-8.7,8.5c-8,4.7-8.1,5.1-2.5,12.4c-1.6-0.2-1.9,1.3-2.9,2.4
			c-0.3-1.5-0.4-2.9-0.8-4.1c-2.5-6.3-1.1-9.2,5.5-12.2c2-0.9,3.9-2.3,4.7-4.8C697.7,319,699.1,316.7,701.9,318.9z"/>
		<path class="st13" d="M824.5,415.1c-9.6-5.9-16.9-14.2-23.2-23.4c3.4,3,7.4,5.2,10,9.4c2.6,4.1,7,7.1,10.5,10.6
			C822.8,412.7,823.6,414,824.5,415.1z"/>
		<path class="st17" d="M649.7,66.4c-2.7,6.1-7.8,10.2-12.7,14.4c-1-0.3-1.1-1.2-1.4-2C639.3,73.6,643.9,69.3,649.7,66.4z"/>
		<path class="st18" d="M803.5,209.2c-2.7,3.8-2.8,7.8-1.1,12c-0.3,0.1-0.5,0.3-0.8,0.4c-1.5-0.3-2.2-1.6-3.1-2.7
			c-0.6-2.5,0.4-4.9,0.3-7.4c0.3-1.3,0.3-2.7,0.8-4c0.5-2.1,1.5-3.9,2.3-5.9c0.3-0.8,0.9-1.3,1.7-1.6c0.9,0,1.5,0.6,1.8,1.3
			c0.4,1.1,0,2-0.3,3C804.2,205.9,803.4,207.4,803.5,209.2z"/>
		<path class="st19" d="M730.4,40.2c-1.9-0.2-3.7-0.3-5.6-0.5c5.4-2.3,11.1,0.3,16.5-0.8c-0.6,1.8-1.2,3.7-1.9,5.5
			c-0.4,0.4-0.8,0.7-1.3,0.9c-1.4,0.1-2.6-0.2-3.7-1.1c-1.4-0.7,0.5-4.2-2.8-3.2C731.2,40.8,730.7,40.6,730.4,40.2z"/>
		<path class="st20" d="M384.3,274.5c0,0.4,0,0.8,0,1.2c-5.5-0.8-9.4-4.7-14.3-6.7c0-1.9,1-1.8,2.3-1.1c3.8,1.1,7.6,2.4,11,4.4
			c0,0-0.2,0.5-0.2,0.5c0,0.7,0.6,0.8,0.9,1.2C384.1,274.1,384.2,274.3,384.3,274.5z"/>
		<path class="st16" d="M708.2,306.2c-0.9,0.2-1.7,0.5-2,1.4c-2.3,3.4-0.9,8.2-4.3,11.2c-2-2.8,1.6-4.9,1-7.6
			c-0.7-3.3,1.8-5.8,5.5-5.8C708.4,305.7,708.3,306,708.2,306.2z"/>
		<path class="st21" d="M629.7,187c0.1,0.8,0.1,1.5,0.2,2.3c0.4,0.4,0.7,0.8,0.9,1.3c0.3,1.1,0.2,2.1-0.1,3.2
			c-0.4,1.3-0.8,2.6-1.8,3.5c-0.9,0.1-1.6-0.2-1.2-1.3c0-0.7-0.1-1.5-0.1-2.2c-1.8-2,0.2-4.5-1-6.6c-0.3-1.9-0.6-3.8-0.9-5.6
			c1.2-0.8-0.9-3.9,2.3-3.2C629.7,181,627.8,184.4,629.7,187z"/>
		<path class="st22" d="M769.1,354.1c5.2,3,11.1,4.8,15.8,8.7c-5.1-0.2-8.6-4.2-13.1-5.9c-2-0.8-3.8-2.1-6.1-0.8
			C766,354,767.6,354.1,769.1,354.1z"/>
		<path class="st23" d="M734.1,455.9c-4.1,3.6-8.7,6.4-13.5,8.9C723.6,459.5,728.2,456.7,734.1,455.9z"/>
		<path class="st24" d="M808.9,174.6c0.2-2.3,0.9-4.4,2.4-6.3c0.2,5.2,1.5,10.5-1.1,15.5c-0.5,0.5-1,0.5-1.5,0
			C806.7,180.7,809.3,177.7,808.9,174.6z"/>
		<path class="st25" d="M635.6,82.9c-1.1,4.2-3.5,7.7-5.5,11.4c-0.4,0.3-0.9,0.4-1.4,0.2c-0.3-0.4-0.6-0.9-0.6-1.4
			c0.1-2.3,1.5-4.3,1.9-6.5c0.2-0.5,0.5-0.9,0.7-1.3c0.5-0.4,0.9-0.7,1.4-1.1C633,82.9,633.9,81.8,635.6,82.9z"/>
		<path class="st26" d="M804.4,196.3c-1-3.8,3.6-6.3,2.4-10.2c0-2.2,1.2-1.8,2.5-1.2c-1.7,3.5-0.8,7.3-1.5,10.9
			C806.7,196.8,805.6,197.1,804.4,196.3z"/>
		<path class="st27" d="M800.1,229.3c-0.7-0.8-1.5-1.7-2.2-2.5c-1.1-2.1-1.6-4.1,1.1-5.4c1.1-0.8,1.8,0.2,2.6,0.6
			c0.9,0.7,2.4,0.9,2.1,2.6C800.6,224.8,799.3,226.3,800.1,229.3z"/>
		<path class="st28" d="M385.5,282.1c2.6,2,6.4,1.8,8.7,4.5c-0.5,0.8-1.3,1.1-2.2,1.2c-2.5-1.2-5-2.3-7.6-3.5
			C383.5,283,383.6,282.2,385.5,282.1z"/>
		<path class="st29" d="M627.4,178.2c-0.6,1.1-1.2,2.2-1.7,3.3c-0.6-3.9,0-7.6,2.1-11c1.4,2,3.1,3.9,2.1,6.7
			C628.2,176,628.2,176,627.4,178.2z"/>
		<path class="st30" d="M360,378.4c3.5,4.6,3.1,10.3,4.4,15.5C361.2,389.2,360.8,383.8,360,378.4z"/>
		<path class="st31" d="M372.2,267.8c-0.9,0.1-1.8,0.2-2.3,1.1c-2.4-1.8-6-1.4-7.8-4.4c-0.2-1,0-1.6,1.1-1.1
			C366.1,265.4,369.8,265.3,372.2,267.8z"/>
		<path class="st32" d="M681.9,49.9c-1.8,4.2-5.6,3-8.8,3.4c2.6-2.1,5.2-4.1,8.6-4.7c0,0,0.2,0.2,0.2,0.2c0.4,0.2,0.6,0.5,0.4,0.7
			C682.1,49.8,682,49.9,681.9,49.9z"/>
		<path class="st33" d="M392,287.9c0.5-0.9,1.3-1.2,2.2-1.2c1.9,1.7,5.2,0.8,6.8,3.2c-1.5,0.1-3.2-0.1-3.3,2.1
			C395.7,290.7,393.4,289.9,392,287.9z"/>
		<path class="st33" d="M399.7,292.2c4.8,0.8,8.9,3.1,12.3,6.5C407.4,297.4,403.4,295.1,399.7,292.2z"/>
		<path class="st34" d="M385.5,282.1c-0.9,0.5-1.1,1.3-1.1,2.2c-2-1.6-4.1-3.1-6.1-4.7C381.1,279.6,383.9,279.4,385.5,282.1z"/>
		<path class="st35" d="M681.9,449.1c1.8,1.5,0.9,3.7,1.6,5.5c0.7,1.9,1.2,3.8,3.9,3.3c-1.3,2.5-2.8,3-4.2,0.2
			C681.8,455.3,681.6,452.3,681.9,449.1z"/>
		<path class="st36" d="M647.7,225.6c1.7,3,0.5,6-0.2,9c-2.6-1.8,0-4.5-1.2-6.5c0.1-0.4,0.3-0.8,0.4-1.2
			C647,226.4,647,225.7,647.7,225.6z"/>
		<path class="st37" d="M643.9,238.8c-0.9-0.5-2.5-0.6-2.3-1.9c0.1-1.7,2-1.3,3.1-1.6c1-0.2,1.7,0.6,1.6,1.6
			C646,238.3,645.1,238.7,643.9,238.8z"/>
		<path class="st38" d="M630.7,85.3c0.1,0.4,0.2,0.8,0.2,1.2c-1,2.3-2.7,4.4-2.2,7.2l-0.3,0.3c0,0.9-0.2,1.6-1.3,1.4
			C626.2,91.3,626.1,87.4,630.7,85.3z"/>
		<path class="st39" d="M792.4,417.1c-0.2,3.6-2.4,6.3-4.2,9.2C787,422,791,420.1,792.4,417.1z"/>
		<path class="st40" d="M625.2,105.2c-0.6,0-1.2,0-1.9,0.1c2-2.7,0.3-7.1,4.3-8.8c0.7,0.6,0.6,1.4,0.4,2.2
			C627,100.8,627,103.4,625.2,105.2z"/>
		<path class="st41" d="M634.3,395.1c-1.9,0.3-3.6-0.1-5.4-0.8c-1-0.4-2.5-0.6-2-2c0.4-1.1,1.8-1,2.9-0.8
			C629.8,394.7,633.4,393.1,634.3,395.1z"/>
		<path class="st42" d="M637.5,203.7c0.7,1.2,1.5,2.4,2.2,3.6c0.3,0.5,1,1.4,0.2,1.7c-0.5,0.2-1.4-0.6-2.2-1c0-0.3-0.1-0.7-0.1-1
			c-0.8-0.6-2.1-0.2-2.7-1.3c-0.5-1.4-0.5-2.6,0.9-3.4C636.9,202.2,637.1,203,637.5,203.7z"/>
		<path class="st43" d="M631,205.9c-0.6-1.1-1.2-2.3-1.8-3.4c0.7-0.9,1.4-1.6,2.6-1.3c2.1,1.3,2.5,3.3,2.4,5.6
			c-0.1,0.5-0.4,1-0.7,1.4C631.3,208.8,631.6,206.9,631,205.9z"/>
		<path class="st44" d="M622.3,116.4c1.7,3.5,0.7,7.2,0.3,10.9c-0.2-1.2-0.4-2.4-0.6-3.5C622.1,121.4,622.2,118.9,622.3,116.4z"/>
		<path class="st45" d="M635.6,82.9c-1.2,0.4-2.3,0.8-3.5,1.3c0.2-2.4,1.9-3.8,3.4-5.4c0.5,0.7,1,1.3,1.4,2
			C636.5,81.5,636.1,82.2,635.6,82.9z"/>
		<path class="st46" d="M658.8,440.2c-0.4,0-0.9,0.1-1.3,0.1l0,0c0.4-3.6-0.7-7.4,0.6-10.9C658.4,433,658.6,436.6,658.8,440.2z"/>
		<path class="st47" d="M363.3,263.4c-0.4,0.4-0.8,0.8-1.1,1.1c-1.7-0.2-3-0.9-3.8-2.9C360.6,260.9,362,262,363.3,263.4z"/>
		<path class="st48" d="M804.4,196.3c1.1-0.1,2.3-0.3,3.4-0.4c0.6,2-0.7,3.7-1,5.6c-0.4,0.4-0.8,0.4-1.2,0.2c-0.5-1.3-1.1-2.6-1-4
			c0-0.2,0-0.5,0.1-0.7C804.4,196.7,804.3,196.5,804.4,196.3z"/>
		<path class="st49" d="M626.6,187.1c1.8,2,1.3,4.3,1,6.6C624,192,626.4,189.4,626.6,187.1z"/>
		<path class="st50" d="M713.9,38.9c-3.2,2.2-6.8,0.9-10.3,1C707,38.4,710.5,38.6,713.9,38.9z"/>
		<path class="st51" d="M205.2,211.4c3,0.1,5.5,1.4,7.7,3.3C209.9,214.8,207.4,213.5,205.2,211.4z"/>
		<path class="st52" d="M416.4,511.1c2.8,0.3,4.2,2.4,5.5,4.5C419.1,515.2,417.8,513.2,416.4,511.1z"/>
		<path class="st53" d="M368.9,410.5c3,1.5,2,4.3,2.1,6.7C369.5,415.2,368.9,412.9,368.9,410.5z"/>
		<path class="st54" d="M803.7,224.6c-0.9-0.7-1.7-1.3-2.6-2c0.2-0.5,0.6-0.8,1.2-0.9c0.1-0.2,0.1-0.4,0.1-0.6
			c0.8,0.5,1.6,0.9,2.3,1.4c0.5,0.4,1,1,1.5,1.5C805.3,224.3,804.5,224.4,803.7,224.6z"/>
		<path class="st55" d="M632,213.6c-0.8,1.2-1.9,1.9-3.6,1.9c-0.2-2,0.9-3.2,2.4-4.2C631.8,211.8,632,212.6,632,213.6z"/>
		<path class="st56" d="M803.5,209.2c-1.8-2,0-3.1,1-4.4c0.4-0.6,0.8-0.6,1.2,0C805,206.3,804.2,207.7,803.5,209.2z"/>
		<path class="st39" d="M787.9,427c-0.6,1.9-1.4,3.6-3,4.9C785.4,430,784.2,427,787.9,427z"/>
		<path class="st57" d="M301.4,220.4c-2.3-0.5-4-1.8-5.6-3.4C298.5,216.7,300.3,217.9,301.4,220.4z"/>
		<path class="st58" d="M627.2,98.5c0.1-0.7,0.3-1.4,0.4-2.1c-0.2-0.4-0.4-0.7-0.5-1.1c0.4-0.5,0.9-0.9,1.3-1.4
			c0.6,0.1,1.1,0.2,1.7,0.4c-0.5,1.4-1,2.9-1.4,4.3C628.2,99,627.7,99,627.2,98.5z"/>
		<path class="st51" d="M203.9,213.8c-1-0.8-2.4-1.6-1.4-2.9c0.8-1.1,1.9-0.4,2.7,0.6C204.2,211.9,204.1,212.8,203.9,213.8z"/>
		<path class="st59" d="M632,213.6c-0.9-0.5-1.1-1.4-1.2-2.3c0.4-0.4,0.7-0.8,1.1-1.3c0.5-0.2,1-0.1,1.5,0.2c0.2,0.5,0.1,1-0.2,1.5
			C633.2,212.6,632.8,213.2,632,213.6z"/>
		<path class="st60" d="M631.1,201.4c-0.4,0.8-1,1.1-1.9,1.1c-0.2-0.7-0.3-1.4-0.5-2.2c-0.4-0.5-0.4-0.9,0.1-1.4
			c0.5-0.2,1-0.3,1.6-0.2C631.4,199.4,631.8,200.2,631.1,201.4z"/>
		<path class="st61" d="M232.8,269c0.9-0.5,1.1-1.3,1.1-2.2c1.2,0.8,2.6,2.1,1.8,3.3C234.8,271.2,233.6,269.8,232.8,269z"/>
		<path class="st20" d="M388.8,274.4c-1.5,0-3,0-4.5,0c0,0,0,0,0,0c-0.6-0.6-1.7-0.9-1.2-2.1c0,0,0.1-0.1,0.1-0.1
			C385.2,272.7,387.2,273,388.8,274.4z"/>
		<path class="st13" d="M805,390.3c1.1,0.9,2,1.7,2.1,3.3C805.1,393.2,804.5,392.2,805,390.3z"/>
		<path class="st62" d="M809.3,184.9c-1,0.1-1.9,0.2-2.5,1.2c-0.4-1-0.9-2.1-1.3-3.1c0.5-0.1,1-0.1,1.6-0.2c0.8,0,1.3,0.4,1.8,0.9
			c0.5,0,0.9,0.1,1.4,0.1C809.9,184.2,809.6,184.5,809.3,184.9z"/>
		<path class="st33" d="M406.5,292.1c-2.2,0.1-4.2-0.3-5.6-2.2C403.1,289.9,405,290.4,406.5,292.1z"/>
		<path class="st49" d="M632.9,210.1l-0.5,0c0,0-0.5,0-0.5,0c-0.3-1.4-2.2-2.4-1-4.2c0.7,0.7,1.5,1.4,2.2,2.2
			C633.7,208.8,633.8,209.5,632.9,210.1z"/>
		<path class="st63" d="M635.2,205.9c0.9,0.2,2-0.2,2.4,1.1c-1.3,0.2-1.7,1.3-2.2,2.2c-1.8,0.4-1.5-0.9-1.6-1.9
			C633.8,206.4,634.1,205.7,635.2,205.9z"/>
		<path class="st64" d="M634.2,206.9c0.1,0.9,0.2,1.8,1.1,2.3c-0.2,1.3-1.2,1.9-2.1,2.5c-0.1-0.6-0.2-1.1-0.3-1.7
			c0.1-0.7,0.2-1.3,0.3-2c0.1-0.3,0-0.6,0-0.9C633.4,206.6,633.8,206.5,634.2,206.9z"/>
		<path class="st49" d="M629,199.2c-0.1,0.4-0.2,0.8-0.3,1.2c-1-1.3-2.9-2.4-1.1-4.4c0.3,0.4,0.7,0.8,1,1.3
			C629.3,197.8,629.4,198.4,629,199.2z"/>
		<path class="st23" d="M720.7,464.7c-0.8,1.3-1.9,2-3.4,2.2C717.3,464.6,719,464.6,720.7,464.7z"/>
		<path class="st65" d="M268.2,254.6c1.6,0.6,2.6,1.8,3.4,3.3C269.4,257.8,268.3,256.7,268.2,254.6z"/>
		<path class="st66" d="M805.7,204.8c-0.4,0-0.8,0-1.2,0c0.1-1.1,0.1-2.2,0.2-3.2c0.2-0.6,0.5-0.6,0.8-0.1c0.4,0,0.8,0,1.2,0
			C806.4,202.6,806,203.7,805.7,204.8z"/>
		<path class="st67" d="M864.4,578.5c2.5,1.1,2.2,3.4,2.2,5.5C864.9,582.6,864.2,580.7,864.4,578.5z"/>
		<path class="st68" d="M673.1,568.7c-0.4,2.8-2.1,4.5-5.1,4.4c-2.9-0.1-4.9-1.9-4.8-4.9c0.1-3.2,2-5.1,5.3-4.9
			C671.5,563.6,673.1,565.4,673.1,568.7z"/>
		<path class="st69" d="M657.5,564.2c-1.1-1.3,2.3-4.8-2.2-4.4c0.7-5.1,3.5-9.6,4.5-14.8C660.5,551.5,659.9,557.9,657.5,564.2z"/>
		<path class="st1" d="M612.2,515.5c-0.7-0.4-1.5-0.7-2.2-1.1c0.2-1-0.3-2.8,1.1-2.6C613,512.1,611.8,514.2,612.2,515.5z"/>
		<path class="st1" d="M616.1,512c0.7,1.2,0.7,2.3,0,3.7C615.3,514.4,615.2,513.2,616.1,512z"/>
		<path class="st70" d="M754.1,483.7c-8.7-2.1-16.7-4.1-24.7-6c-2.5-0.6-2.6-2-2.2-4.1c0.5-2.5,2-2.6,4-2.1c7.8,2,15.7,3.9,23.5,5.7
			c2.2,0.5,3,1.4,2.5,3.8C756.7,483.3,755.8,484.3,754.1,483.7z"/>
		<path class="st46" d="M657.5,440.3c-0.1,4.1,1.4,8.9-4.9,10.5c0.2-3.1,0.4-6.1,0.7-9.2c2,1,0,3.3,1.5,4.3
			C657.1,444.7,655.6,441.7,657.5,440.3C657.5,440.3,657.5,440.3,657.5,440.3z"/>
		<path class="st71" d="M105,148.6c-4.5,0-6.7-2.5-6.8-6.1c-0.1-3.9,2.5-6.5,6.4-7.1c3.4-0.5,6.7,2.8,6.6,6.5
			C111.1,146.1,108.6,148.1,105,148.6z"/>
		<path class="st72" d="M145.4,158.5c-0.5,3.2-1.9,5.8-5.4,5.8c-3.2,0-5.7-1.7-5.6-5.3c0.1-3.8,2.6-5.7,6-5.8
			C143.6,153,145.1,155.5,145.4,158.5z"/>
		<path class="st73" d="M123.7,145.1c2.9,0.8,5.2,2.4,5,5.6c-0.2,3.5-2.5,5.7-6.2,5.5c-3.3-0.1-4.9-2.4-4.6-5.5
			C118.2,147.3,120.3,145.6,123.7,145.1z"/>
		<path class="st74" d="M170.3,178.1c-2.5-0.6-3.9-2-4-4.6c0-2.9,1.7-4.6,4.4-4.6c2.8-0.1,4.5,2,4.3,4.7
			C174.8,176.1,172.8,177.5,170.3,178.1z"/>
		<path class="st75" d="M156.3,161.9c2.6,0.7,4.6,2,4.1,4.9c-0.4,2.5-2,4.4-4.8,4.2c-2.5-0.2-3.8-2-3.7-4.5
			C152.1,163.7,153.7,162.2,156.3,161.9z"/>
		<path class="st76" d="M198.3,190.3c-2.2-0.2-3.7-1.5-3.8-3.4c-0.2-2.6,1.5-4,4-4.1c2.1-0.1,3.4,1.3,3.3,3.4
			C201.7,188.6,200.2,189.7,198.3,190.3z"/>
		<path class="st77" d="M224.3,195c2,0.3,3.7,1.3,3.6,3.4c-0.1,2.1-1.2,3.9-3.6,4.1c-2.2,0.1-3.5-1.1-3.5-3.3
			C220.7,196.8,222.2,195.6,224.3,195z"/>
		<path class="st78" d="M187.6,179.3c-0.3,2.5-1.4,4.1-3.8,4.2c-2.3,0.1-3.1-1.7-3.1-3.7c0-2.1,1-3.5,3.3-3.7
			C186.3,176,187.3,177.4,187.6,179.3z"/>
		<path class="st79" d="M215.2,192.3c-0.2,2.4-1.2,4.1-3.3,4.2c-2.1,0.2-3.4-1.4-3.5-3.4c-0.2-2.1,1-3.5,3.2-3.7
			C213.9,189.2,214.9,190.6,215.2,192.3z"/>
		<path class="st80" d="M795.7,173.8c-0.4,1.1-0.8,2.1-1.1,3.2c-1.3,3.6-2.7,7.1-7.3,7.3c-1.2-0.4-2.2-1.2-3.5-1.2
			c-1.7-0.1-3.5,0-5.2,0c-2.6,0.1-5.3-0.3-7.4,1.7c-1.5,1.7-0.3,3.5-0.3,5.2c-2,3.8-5.4,3.7-7.7,1.2c-2.8-2.9-4.6-2-6.9,0.1
			c-2.3,2.3-4.4,5-6.8,7.3c-0.5,0.2-1.1,0.2-1.6,0.1c-0.8-0.4-1.3-1-1.5-1.9c1.3-9,4.4-17,13-21.8c8.1-4.3,16.6-4.6,25.3-2.7
			c2.5-0.8,4.9,0.7,7.3,0.5c0.7-0.3,1.4-0.6,2.1-0.7C795,172.2,796.2,172.1,795.7,173.8z"/>
		<path class="st81" d="M716,269.2c-6.3-2.6-11-7.3-15.4-12.2c5.1-1.8,10.3-1.1,15.5-0.4c6.3,1.8,12.3-0.7,18.5-0.7
			c1.6,0.2,3.2,0.3,4.7,0.3c1.4,0.3,2.4,1.1,2.5,2.6c-0.3,1.1-1.1,1.7-2,2.2c-0.4,0.2-0.9,0.4-1.3,0.6c-1.9,0.8-1.3,2.1-0.8,3.4
			c0.1,0.5,0,1.1-0.1,1.6c-0.3,0.5-0.7,0.9-1.2,1.1c-5.5,1.5-11,3.1-16.7,1.5C718.5,268.8,717.2,269,716,269.2z"/>
		<path class="st82" d="M649.9,168.5c4.9-3.4,10.4-4.3,16.2-3.5c9.7,1.4,19,4,27.9,8.2c3,1.4,5.9,3.2,7.4,6.3c0.7,1.3,0.9,3-0.2,4.2
			c-1.1,1.2-2.4,0.2-3.5-0.4c-2.6-1.3-5.2-2.7-7.8-4c-2.5-0.6-5.3-0.6-6.9-3.2c-5.6-1.4-10.3-5.3-16.2-6.1c-5-0.7-9.9-0.8-14.8-0.2
			C650.9,169.9,649.8,170.4,649.9,168.5z"/>
		<path class="st83" d="M683,176c2.7,0.3,4.9,1.5,6.9,3.2c-1.4,0.3-2.8,0.7-0.7,2.2c6.2,4.4,9.6,10.8,12.3,17.5
			c1.4,3.6,1.1,7-4.2,6.9c-0.9-1,2.9-1.9,0.1-3c-0.5-0.9-0.9-1.8-1.1-2.7c-2.5-8.5-8-14.1-16-17.5c-3.2-1.4-6.5-0.7-9.8-0.7
			c-3.1,0-6,0.8-9.2-0.3c-2.5-0.9-5,0.1-4.2,3.8c-1.1,1.8-2.5,1.7-4,0.6c-1.1-2.3-2.7-3.4-5.2-2.2c-1.4-1.5-1.2-3-0.1-4.5
			c10.2-4.4,20.9-3.5,31.5-2.9C680.5,176.6,681.9,177.6,683,176z"/>
		<path class="st84" d="M699.5,252.8c3.5-0.1,6.9-0.9,10.1-2.5c4.4-2.2,8.9-3.6,13.8-1.6c0.3,0.1,0.8,0.3,1.1,0.1c9-4.5,18,0,27,0.1
			c0,3.2-3,3.2-4.8,4.4c-4.2,0.6-8.3,1.5-12.4,2.3c-7,1.1-13.9,2-21,1.1c-4.5-1.3-9.5,1.2-13.7-2.1
			C699.2,254,699.2,253.5,699.5,252.8z"/>
		<path class="st85" d="M746.9,178.2c-2.3,0.4-3.5,5.3-6.1,2.7c-2.8-2.7-0.5-6.1,1.8-8.1c9.7-8.8,21.1-14.4,33.6-17.8
			c4.1-1.1,7.8,1.5,11.8,1.2c-0.7,3.6-4.2,1.8-6.1,3.1c-8.9,2.1-17,6.1-24.2,11.7C754,173.2,751.2,176.8,746.9,178.2z"/>
		<path class="st86" d="M759.3,176c-7.4,5.1-10.2,12.8-12.1,21c-1.1,2.1,1.6,3.3,1.3,5.2c-3.3,0.9-4.8-0.3-4.7-3.8
			c0.1-6.2,1.7-11.9,5.6-16.9c1-3.1,2.7-5.8,5.3-7.9c1.7-1.4,3.6-2.7,5.4,0C760.1,174.6,759.9,175.4,759.3,176z"/>
		<path class="st87" d="M676.2,206c-3.5,0-6.5-1.6-9.8-2.3c-0.5-0.4-1.3-0.6-1.5-1.4c0.2-1.2,1.7-2.1,1-3.6c-0.1-1.5-1.7-5-3.9-8.4
			c6.4-2.6,10.9-2,13.5,1.6c-0.4,0.9-1.4,1-2.2,1.3c-3.3,1.4-3.7,3.6-1.2,6.2c3.1,3.2,8,2.9,11.8-0.6c1.4-1.3,1.9-3.1,3.3-4.3
			c2-0.3,3.9-0.1,4.7,2.2c-1.8,2.8-3.8,5.4-6.7,7.1C682.6,205.8,679.8,207.4,676.2,206z"/>
		<path class="st88" d="M698.8,148.6c-9.9,1-19.8,2.2-29.1,6.2c-2.1,0.9-4.4,1.5-6.7,2.3c-1.3-2.4,0.7-2.8,2.1-3.5
			c2.3-0.7,4.5-1.7,6.8-2.4c1.8-0.5,3.5-1.2,5.3-1.7c4.1-1.5,8.2-2.7,12.4-3.7c2.6-0.6,5.2-2.5,7.8-0.1
			C698.2,146.5,698.7,147.5,698.8,148.6z"/>
		<path class="st89" d="M799.3,170.4c-0.7,0.4-1.4,0.9-2.2,1.3c-1.3-1-2.5-0.5-3.7,0.3c-1,0.1-1.8-0.4-2.5-1.1
			c-3.3-2.2-3.9,2.9-6.6,2.4c-4.7,0-4.4-3-3.8-6.2c4-4.5,9.3-1.7,13.9-2.6c1.9-0.3,3.2,0.7,4.5,1.8c0.8,0.7,1.3,1.6,1.6,2.6
			C800.6,169.6,800,170.1,799.3,170.4z"/>
		<path class="st90" d="M737.1,136.2c-6.5,4.9-14.4,6.6-21.9,8.9c-2.9,0.9-6,1.4-9,2.1c-0.6-0.4-1.4-0.6-1.5-1.6
			c0.1-0.5,0.4-0.9,0.8-1.2c2.7-1.2,5.9-1.3,8.3-3.2c0.5-0.2,1-0.4,1.5-0.5c5-0.4,9.5-2.4,14.2-4.1c2.3-0.8,4.5-2.8,7.2-1.1
			C736.8,135.7,737,136,737.1,136.2z"/>
		<path class="st91" d="M780.2,192.6c-2.6,3.2-6.3,4.2-9.9,5.5c-1.4,0.9-2.7,0.8-3.8-0.5c-0.8-2.2,0.4-3.6,2.2-4.4
			c3.8-1.6,6.5-3.9,7-8.3c0.1-1.1,1.3-1.7,2.5-1.7c2,0.6,2,2.2,2,3.8C779.5,188.9,779.9,190.8,780.2,192.6z"/>
		<path class="st92" d="M729.1,193.8c-1.9,9.8-1.1,19.3,3.1,29.4C725.1,216.3,723.9,202.7,729.1,193.8z"/>
		<path class="st93" d="M647.6,179.3c0.2,1.5-0.5,3.3,1.2,4.4c2-0.1,1.8,1.3,1.8,2.5c-0.4,1.6-1.9,1.9-3.1,2.7
			c-0.4,0.2-0.8,0.4-1.3,0.4c-3.2-2.2-4.7-5.5-6.2-9C642.6,179.4,645.1,179.3,647.6,179.3z"/>
		<path class="st94" d="M759.3,173.8c-3.2-2.1-3.9,1-5.3,2.5c-1.6,1.7-3.1,3.5-4.6,5.2c0.1-1.8-0.2-3.2-2.4-3.4
			c3.1-2.9,6.2-5.9,10-7.9c3.1,0.2,5.9-4.9,9.2-0.5C764.6,172.3,762.2,173.4,759.3,173.8z"/>
		<path class="st95" d="M665.4,202.4c0.4,0.4,0.7,0.8,1.1,1.2c-8.9-1.7-14.7-7.7-20.3-14.2c0.1-0.1,0.3-0.2,0.5-0.3
			c4.4-0.6,6.7,3.4,10.1,4.9C659.4,197,662.8,199.3,665.4,202.4z"/>
		<path class="st96" d="M741.6,259c-0.4-1.1-1.2-1.8-2.2-2.2c-0.4-0.5-0.4-1-0.1-1.6c2.4-2.9,5.9-1,8.7-2.2c0.6-0.1,1.1,0.1,1.5,0.6
			c-1.3,4.6-4.7,7.6-7.9,10.7C738,262.5,741.5,260.8,741.6,259z"/>
		<path class="st97" d="M716,269.2c4.4-2.3,9.1,0.5,13.7-1.1c2.3-0.8,5-0.7,7.5-1.4c0.9-0.3,1.2,0.1,1.1,1
			c-3.1,2.6-6.9,2.7-10.7,2.5c-2.4,0.6-4.9,0.7-7.3,0C718.7,270.2,717.1,270.5,716,269.2z"/>
		<path class="st98" d="M780.2,192.6c-1.8-1.1-3.1-2.3-1.3-4.4c2.6-1.6,3.6-4.6,5.8-6.6c1.8-0.1,2.1,1.1,2.3,2.5
			c1.1,2.7-0.9,3.8-2.6,5C783.4,190.7,782,191.8,780.2,192.6z"/>
		<path class="st95" d="M784.4,189.1c0.9-1.7,1.7-3.3,2.6-5c3.8-1,4.7-5.1,7.5-7.2C794.4,182.4,789.6,188.2,784.4,189.1z"/>
		<path class="st99" d="M748.4,202.3c-1.9-1.4-3.8-2.8-1.3-5.2c0.4,0.4,0.7,0.8,1.1,1.2c1.8,1.6,3.5,0.1,5.3-0.1
			c1.6-0.3,3.2-0.2,4.8,0.1c1.6,0.6,3.4,0.6,4.5,2.2C758.2,202.2,753.3,202.1,748.4,202.3z"/>
		<path class="st100" d="M699.4,253.6c4.2,2.3,8.9,2.1,13.4,2.1c0.7,1.4,3.6-0.7,3.3,2.1c-5.2-0.3-10.3-0.6-15.5-0.9
			c-1.1-0.7-2.3-1.5-3.4-2.2C697.1,252.7,698,252.6,699.4,253.6z"/>
		<path class="st101" d="M634.6,192.6c1.5-3.4,0.4-6.9,0.7-10.3c0.2-2-0.1-4.1,2.3-5.1c-1.3,5.4-1.8,10.8-1,16.4
			c0.5,1.8,0.9,3.6-1.7,4.2c-1.4,0-2.2-0.7-2.6-2c-0.1-0.6,0-1.2,0.2-1.8C633,193.1,633.7,192.6,634.6,192.6z"/>
		<path class="st102" d="M676.2,206c3.8,1,5.9-2.5,9-3.4c1.8,1.6,4.1,0.5,6.1,1.2c1,0.4,2,0.7,1.7,2.1
			C687.4,207,681.8,208,676.2,206z"/>
		<path class="st103" d="M762.8,200.6c-1.5-0.5-3.4,0.4-4.6-1.2c1.5-1.2,2.5-2.8,3.9-4.1c2.1-0.7,3.8-0.2,4.9,1.8
			c0.7,1.4,2.2,0.8,3.3,1.1C768.1,199.7,765.5,200.3,762.8,200.6z"/>
		<path class="st104" d="M719.6,236c3.8-1,7.6-2,12.3-3.2C728.3,238.2,723.7,236.6,719.6,236z"/>
		<path class="st105" d="M749.4,253.6c-0.4,0-0.8-0.1-1.2-0.1c-1.2,0.4-1.5-0.2-1.2-1.3c1.5-1.1,3-2.2,4.5-3.2c1-0.6,1.6-2.6,3-1.6
			c1.3,1,0.1,2.3-0.7,3.2C752.5,251.9,751.3,253.2,749.4,253.6z"/>
		<path class="st106" d="M800,211.4c0.4,2.5-0.1,5-0.8,7.5c0.4,0.6,0.3,1.2-0.3,1.6c-3.2-3.1-2.6-6.6-1.1-10.3
			C798.5,210.7,798.9,211.6,800,211.4z"/>
		<path class="st107" d="M634.2,197.1c2.5-0.1,2.2-2,2.5-3.6c2.3,3.2,0.1,6.8,0.8,10.1c-0.4-0.4-0.7-0.8-1.1-1.2
			C633.5,201.6,631.3,200.4,634.2,197.1z"/>
		<path class="st108" d="M665.2,154.1c-0.8,1-2.3,1.4-2.2,3c-1.1,0.4-2.2,0.8-3.3,1.2c-0.6-0.8-2.7-0.1-2.1-2.1
			c2.5-1.2,4.5-3.5,7.6-3.5C665.9,153.2,665.9,153.7,665.2,154.1z"/>
		<path class="st109" d="M781.4,158.3c1.7-2.2,4.9,0,6.6-2.1c0.4,0,0.8,0,1.2,0c1.4,0.7,2.8-1.4,4.2,0c1.1,1.2,2.8,2.4,0.3,4
			C789.5,160.1,785.2,160.8,781.4,158.3z"/>
		<path class="st110" d="M657.7,156.3c0.7,0.7,1.4,1.4,2.1,2.1c-1.9,1-3.7,2.1-5.6,3.1c-0.6,0.9-1.4,0.8-2.1,0.2
			C652.4,158.3,655.4,157.7,657.7,156.3z"/>
		<path class="st111" d="M746,131.8c-2.9,1.6-5.3,4.3-8.9,4.4c0,0,0.1,0.1,0.1,0.1c-0.4-5.6,4.4-4.9,7.5-6.2
			C745.6,130.3,746.3,130.7,746,131.8z"/>
		<path class="st112" d="M738.2,267.7c-0.4-0.3-0.7-0.7-1.1-1c0-0.4,0-0.8,0.1-1.2c1.1-1.6,0.4-3.9,2.1-5.4c0.8-0.4,1.5-0.8,2.3-1.1
			c2.5,1.8-2.6,3.5-0.1,5.3C740.9,265.9,739.9,267.1,738.2,267.7z"/>
		<path class="st113" d="M785.9,145c3.9-1.6,2.7,2.8,4.4,3.8c0.3,0.9,0.4,1.8-0.1,2.6C786.4,150.8,786.8,147.5,785.9,145z"/>
		<path class="st114" d="M704.9,146.1c0.4,0.4,0.9,0.8,1.3,1.1c-2.5,0.5-4.9,0.9-7.4,1.4c-1.1-0.5-1.4-1.5-1.6-2.5
			c0.2-0.2,0.4-0.4,0.6-0.5c0.7-0.4,1.5-0.6,2.4-0.6C701.9,144.9,703.5,144.8,704.9,146.1z"/>
		<path class="st115" d="M692.9,205.9c-0.8-0.4-1.5-0.8-2.3-1.2c1.7-3.9,5-2.3,7.8-2.3c1.2,1.7-0.4,2.4-1.2,3.4
			C695.8,205.8,694.4,205.9,692.9,205.9z"/>
		<path class="st116" d="M640.1,209.5c3,2.1,4.2,4,4.4,7.4C641.9,214.8,640.8,212.9,640.1,209.5z"/>
		<path class="st117" d="M746,131.8c-0.4-0.4-0.9-0.8-1.3-1.2c0-2.8,2-3.3,4.1-3.6c0.8,0.2,1.4,0.7,1.6,1.5
			C749.5,130.3,747.7,131.1,746,131.8z"/>
		<path class="st118" d="M800,211.4c-0.5,0.5-1,1.4-1.4,1.4c-1.4-0.4-0.4-1.7-0.8-2.6c0.5-1.4,1-2.8,1.5-4.1c1-0.2,1.5,0.1,1.1,1.2
			C800.3,208.6,800.1,210,800,211.4z"/>
		<path class="st119" d="M793.3,171.5c0-1.9,1.9-2.1,2.8-2.3c1.3-0.2,0.6,1.6,1,2.4c-0.5,0.7-1,1.4-1.4,2.1c-0.7-0.3-1.4-0.7-2.1-1
			c-0.3-0.2-0.4-0.5-0.4-0.8C793.2,171.7,793.2,171.5,793.3,171.5z"/>
		<path class="st120" d="M803.7,200.4c-0.4,0.4-0.7,0.8-1.1,1.2c-0.5,0.5-1,0.5-1.5-0.1c0.1-2.3,0.9-4.1,3.4-4.6
			c0,0-0.1,0.1-0.1,0.1C805.7,198.5,804.8,199.5,803.7,200.4z"/>
		<path class="st121" d="M649.9,168.5c0.7,0.4,1.4,0.8,2.1,1.2c-1.8,0.7-3.6,1.4-6.4,2.5C646.8,169.5,648,168.6,649.9,168.5z"/>
		<path class="st122" d="M646.2,222.7c-1-1.6-2-3.1-0.8-5.5c1.6,1.3,2,2.7,2,4.3C647,221.9,647,222.6,646.2,222.7z"/>
		<path class="st123" d="M799.3,170.4c0.2-0.4,0.5-0.9,0.7-1.3c0.6-0.3,0.9-1,1.6-1c1.5,1.8,0.6,3.9,0.7,5.8
			C801.3,172.8,800.3,171.6,799.3,170.4z"/>
		<path class="st124" d="M792.4,156.1c-1.1,0.3-2.2,1.8-3.3,0.1c2.1-0.8-0.3-2.6,0.9-3.6c0.5-0.3,1-0.3,1.6-0.1
			C792.7,153.6,793.6,154.6,792.4,156.1z"/>
		<path class="st125" d="M791.3,152.9c-0.4-0.1-0.8-0.2-1.2-0.3c0-0.4,0.1-0.8,0.1-1.2c-0.9-0.9-0.4-1.8,0.1-2.6
			c1.6,0.3,1.9,1.6,2.3,2.8C792.4,152.3,792,152.8,791.3,152.9z"/>
		<path class="st126" d="M801.2,201.5c0.5,0,1,0,1.5,0.1c-0.7,1.9-1.5,3.7-2.2,5.6c-0.4-0.4-0.7-0.8-1.1-1.2
			C799.9,204.5,800.6,203,801.2,201.5z"/>
		<path class="st127" d="M750.4,128.5c-0.3-0.3-0.7-0.7-1-1c0.5-1.7,1.2-2.9,3.3-2.3c0.9,0.4,1.1,1.1,1.2,2
			C752.7,127.5,751.6,128,750.4,128.5z"/>
		<path class="st128" d="M720.2,270.2c2.4,0,4.9,0,7.3,0C725.1,271.2,722.7,271.4,720.2,270.2z"/>
		<path class="st129" d="M699.4,253.6c-1-0.1-1.7,0.2-2.2,1.2c-0.9-0.7-1.7-1.7-0.8-2.6c1.2-1.3,2.1,0.1,3.1,0.7
			C699.5,253.1,699.5,253.3,699.4,253.6z"/>
		<path class="st130" d="M799,220.4c0.1-0.5,0.2-1.1,0.3-1.6c1,1,2,2,3,2.9c-0.4,0.3-0.8,0.6-1.2,0.9c-0.7-0.4-1.4-0.8-2.1-1.3
			C799,221.1,799,220.7,799,220.4z"/>
		<path class="st131" d="M652,161.7c0.7-0.1,1.4-0.1,2.1-0.2c-0.8,2.3-2.5,2.6-4.6,2.3C650.4,163.1,651.2,162.4,652,161.7z"/>
		<path class="st132" d="M646.2,222.7c0.4-0.4,0.8-0.8,1.1-1.2c0.1,1.4,0.2,2.7,0.4,4.1c-0.3,0.4-0.7,0.8-1,1.2
			C646.6,225.5,646.4,224.1,646.2,222.7z"/>
		<path class="st133" d="M734.9,43.7c0.7,1.3,2,0.7,3.1,0.9c0.1,2-1,1.5-2.1,1.1c-0.7-0.1-1.4-0.1-2-0.2c-7.7-0.8-15.5-0.9-23.2,0
			c-4,0.4-7.9,0.8-11.9,1.3c-1.7,0.1-3.7,1.6-4.7-1.1c1.8-0.8,3.6-1.6,5.4-2.3c1.6-1.4,3.9,0.2,5.6-1.1l0,0c7-1.3,14-0.2,21-0.6
			c1.9-0.2,3.8,0.4,5.7,0.3C732.9,42.3,734.2,42.5,734.9,43.7z"/>
		<path class="st134" d="M713.9,137.3c10.4-4.4,20.8-8.9,30.7-14.5c1-0.5,1.5,0.1,1.9,0.9c0.1,0.5,0.1,1.1-0.1,1.6
			c-1.2,1.5-2.9,2.4-4.5,3.4c-5.8,3.3-11.8,6.3-18.1,8.5c-3,0.6-5.5,3-8.8,2C714.2,138.8,713.5,138.3,713.9,137.3z"/>
		<path class="st135" d="M689.7,146.3c-4.1,1.4-8.3,2.7-12.4,4.1c-0.7-0.4-1.6-0.8-1-1.9c4-1.2,7.9-3,12.2-3.3
			C688.9,145.5,689.6,145.6,689.7,146.3z"/>
		<path class="st136" d="M696.2,142.9c3.6-1.5,7.2-2.8,11-3.4c0.7,0.4,1.4,0.8,1.4,1.7c-0.8,1.7-2.5,2-3.9,2.6
			c-2.4,0.8-4.7,1.5-7.3,1C696.6,144.5,696,144,696.2,142.9z"/>
		<path class="st137" d="M710.6,45.6c7.7-1.8,15.5-1.8,23.2,0C726.1,45.5,718.4,45.5,710.6,45.6z"/>
		<path class="st138" d="M627.4,178.2c0.2-1.2,0.4-2.4,0.7-4.2c0.8,1.4,1.2,2.3,1.7,3.2c0,3.3,0.7,6.5-0.1,9.8
			C626.2,184.8,628.3,181.1,627.4,178.2z"/>
		<path class="st139" d="M634.6,192.6c-0.4,0.4-0.9,0.8-1.3,1.1c-3.1,0.9-2.3-2.2-3.4-3.3c0-0.4,0-0.8,0-1.1c0.6-0.8,1.2-1.6,2-2.6
			C632.8,188.8,633.7,190.7,634.6,192.6z"/>
		<path class="st140" d="M696.2,142.9c0.4,0.4,0.8,0.7,1.2,1.1c0.6,0.8,0.5,1.5-0.2,2.1c0,0,0-0.1,0-0.1c-2.5-1.1-5-0.2-7.5,0.2
			c-0.4-0.4-0.8-0.8-1.2-1.1C691.1,144.4,693.7,143.7,696.2,142.9z"/>
		<path class="st141" d="M708.6,140.8c-0.4-0.4-0.9-0.8-1.3-1.3c2.2-0.8,4.4-1.5,6.6-2.3c0.4,0.4,0.9,0.9,1.3,1.3
			C713.7,141.4,711.5,142.3,708.6,140.8z"/>
		<path class="st142" d="M627.2,98.5c0.5,0,1,0.1,1.5,0.1c-0.8,2.9-1.5,5.8-2.3,8.7c-0.4-0.7-0.8-1.5-1.2-2.2
			C625.9,103,626.6,100.7,627.2,98.5z"/>
		<path class="st143" d="M694.1,45.7c1.3,1.5,3.1,0.6,4.7,1.1c-1.7,1.2-3.6,1.1-5.5,1.1c-1.3,0-2.9,1.5-3.6-1
			C690.9,45.7,692.4,45.4,694.1,45.7z"/>
		<path class="st144" d="M665.2,154.1c0-0.5,0-0.9,0-1.4c1.9-0.7,3.7-1.4,5.6-2.1c0.5,0.3,1.1,0.4,1.2,1.1
			C670,153.3,667.6,153.7,665.2,154.1z"/>
		<path class="st145" d="M672,151.8c-0.4-0.4-0.8-0.7-1.2-1.1c1.8-0.7,3.7-1.5,5.5-2.2c0.3,0.7,0.7,1.3,1,2
			C675.6,150.9,673.8,151.3,672,151.8z"/>
		<path class="st146" d="M681.9,49.9c0.1-0.4,0-0.7,0-1.1c1.7,0.5,3.1-0.4,4.6-0.8c0.8,0.3,2-0.1,2.4,1.1
			C686.5,50,684.4,51.3,681.9,49.9z"/>
		<path class="st147" d="M688.8,49.1c-0.8-0.4-1.6-0.8-2.4-1.1c1-0.6,2-1.3,3.3-1c1,1.1,2.4,0.6,3.6,1
			C691.9,48.9,690.4,49,688.8,49.1z"/>
		<path class="st148" d="M746,124.1c-0.5-0.4-1-0.9-1.4-1.3c1.2-1.7,2.9-2.3,4.8-2.6c0,0,0.1,0.5,0.1,0.5
			C749.6,123.2,748.6,124.4,746,124.1z"/>
		<path class="st137" d="M735.9,45.7c0.7-0.4,1.4-0.7,2.1-1.1c0.5-0.1,0.9-0.1,1.4-0.2c1.1,0.8-0.1,1.4-0.3,2.1
			C738.1,46.3,737,46,735.9,45.7z"/>
		<path class="st149" d="M521.2,444.1c-1.2-3.8-1.8-7.6-1.9-11.6c0.8-0.6,0.1-2,1.2-2.4c1.3,3.7,1.3,7.6,1.8,11.4
			C521.7,442.2,522.4,443.6,521.2,444.1z"/>
		<path class="st150" d="M525.7,426.2c-1.3-3.9-1.1-7.8-0.5-11.8c1,3.1,2.1,6.1,1.6,9.4C526.2,424.5,526.8,425.8,525.7,426.2z"/>
		<path class="st151" d="M519.1,428.4c-1.5-3.7-0.7-7.5-0.6-11.3c1.2,2.5,2.1,5.1,1.7,7.9C519.3,426,520.4,427.6,519.1,428.4z"/>
		<path class="st152" d="M529.5,441.1c1.1,2.8,1.4,5.6,1.3,9.8c-2.1-2.9-2.3-5.1-2.6-7.3C529,442.9,528.3,441.5,529.5,441.1z"/>
		<path class="st153" d="M527.1,437c-0.9-2.1-1.7-4.3-1-6.7c0.7-0.7,0-2.1,1.2-2.6c1.1,3,1.5,6.1,0.7,9.3
			C527.7,437.5,527.4,437.5,527.1,437z"/>
		<path class="st154" d="M522.8,444.4c1.2,2.2,1,4.6,1.1,7c-0.4,0.4-0.8,0.4-1.2,0.1c-0.4-1.5-0.7-3-1.1-4.5
			C522.3,446.1,521.7,444.9,522.8,444.4z"/>
		<path class="st155" d="M527.1,437c0.3,0,0.6,0,0.9,0c0.9,1.2,1.7,2.5,1.5,4.1c-0.4,0.8-0.8,1.7-1.2,2.5
			C527.9,441.4,527.5,439.2,527.1,437z"/>
		<path class="st156" d="M519.1,428.4c0.4-1.1,0.7-2.2,1.1-3.4c0.1,1.7,0.3,3.4,0.4,5.1c-0.4,0.8-0.8,1.6-1.2,2.4
			C519.3,431.1,519.2,429.7,519.1,428.4z"/>
		<path class="st157" d="M522.8,451.4c0.4,0,0.8,0,1.2-0.1c1.2,1.3,0.8,2.9,0.9,4.5c-0.4,0.5-0.7,0.4-1-0.1
			C523.5,454.3,523.1,452.8,522.8,451.4z"/>
		<path class="st158" d="M531.6,456.7c0.2-1.3-2-3.1-0.3-3.7c1.6-0.6,1.1,1.7,1.4,2.8C533,456.9,532.6,457.2,531.6,456.7z"/>
		<path class="st159" d="M526,459.1c1.4,1.3,1.1,2.9,0.6,5.2c-0.7-1.8-1.2-3-1.7-4.2C525.1,459.6,525.5,459.3,526,459.1z"/>
		<path class="st160" d="M527.3,427.7c-0.4,0.9-0.8,1.8-1.2,2.6c-0.1-1.4-0.2-2.7-0.3-4.1c0.4-0.8,0.7-1.6,1.1-2.4
			C527,425.1,527.1,426.4,527.3,427.7z"/>
		<path class="st161" d="M526,459.1c-0.4,0.3-0.7,0.7-1.1,1c-0.3-1.5-0.7-3-1-4.4c0.3,0,0.6,0.1,1,0.1
			C526.2,456.6,525.9,457.9,526,459.1z"/>
		<path class="st162" d="M531.6,456.7c0.4-0.3,0.7-0.6,1.1-1c1,1.1,1.6,2.4,0.3,3.4C532.6,459.5,531.8,457.7,531.6,456.7z"/>
		<path class="st163" d="M522.8,444.4c-0.4,0.8-0.7,1.7-1.1,2.5c-0.1-0.9-0.3-1.9-0.4-2.8c0.4-0.9,0.8-1.7,1.2-2.6
			C522.6,442.4,522.7,443.4,522.8,444.4z"/>
		<path class="st164" d="M856.6,550.8c-0.4-0.4-0.9-0.8-1.3-1.1c-0.1-2.5,2.6-2.9,3.5-4.6c2.5-2.4,5.8-4,7.8-6.9
			c0.5-0.2,1-0.4,1.4-0.7c0.8-0.8,1.6-1.6,2.8-1.2c0.4,0.9,1.1,1.3,2,1.4c0.9,3.4-2.8,3.5-3.9,5.5c-0.4,0-0.7,0-1.1,0.1
			c-1.2,1.2-2.1,2.7-3.5,3.7c-2.5,1-3.9,3.6-6.6,4.4C857.3,551.4,856.9,551.2,856.6,550.8z"/>
		<path class="st165" d="M869,543c-0.1-2.8,3.3-3.1,3.9-5.5c1.8-2.5,4-4.5,7-5.5l-0.1-0.1C878,537.5,873.9,540.6,869,543z"/>
		<path class="st166" d="M879.1,525.6c-1.8,2.6-2.4,6.2-6.2,7.1c-0.4,0-0.6-0.2-0.7-0.5c1.1-2.8,3-5,5.5-6.7
			C878.2,525,878.7,525.1,879.1,525.6z"/>
		<path class="st167" d="M866.6,538.1c-0.7,4.4-4.7,5.5-7.7,7.6c-0.5-0.5-0.5-0.9,0-1.4C860.9,541.6,863.4,539.4,866.6,538.1z"/>
		<path class="st168" d="M858.9,544.4c0,0.5,0,0.9,0,1.4c-0.4,2.1-2.8,2.2-3.6,3.9c-0.3,0-0.7,0-1,0c-1,0.4-1.3,0-0.9-0.9
			C854.7,546.6,856.7,545.4,858.9,544.4z"/>
		<path class="st169" d="M855.5,554.3c-1.6,1.3-3.1,3-6.1,3.2c1-2.6,2.5-4,4.8-4.5C855,553.1,855.4,553.6,855.5,554.3z"/>
		<path class="st170" d="M857.8,551c1.9-1.9,3.7-3.9,6.4-4.7c0.4,0.2,0.5,0.4,0.5,0.7c-0.1,0.3-0.2,0.4-0.3,0.4
			c-1.7,2.3-4,3.8-6.6,4.9c-0.3-0.3-0.3-0.6-0.3-0.8C857.6,551.1,857.7,551,857.8,551z"/>
		<path class="st171" d="M851.2,552.2c-1,1.7-2.7,2.4-5.1,3.1c0.9-2.3,2.3-3.5,3.9-4.4C850.6,551,851.1,551.4,851.2,552.2z"/>
		<path class="st172" d="M879.9,532.1c-0.1-2.1,0.2-3.9,3.2-4C882.7,530.3,882.4,532,879.9,532.1
			C879.8,532.1,879.9,532.1,879.9,532.1z"/>
		<path class="st173" d="M870.8,536.2c-0.9,0.4-1.9,0.8-2.8,1.2c-0.2-1.7,0.4-2.7,2.1-3.1c0.5-0.1,0.7,0.1,0.7,0.6
			C870.8,535.4,870.8,535.8,870.8,536.2z"/>
		<path class="st174" d="M851.2,552.2c-0.4-0.4-0.8-0.8-1.2-1.3c1.1-0.7,2.3-1.4,3.4-2.2c0.3,0.3,0.6,0.6,0.9,0.9
			C853.7,551.1,852.2,551.4,851.2,552.2z"/>
		<path class="st175" d="M857.8,551c0,0.4,0,0.8,0,1.2c-0.7,0.7-1.5,1.4-2.2,2.1c-0.4-0.4-0.9-0.8-1.3-1.3c0.8-0.8,1.6-1.5,2.3-2.3
			C857,550.8,857.4,550.9,857.8,551z"/>
		<path class="st176" d="M870.8,535c-0.1-0.4-0.4-0.6-0.7-0.6c0.1-1.3,1-1.8,2.1-2.2c0.2,0.2,0.4,0.4,0.7,0.5
			C872.7,534,872.2,534.9,870.8,535z"/>
		<path class="st177" d="M864.3,547.3c-0.1-0.4-0.1-0.7-0.2-1.1c1-1.4,2-2.6,3.7-3.1C868.1,545.7,866.3,546.6,864.3,547.3z"/>
		<path class="st178" d="M879.1,525.6c-0.5-0.1-0.9-0.1-1.4-0.2c0.7-1.1,1.3-2.3,2-3.4c0.5-0.4,1-0.4,1.5,0.1
			C880.8,523.5,880.3,524.8,879.1,525.6z"/>
		<path class="st179" d="M881.2,522.1c-0.5,0-1-0.1-1.5-0.1c0.2-1.1,0.4-2.8,1.8-2.4C882.6,520,882.1,521.4,881.2,522.1z"/>
		<path class="st180" d="M770.5,53.5c0.3,5.6-0.6,11.2,0.8,16.7c0.4,0.2,0.5,0.3,0.4,0.5c-0.1,0.2-0.2,0.3-0.4,0.3
			c-0.5,5.3,0.5,10.6,1.6,15.7c1.4,6.5,7.7,5.8,12.4,7.4c0.8,0.3,1.8,0.1,2.7,0.1c-1.4,3.1-3.8,1.3-5.8,1.3c-2.3,0.2-4.6-0.2-7.3-1
			c0.8,6.5,3.4,11.9,5.4,17.5c0.7,1.3,0.9,2.4-1.2,2.2c-11.1-18.6-13.6-38.8-11.5-59.8c0.4-4,1.2-8,1.8-11.9
			C772.3,45.9,770.5,49.7,770.5,53.5z"/>
		<path class="st181" d="M752.7,125.1c-1.1,0.8-2.2,1.5-3.3,2.3c-1.8,0.7-3.5,1.6-4.6,3.2c-2.4,2.1-6.5,1.9-7.5,5.7
			c-3-1.6-5.1,1-7.5,1.7c-4.8,1.5-9.2,4.3-14.5,3.8c1.7-4.3,6.3-3.3,9.3-5.1c6-2.4,11.9-5,17.4-8.3c1.3-0.8,2.3-1.8,3.7-2.4
			c1.9-1,2.7-3.4,5-3.9C752.1,122.5,752.5,123.7,752.7,125.1z"/>
		<path class="st182" d="M782.2,95.5c1.9-0.7,4.2,0.7,5.8-1.3c0.4,0,0.7,0,1.1,0c6.3,0.9,12.5,0.9,18.8,0c3,0.7,5.9-2.3,8.9-0.1
			c-2.3,2.5-5.4,2.6-8.5,2.4c-6.6,0.7-13.2,0.7-19.8,0C786.4,96.7,784.2,96.7,782.2,95.5z"/>
		<path class="st183" d="M770.5,53.5c-1.1-3.6,1-7.5-1-11.1c0.4-1.9,0.7-3.7,1.1-5.6c2.6,0.5,1.1,2.3,1.1,3.6
			C771.3,44.8,771.7,49.2,770.5,53.5z"/>
		<path class="st184" d="M788.6,96.6c6.6,0,13.2,0,19.8,0C801.8,98,795.2,98.1,788.6,96.6z"/>
		<path class="st185" d="M779.1,114.2c1-0.4,1-1.4,1.2-2.2c1.2,2.3,2.3,4.6,4.1,8.2C780.8,118.3,779.8,116.3,779.1,114.2z"/>
		<path class="st186" d="M820.9,91.8c2.2-0.7,4.4-1.5,6.6-2.2c1.1-0.2,2.5-1,2.4,1.2c-2.4,0.1-3.9,2.9-6.5,2.4
			C822.8,92.4,821.3,93,820.9,91.8z"/>
		<path class="st187" d="M820.9,91.8c0.9,0.3,2,0.3,2.5,1.4c-2.1,1.5-4.5,0.9-6.7,1.1C817,91.6,819.2,92.1,820.9,91.8z"/>
		<path class="st188" d="M830,90.8c-0.5-1-1.5-1-2.4-1.2c1.9-0.7,3.8-1.4,5.8-2.1c1.2-0.4,1.4,0.1,1.1,1.1
			C832.9,89.3,831.5,90.1,830,90.8z"/>
		<path class="st189" d="M750.6,122c-1.2,1.8-2.5,3.4-4.6,4c-0.3-0.2-0.5-0.4-0.4-0.7c0.1-0.2,0.2-0.4,0.3-0.4c0-0.3,0-0.6,0.1-0.9
			c1.5-0.7,2.8-1.8,3.4-3.4C749.8,121.1,750.2,121.5,750.6,122z"/>
		<path class="st190" d="M771.6,40.4c-0.3-1.2,0.1-2.7-1.1-3.6c0.4-0.9,0.9-1.9,1.3-2.8c0.3,0.5,0.6,1.1,0.9,1.6
			C772.4,37.2,772,38.8,771.6,40.4z"/>
		<path class="st191" d="M834.4,88.6c-0.4-0.4-0.7-0.8-1.1-1.1c1.2-1.2,2.8-1.9,4.5-2.1C837.7,87.5,836,88.1,834.4,88.6z"/>
		<path class="st184" d="M807.9,94.2c-6.3,1.7-12.5,1.8-18.8,0C795.4,94.2,801.7,94.2,807.9,94.2z"/>
		<path class="st192" d="M771.3,71c-0.3-0.3-0.3-0.5-0.1-0.8c0.1-1.9,0.3-3.8,0.4-5.8C772.3,66.7,773.4,69,771.3,71z"/>
		<path class="st193" d="M791.3,152.9c0.4-0.4,0.9-0.9,1.3-1.3c2.8,3.3,5,7,6.5,11.1c0.7,1.1,0.6,2-0.7,2.6
			c-1.6-0.5-2.6-1.7-3.7-2.9c-0.6-0.9-1.1-1.9-0.1-2.9c-0.7-1.1-1.5-2.2-2.2-3.3C792,155.1,791.7,154,791.3,152.9z"/>
		<path class="st194" d="M808.8,183.7c-0.6-0.3-1.2-0.6-1.8-0.9c-0.2-2.9-0.2-5.8,1.9-8.1C811.3,177.6,808.2,180.6,808.8,183.7z"/>
		<path class="st195" d="M798.1,164.9c1-0.5,0.9-1.4,1-2.2c1.4,1.6,1.9,3.5,2.4,5.4c-0.5,0.3-1.1,0.7-1.6,1
			c-0.3-0.7-0.6-1.4-0.9-2.1C798.3,166.5,797.1,166.2,798.1,164.9z"/>
		<path class="st196" d="M818,372.7c-0.3,1.5-0.5,3.1-2.6,4.1C814.9,374.2,816,373.1,818,372.7C818.1,372.7,818,372.7,818,372.7z"/>
		<path class="st197" d="M727.2,42.1c-7.4,0.1-14.7,0.1-22.1,0.2c7.2-2.7,14.7-0.6,22.1-1.1c0.4,0.2,0.5,0.4,0.4,0.6
			C727.4,42,727.3,42.1,727.2,42.1z"/>
		<path class="st50" d="M727.2,42.1c0-0.3,0-0.6,0-0.9c1.1-0.1,2.4,0.2,3.2-1c0.4,0,0.8,0,1.2,0c0.9,1,0.9,1.9,0,2.9
			C729.9,43.7,728.7,42.2,727.2,42.1z"/>
		<path class="st50" d="M705.1,42.3c-1.7,1.2-3.6,1.1-5.6,1.1C701.1,41.5,703.2,42.4,705.1,42.3z"/>
		<path class="st198" d="M803.7,200.4c0.3-1.1,0.6-2.3,0.9-3.4c1.6,1.2,1.1,2.9,1,4.4c-0.3,0-0.5,0-0.8,0.1
			C804.4,201.2,804,200.8,803.7,200.4z"/>
		<path class="st197" d="M731.6,43.1c0-1,0-1.9,0-2.9c3.5-1.1,3,1.6,3.3,3.5C733.8,43.5,732.7,43.3,731.6,43.1z"/>
		<path class="st11" d="M383.2,272.3c0.4,0.7,0.8,1.4,1.2,2.1c-1.4-0.1-2.7-0.4-3.5-1.7C381.6,272.6,382.4,272.5,383.2,272.3z"/>
		<path class="st199" d="M629.9,190.4c1.6,0.6,1.2,3.3,3.4,3.3c-0.1,0.4-0.2,0.7-0.3,1.1c-0.9,1-1.8,1.9-3.4,1.2
			c-0.3-0.8-0.4-1.5,0.1-2.2C629.8,192.7,629.8,191.6,629.9,190.4z"/>
		<path class="st200" d="M629.7,193.8c0.1,0.7,0.2,1.4,0.3,2.1c0.9,1.2,0.8,2.3-0.2,3.3c-0.3-0.1-0.6-0.1-0.9-0.1
			c-0.1-0.7-0.2-1.3-0.3-2C629,196.1,628.4,194.6,629.7,193.8z"/>
		<path class="st201" d="M628.8,93.7c-1.6-3.1-0.6-5.4,2.2-7.2C631.3,89.3,629.3,91.3,628.8,93.7z"/>
		<path class="st202" d="M629.8,199.3c0.1-1.1,0.1-2.2,0.2-3.3c1-0.4,2-0.7,3-1.1c0.3,0.8,0,1.9,1.2,2.3c-1.1,2.6,0.2,4.1,2.3,5.3
			c-1.8,0.6-0.8,2.3-1.2,3.4c-0.3,0.3-0.6,0.7-0.9,1c-0.3,0.1-0.7,0.2-1,0.3c0.2-2.2-0.7-4.1-2.1-5.8
			C631,200.5,630.8,199.6,629.8,199.3z"/>
		<path class="st203" d="M767,197c-1.7-1-3.5-1.3-5.5-1.1c-4.2,0.7-5.5-2.1-6.4-5.3c0.9-1.8,2.9-2,4.3-3.2c1.7-1.5,2.4-1.2,3.3,1.1
			c1.7,4.5,4.6,3.9,7.4,0.9c1.6-2.2,1.7-4.1-0.8-5.7c2.5-2.3,5.6-2.1,8.6-2.2c0.7,0.7,0.7,1.4,0.2,2.1c-0.5,0.5-1.6,1-1.5,1.4
			c0.5,5.5-2.7,7.8-7.3,9.2C768,194.7,767,195.5,767,197z"/>
		<path class="st204" d="M759.3,173.8c1.6-2.4,4.5-2.8,6.6-4.4c4.3-4.4,11.3-5.4,15.5-2.3c-0.1,3-0.6,6.3,4.2,5.6
			c0.4,0.1,0.6,0.3,0.5,0.6c-0.1,0.2-0.2,0.4-0.3,0.4c-3.5,1.8-6.4-1.4-10.2-1c-5.6,0.7-11.1,1.3-16.3,3.4
			C759.3,175.3,759.3,174.6,759.3,173.8z"/>
		<path class="st205" d="M755.1,190.6c2.3,1.6,3.2,4.8,6.4,5.3c2.9,5-2,2.5-3.3,3.4c-1.8,0-3.6,0.1-5.4,0.1
			c-1.5,0.1-3.5,1.4-3.7-1.6C750.5,194.9,753.1,193,755.1,190.6z"/>
		<path class="st206" d="M778.2,183.7c-0.1-0.7-0.1-1.4-0.2-2.1c2.2,0,4.5,0,6.7,0c-0.6,3.3-1.4,6.5-5.8,6.6
			C779.3,186.6,779.4,185,778.2,183.7z"/>
		<path class="st207" d="M769.4,183.8c1.7,0.2,4-0.7,4.2,2.2c0.2,2.3-1.4,3.2-3.4,3.5C767.2,187.9,769.1,185.7,769.4,183.8z"/>
		<path class="st208" d="M785.8,173.6c-0.1-0.3-0.1-0.6-0.1-0.9c1.1-1.5,1.5-3.1,3.5-4.2c3.4-1.8,1.7,1.1,2.2,2
			c0,1.3,0.8,2.2,1.2,3.3c-1,1.5-2.5,1.7-3.3,0.2C788.1,171.9,786.9,173.8,785.8,173.6z"/>
		<path class="st209" d="M792.5,173.8c-2.4-0.4-2.8-1.5-1.2-3.3c0.7,0.3,1.3,0.7,2,1c0.1,0.4,0.2,0.8,0.3,1.2
			C793.2,173.1,792.9,173.5,792.5,173.8z"/>
		<path class="st86" d="M749.1,197.9c0.8,1.5,2.3,1.3,3.7,1.6c-1.9,1-3.8,2-4.5-1.2C748.4,198,748.7,197.8,749.1,197.9z"/>
		<path class="st210" d="M716.1,257.8c-1.1-0.7-2.2-1.4-3.3-2.1c7.4,0.5,14.7-0.9,22-1.2c1.3-0.6,2.6-0.9,3.7,0.6
			c-0.2,1.5-1.4,1.5-2.5,1.7C729.4,257.3,722.9,260,716.1,257.8z"/>
		<path class="st211" d="M739.3,260.1c0,2.1,0.5,4.3-2.1,5.4c0-0.3-0.1-0.7-0.1-1c-1.2-1.9-0.4-3.3,1.2-4.4
			C738.6,260.1,738.9,260.1,739.3,260.1z"/>
		<path class="st112" d="M738.2,260.1c-0.4,1.5-0.8,2.9-1.2,4.4C734.7,262.9,735,261.7,738.2,260.1z"/>
		<path class="st112" d="M736,256.8c0.7-0.4,1.4-0.8,2.1-1.2c0.4-0.3,0.8-0.3,1.2,0.1c0,0.4,0,0.7,0,1.1
			C738.3,257.1,737.2,258.5,736,256.8z"/>
		<path class="st212" d="M656.4,195.1c-3.2-2-6.5-4-9.7-6c-0.4-2.7,2-1.5,3.1-2.1c1-0.9,0.8-3.8,3.4-2.1c1.1,1.4,2.2,1.9,3.3-0.1
			c2.8-4.9,8-2.3,12-3.4c3.8-1.1,8.3-1.1,12.4,0.3c8.6,3.4,14.5,9.3,16.6,18.6c-3.3,1.3-4.9-0.2-5.6-3.3c-1-1.6-3-1.1-4.3-2
			c-1,0.6-1.8,0-2.6-0.4c-0.8-0.3-1.6-0.6-2.5-0.4c-1.1,0.3-1,1.2-1,2.1c0.1,0.8,0,1.6-0.4,2.3c-2.5,2.7-5.1,2.3-7.4-0.2
			c-1.8-1.9-2.2-4.1,0.7-5.7c0.8-0.8,0.9-1.9-0.3-1.9c-3.9-0.1-8-1.4-11.8,0.7c-0.6,1.2-1.7,1.6-2.7,2.1
			C658.3,194,657.4,194.7,656.4,195.1z"/>
		<path class="st213" d="M691.7,197c1.7,1.3,3.1,3.3,5.6,3.3c0.4,0.7,0.8,1.4,1.2,2.1c-2.1,2.3-5.5,0.4-7.8,2.3
			c-1.7-1.1-5.1,2.4-5.5-2.1C688.2,201.7,688.2,197.3,691.7,197z"/>
		<path class="st214" d="M680.7,181.7c-8.3-0.7-16.5,0.4-24.4,3.2c-0.7-1.5-1.4-2.9-2.3-4.9c7.2,0.1,13.8,1.1,20.5,0.5
			C676.6,180.2,679,179.6,680.7,181.7z"/>
		<path class="st215" d="M653.1,184.9c-1.8-0.4-1.8,2.1-3.4,2.1c-0.2-1.1,0.1-2.4-1-3.2c0.2-1.2,0.2-2.9,1.9-2.5
			C652.3,181.6,653.1,183.1,653.1,184.9z"/>
		<path class="st216" d="M739.4,255.7c-0.4,0-0.8-0.1-1.2-0.1c-0.8-1.3-2.1-0.9-3.3-1.1c3.9-1.7,8-2.1,12.2-2.3
			c0.4,0.4,0.8,0.9,1.2,1.3C745.7,255.7,742,253.5,739.4,255.7z"/>
		<path class="st217" d="M781.4,167.1c-5.4-1.2-10.5,0.2-15.5,2.3c-3.2-1.9-5.8,2.9-9,0.9c7.1-6.1,15.2-10.3,24.4-12
			c4.5,0.2,8.9,0,13.3,1.2c-0.1,1.1,0.3,1.9,1.4,2.4c-0.2,1,0.1,2.1-0.3,3.1c-2.5,2.2-5.5,0.7-8.3,1.1
			C785.5,166.4,783.2,165.3,781.4,167.1z"/>
		<path class="st218" d="M685.2,193.7c0.7,0.4,1.5,0.8,2.2,1.2c-0.2,5.3-4.4,6.5-8.4,8.1c-3.8,1.5-5.9-1-8.3-2.9
			c-2.1-1.7-1.8-4.3-0.8-6.5c0.9-2,2.3-2.9,4.2-1c-1.5,2.4-1.2,4.6,1.3,6c2.2,1.3,4.2,0.7,5.5-1.6
			C682.5,196.1,683.6,194.7,685.2,193.7z"/>
		<path class="st219" d="M658.7,192.8c1.1-0.4,2.2-0.9,3.3-1.3c1.9,0,3.8,0,5.8,0c0,2.7-2,5.2-0.3,7.8c0.1,0.5,0,1.2-0.5,1.3
			C663,201.2,658.7,197.1,658.7,192.8z"/>
		<path class="st220" d="M658.7,192.8c1.9,4.6,5,6.8,8.9,6.5c2.2,3.1-2.2,1.6-2.2,3.1c-3.8-1.5-6.8-3.9-9-7.3
			C656.3,193.5,656.8,192.3,658.7,192.8z"/>
		<path class="st221" d="M795.8,164.9c-0.6-1.1-0.8-2.2,0.3-3.1c0.7,1,1.4,2,2.1,3.1c0.3,0.7,0.6,1.4,0.9,2.1
			C797.2,167.5,796.9,165.6,795.8,164.9z"/>
		<path class="st222" d="M724.9,137.2c-3,2.2-7.2,1.6-9.8,4.5c-0.5,0.1-1,0.1-1.4,0.2c-2.7,1.8-5.6,2.5-8.9,2.2
			c-0.3-0.5-0.2-0.9,0.2-1.3c1.2-0.7,2.4-1.3,3.5-2c2.4-0.3,4.6-0.9,6.6-2.2c2.8-0.8,5.7-1.6,8.5-2.4
			C725,135.6,725.1,136.2,724.9,137.2z"/>
		<path class="st223" d="M705,143.8c2.9-0.6,5.8-1.2,8.7-1.9c-1.9,3.6-5.5,2.6-8.5,3.3c-1.1,0.6-1.4-0.1-1.5-1
			C704,143.7,704.5,143.5,705,143.8z"/>
		<path class="st224" d="M704,144.2c0.4,0.3,0.8,0.6,1.2,0.9c-0.1,0.3-0.2,0.6-0.4,0.9c-1.8,0-3.6,0.1-5.5,0.1
			C700.2,143.8,702.1,144,704,144.2z"/>
		<path class="st225" d="M704,144.2c-1.5,0.7-3.5,0.4-4.6,2c-0.7,0-1.4,0-2.1,0c0.1-0.7,0.1-1.4,0.2-2.1c2.5-0.4,5.1-0.8,7.6-1.3
			c0,0.3,0,0.7,0,1C704.7,143.9,704.3,144.1,704,144.2z"/>
		<path class="st226" d="M724.9,137.2c-0.4-0.4-0.8-0.7-1.2-1.1c6-2.9,11.9-5.8,17.9-8.7c0.5,0.3,1.1,0.4,1.2,1.1
			C737.5,132.7,731.2,135,724.9,137.2z"/>
		<path class="st227" d="M742.8,128.6c-0.4-0.4-0.8-0.7-1.2-1.1c1.4-0.8,2.9-1.7,4.3-2.5c0,0.3,0.1,0.7,0,1
			C745.3,127.4,744,127.9,742.8,128.6z"/>
		<path class="st228" d="M685.2,193.7c-0.5,2.3-1,4.5-4.2,3.3c-0.4-0.4-0.7-0.8-1.1-1.1c0.9-1,1-2.4,2-3.3
			C683.1,192.5,684.3,192.6,685.2,193.7z"/>
		<path class="st229" d="M681.8,192.7c0.1,1.6,0.3,3.2-2,3.3C679.3,194.1,679,192.5,681.8,192.7z"/>
	</g>
</g>
</svg>
